
        <svg xmlns="http://www.w3.org/2000/svg" xmlns:xlink="http://www.w3.org/1999/xlink" version="1.1" width="3174.3913873364954" height="537.1545240249022" viewBox="0 0 3174.3913873364954 537.1545240249022">
			
			<g transform="scale(8.719569366824782) translate(10, 10)">
				<defs id="SvgjsDefs3566"/><g id="SvgjsG3567" featureKey="symbolFeature-0" transform="matrix(0.6934338212013245,0,0,0.6934338212013245,8.266375432300744e-8,-12.4845057771533)" fill="#000"><path xmlns="http://www.w3.org/2000/svg" d="M28.416,76.572c-1.024,0-2.048-0.393-2.832-1.172L1.172,50.844C0.42,50.092,0,49.068,0,48c0-1.068,0.42-2.088,1.176-2.848  l24.412-24.548c1.56-1.568,4.092-1.576,5.656,0.004c1.56,1.58,1.56,4.12-0.004,5.696L9.664,48l21.58,21.704  c1.56,1.571,1.56,4.116,0,5.688C30.464,76.18,29.432,76.572,28.416,76.572L28.416,76.572z"/><path xmlns="http://www.w3.org/2000/svg" d="M67.588,76.572c-1.023,0-2.052-0.393-2.828-1.18c-1.568-1.572-1.568-4.117,0-5.697L86.344,48L64.76,26.304  c-1.568-1.58-1.568-4.12,0-5.696c1.568-1.58,4.088-1.576,5.656-0.008l24.412,24.552C95.58,45.9,96,46.928,96,48  c0,1.068-0.42,2.088-1.172,2.844L70.416,75.393C69.641,76.18,68.611,76.572,67.588,76.572L67.588,76.572z"/><path xmlns="http://www.w3.org/2000/svg" d="M38.348,78c-0.476,0-0.964-0.084-1.436-0.264c-2.06-0.805-3.092-3.133-2.296-5.213l19.868-51.947  c0.795-2.076,3.107-3.096,5.168-2.304c2.06,0.796,3.088,3.124,2.296,5.204L42.072,75.424C41.476,77.016,39.952,78,38.348,78z"/></g><g id="SvgjsG3568" featureKey="nameLeftFeature-0" transform="matrix(1.7611019611358643,0,0,1.7611019611358643,86.43644666437456,-1.2633956466278047)" fill="#000"><path d="M9.42 8.1 l-3.32 11.9 l-2.04 0 l-3.74 -14.36 l2.1 0 l2.68 11.68 l0.04 0 l3.22 -11.68 l2.12 0 l3.22 11.68 l0.04 0 l2.68 -11.68 l2.14 0 l-3.78 14.36 l-2.04 0 l-3.28 -11.9 l-0.04 0 z M28.419999999999998 15.82 l-5.76 0 l-1.5 4.18 l-2 0 l5.4 -14.36 l2.2 0 l5.2 14.36 l-2.12 0 z M23.259999999999998 14.1 l4.46 0 l-2.12 -6.32 l-0.04 0 z M32.5 7.359999999999999 l0 -1.72 l11.66 0 l0 1.72 l-4.86 0 l0 12.64 l-1.94 0 l0 -12.64 l-4.86 0 z M56.199999999999996 18.28 l0 1.72 l-11.3 0 l0 -1.62 l8.8 -11.02 l-8.14 0 l0 -1.72 l10.64 0 l0 1.68 l-8.84 10.96 l8.84 0 z M69.44 12.82 c0 -3.38 -1.88 -5.84 -5 -5.84 s-5 2.46 -5 5.84 s1.88 5.84 5 5.84 s5 -2.46 5 -5.84 z M71.44 12.82 c0 3.1 -1.64 7.56 -7 7.56 s-7 -4.46 -7 -7.56 s1.64 -7.56 7 -7.56 s7 4.46 7 7.56 z M83.25999999999999 17.240000000000002 l0 -11.6 l1.88 0 l0 14.36 l-2.18 0 l-7.3 -11.6 l-0.04 0 l0 11.6 l-1.88 0 l0 -14.36 l2.3 0 l7.18 11.6 l0.04 0 z"/></g><g id="SvgjsG3569" featureKey="nameRightFeature-0" transform="matrix(1.9300446510314941,0,0,1.9300446510314941,243.52836032985113,-4.201760521171311)" fill="#000"><path d="M1.6269 20.067797 c-0.45763 0 -0.86441 -0.37288 -0.86441 -0.84746 c0 -0.45763 0.40678 -0.86441 0.86441 -0.86441 s0.84746 0.40678 0.84746 0.86441 c0 0.47458 -0.38983 0.84746 -0.84746 0.84746 z M14.32228813559322 6.441000000000001 c0.15254 0 0.22051 0.067797 0.22051 0.22034 l0 0.84746 c0 0.13559 -0.067797 0.22034 -0.22034 0.22034 l-4.3729 0 l0 12.034 c0 0.15254 -0.067797 0.23712 -0.20339 0.23712 l-0.67797 0 c-0.30508 0 -0.45763 -0.18644 -0.45763 -0.47441 l0 -11.797 l-4.3729 0 c-0.15254 0 -0.23729 -0.084746 -0.23729 -0.22034 l0 -0.83051 c0 -0.16949 0.084746 -0.23729 0.23729 -0.23729 l10.085 0 z M25.27098474576271 7.728999999999999 l-7.3556 0.00049656 l0 4.9659 l4.5424 0 c0.15254 0 0.23729 0.067797 0.23729 0.23729 l0 0.81339 c0 0.15254 -0.084746 0.22034 -0.23729 0.22034 l-4.5424 0 l0 4.7458 l7.3559 0 c0.15254 0 0.23712 0.084746 0.23712 0.23712 l0 0.81356 c0 0.16949 -0.067797 0.23712 -0.23729 0.23712 l-8.4746 0 c-0.15254 0 -0.22034 -0.08458 -0.22034 -0.22017 l0 -13.119 c0 -0.15254 0.084746 -0.22034 0.22034 -0.22034 l8.4746 0 c0.15254 0 0.23712 0.084746 0.23712 0.22034 l0 0.84746 c0 0.13559 -0.067797 0.22034 -0.23729 0.22034 z M38.72879661016949 17.729 c0.11864 0.08458 0.084746 0.22017 -0.067797 0.37271 c-1.2544 1.2542 -2.8814 2.0168 -4.8983 2.0168 c-3.8136 0 -6.9322 -3.0168 -6.9322 -6.8812 c0 -3.8475 3.1186 -6.9153 6.9322 -6.9153 c1.9322 0 3.661 0.74576 4.9322 2.0169 c0.15254 0.15254 0.16949 0.27119 0.067797 0.35593 l-0.71186 0.59322 c-0.11864 0.10169 -0.22034 0.10169 -0.33898 -0.016949 c-0.71186 -0.74559 -2.1186 -1.6608 -3.8475 -1.6608 c-3.678 0 -5.7119 2.9831 -5.7119 5.6271 c0 2.678 2.0339 5.5932 5.7119 5.5932 c1.7288 0 3.0508 -0.88136 3.7966 -1.6271 c0.13559 -0.13559 0.23729 -0.16949 0.35593 -0.067797 z M51.84716949152542 6.441000000000001 c0.15254 0 0.23729 0.067963 0.23729 0.22051 l0 13.119 c0 0.13559 -0.067797 0.22017 -0.20339 0.22017 l-0.6778 0 c-0.30508 0 -0.44068 -0.18644 -0.44068 -0.45763 l0 -5.5593 l-8.5593 0 l0 5.7797 c0 0.15254 -0.067797 0.23712 -0.22034 0.23712 l-0.86441 0 c-0.16966 0 -0.23746 -0.08458 -0.23746 -0.23712 l0 -13.102 c0 -0.15254 0.067797 -0.22034 0.22034 -0.22034 l0.88136 0 c0.13559 0 0.22034 0.067797 0.22034 0.22034 l0 6 l8.5593 0 l0 -6 c0 -0.15254 0.067797 -0.22034 0.20339 -0.22034 l0.88136 0 z"/></g>
			</g>
		</svg>
	