<?xml version="1.0" standalone="no"?>
<!DOCTYPE svg PUBLIC "-//W3C//DTD SVG 20010904//EN"
 "http://www.w3.org/TR/2001/REC-SVG-20010904/DTD/svg10.dtd">
<svg version="1.0" xmlns="http://www.w3.org/2000/svg"
 width="475.000000pt" height="475.000000pt" viewBox="0 0 475.000000 475.000000"
 preserveAspectRatio="xMidYMid meet">
<metadata>
Created by potrace 1.11, written by Peter Selinger 2001-2013
</metadata>
<g transform="translate(0.000000,475.000000) scale(0.100000,-0.100000)"
fill="#000000" stroke="none">
<path d="M4324 4613 c-145 -90 -335 -224 -489 -344 -101 -79 -180 -123 -252
-140 -26 -7 -115 -13 -198 -14 -82 -1 -193 -6 -245 -11 -129 -11 -161 -9 -217
18 -53 25 -123 29 -248 14 -223 -27 -281 1 -309 149 -13 64 -15 77 -21 135
-14 137 -30 147 -95 60 -60 -80 -189 -196 -313 -279 -39 -27 -55 -32 -80 -27
-69 14 -142 21 -189 17 -10 0 -46 -30 -81 -65 -67 -67 -63 -65 -437 -244 -76
-37 -119 -65 -157 -102 -77 -78 -132 -194 -148 -315 -3 -22 -8 -60 -11 -85 -3
-25 -7 -47 -9 -49 -2 -2 -16 6 -32 16 -65 45 -218 98 -249 86 -31 -12 -13 -50
63 -133 64 -71 76 -86 104 -129 16 -25 29 -53 29 -63 0 -32 5 -33 -475 97 -93
25 -177 48 -185 51 -8 2 0 -8 19 -23 79 -63 199 -199 304 -345 l54 -76 -13
-54 c-36 -144 -40 -377 -11 -538 40 -212 160 -474 294 -637 37 -45 37 -45 46
-230 1 -17 5 -35 9 -38 9 -10 200 -11 215 -2 8 5 9 17 3 37 -8 29 -6 297 4
335 2 11 5 28 5 38 2 32 21 18 61 -45 49 -75 44 -70 75 -73 23 -3 44 17 51 48
1 4 3 10 4 15 1 4 2 11 1 15 -1 4 6 10 14 13 8 3 13 10 10 15 -3 4 4 13 15 19
11 6 20 16 20 22 0 6 -6 5 -17 -3 -15 -13 -15 -12 -2 9 8 12 20 20 26 17 18
-6 44 5 37 17 -4 6 -10 5 -15 -3 -4 -7 -11 -10 -16 -6 -10 10 18 28 31 20 5
-4 7 1 3 10 -3 10 -2 17 2 17 5 0 17 3 27 7 13 5 16 3 11 -9 -4 -11 0 -15 11
-14 9 2 18 9 20 16 3 8 0 10 -9 5 -8 -5 -11 -4 -6 1 5 5 21 9 37 10 22 1 27
-3 23 -15 -4 -9 -3 -13 2 -9 4 4 15 2 23 -5 13 -10 14 -9 4 9 -10 19 -9 21 13
18 14 -1 27 1 30 5 2 4 14 7 27 6 15 -1 23 -8 23 -21 0 -21 27 -27 31 -6 1 7
0 8 -3 2 -2 -5 -9 -10 -15 -10 -7 0 -7 5 1 13 6 8 8 18 4 23 -4 5 -2 4 6 -3 8
-7 23 -8 42 -3 18 5 31 5 35 -2 4 -6 10 -5 15 3 5 8 9 9 9 3 0 -6 22 -10 54
-9 30 0 53 -2 50 -6 -2 -4 0 -10 6 -14 5 -3 10 2 11 12 0 14 2 14 9 -5 5 -12
12 -22 14 -22 3 0 2 8 -1 17 -5 13 -3 15 13 8 10 -4 27 -7 36 -7 10 0 20 -3
23 -8 3 -4 15 -6 27 -2 12 3 19 1 15 -4 -3 -6 -2 -16 4 -24 7 -13 9 -12 9 3 0
21 13 22 30 2 7 -8 17 -12 23 -8 6 4 7 1 2 -7 -6 -10 -4 -12 9 -7 22 9 56 -21
48 -42 -5 -14 -4 -14 13 -1 11 9 16 10 11 3 -4 -7 -2 -13 3 -13 6 0 11 -5 11
-11 0 -8 -5 -8 -15 1 -9 8 -15 9 -15 2 0 -17 21 -25 32 -14 8 8 16 2 28 -21
23 -43 40 -43 72 0 l28 36 120 2 120 1 25 -38 c14 -21 31 -38 38 -38 7 0 21
16 31 34 20 38 70 89 64 67 -2 -7 2 -15 8 -18 7 -2 11 6 10 19 0 13 4 23 11
23 7 0 18 6 24 12 10 10 16 7 26 -15 l12 -27 -4 27 c-3 26 13 50 31 47 5 -1
11 0 14 1 29 11 90 18 85 10 -3 -5 2 -10 10 -14 8 -3 17 -1 20 4 4 6 1 10 -4
10 -6 0 -11 4 -11 8 0 5 16 9 35 9 19 0 32 -4 29 -9 -3 -4 0 -8 5 -8 6 0 11 7
11 15 0 8 4 15 8 15 4 0 8 -9 8 -19 0 -11 -5 -17 -10 -14 -5 3 -6 1 -3 -4 4
-6 -1 -10 -10 -9 -9 0 -18 -6 -20 -14 -4 -13 -3 -13 6 0 5 8 13 11 18 7 4 -5
1 -12 -6 -16 -9 -6 -10 -11 -2 -15 6 -4 11 -2 11 4 0 6 4 8 10 5 5 -3 7 0 4 9
-3 8 3 19 15 26 12 6 21 16 20 23 0 9 -2 9 -6 0 -2 -7 -9 -13 -15 -13 -7 0 -7
4 0 13 7 8 32 12 64 11 29 0 61 3 71 8 9 5 17 5 16 1 -3 -20 2 -34 11 -28 6 4
8 10 6 13 -2 4 16 7 40 8 24 0 44 -4 44 -9 0 -6 5 -6 13 0 16 12 76 11 85 -2
4 -5 16 -17 26 -25 18 -14 18 -13 12 10 -5 16 -4 20 2 12 5 -7 17 -14 26 -16
20 -3 88 -75 81 -87 -3 -4 -1 -10 5 -14 5 -3 10 -12 10 -18 0 -7 -5 -4 -11 6
-5 9 -14 17 -20 17 -5 0 -3 -10 6 -23 8 -13 12 -27 8 -30 -3 -4 -1 -7 5 -7 5
0 12 3 15 8 2 4 2 1 1 -5 -2 -7 2 -13 9 -13 9 0 8 -3 -1 -9 -10 -6 -7 -12 12
-25 38 -24 73 -12 97 35 24 49 34 49 35 1 3 -96 15 -309 19 -327 2 -11 4 -23
4 -27 2 -14 181 -9 186 5 2 6 6 74 8 150 2 75 6 139 8 140 100 69 193 210 250
382 19 60 32 79 89 135 36 36 99 87 139 114 82 56 112 89 163 181 59 106 169
414 228 640 28 106 28 117 25 305 -3 175 -6 208 -33 325 -36 155 -71 268 -145
471 -81 222 -100 307 -101 442 0 61 -1 112 -2 112 -1 0 -64 -39 -140 -87z
m-786 -2202 c25 -14 46 -93 57 -221 2 -19 6 -64 9 -100 3 -36 8 -98 11 -137 6
-82 7 -81 -73 -63 -43 10 -71 15 -177 27 -81 9 -294 9 -380 -1 -38 -4 -77 -7
-85 -8 -72 -1 -356 -82 -407 -115 -31 -21 -275 -19 -307 2 -53 35 -211 80
-381 110 -199 34 -496 26 -698 -19 -31 -8 -59 -11 -61 -7 -5 8 52 194 86 281
25 65 96 221 104 229 2 2 21 -7 42 -21 230 -152 591 -204 1072 -152 48 5 339
50 380 59 14 3 38 8 54 11 16 2 145 30 285 60 273 59 406 83 433 78 9 -1 25
-7 36 -13z m73 -582 c21 -7 40 -18 43 -25 7 -18 -59 -30 -90 -15 -33 15 -31
43 5 50 2 1 21 -4 42 -10z m-2481 -29 c0 -10 -7 -21 -16 -24 -28 -11 -81 -6
-93 8 -9 11 -4 17 25 28 45 18 84 12 84 -12z"/>
<path d="M1494 1840 c-3 -3 -11 -5 -17 -5 -7 0 -11 -8 -9 -18 3 -18 -13 -23
-23 -7 -4 6 -10 8 -15 5 -5 -3 -13 3 -19 12 -9 17 -11 17 -24 -1 -8 -11 -24
-21 -37 -23 -18 -3 -21 0 -16 14 5 13 4 15 -4 7 -10 -10 -16 -28 -19 -56 -1
-3 -12 -5 -25 -4 -16 2 -23 -1 -19 -9 2 -7 -4 -19 -14 -26 -10 -8 -19 -21 -21
-29 -1 -10 2 -9 13 4 11 14 15 16 15 5 0 -12 2 -12 10 1 5 8 12 11 17 7 9 -9
-17 -28 -29 -21 -4 3 -8 0 -8 -7 0 -6 -8 -9 -20 -6 -10 3 -19 2 -18 -2 0 -3
-1 -9 -2 -13 -1 -5 -4 -12 -5 -18 -1 -5 -3 -11 -4 -12 -2 -2 -4 -12 -6 -24 -4
-17 1 -21 26 -21 23 0 27 3 15 9 -9 5 -21 6 -28 2 -7 -5 -8 -3 -4 5 5 7 15 10
25 7 12 -5 11 -2 -3 9 -11 8 -14 15 -7 15 7 0 10 4 6 9 -6 10 29 34 37 26 3
-3 13 4 24 16 17 19 17 22 3 33 -15 10 -15 13 -1 26 14 13 15 12 9 -3 -3 -9
-2 -19 3 -22 9 -6 14 8 11 28 0 4 4 7 9 7 6 0 9 6 8 13 -2 8 11 12 41 10 30
-1 40 2 30 8 -8 5 -9 9 -3 9 5 0 16 -6 23 -12 8 -7 11 -8 8 -2 -3 6 0 11 8 11
8 0 14 -3 13 -6 -2 -20 3 -31 12 -26 6 4 8 10 6 13 -2 4 4 19 15 32 16 20 18
21 13 5 -6 -16 -5 -18 7 -7 7 6 18 12 24 12 5 0 3 -5 -5 -10 -10 -6 -11 -10
-2 -10 6 0 11 -3 11 -7 -3 -20 2 -34 11 -28 5 3 7 13 4 23 -5 14 -4 15 5 2 10
-13 12 -13 21 0 5 8 10 10 10 4 0 -6 7 -11 15 -11 9 0 14 5 12 11 -3 6 -10 10
-16 8 -7 -1 -10 2 -6 8 3 6 10 8 15 5 5 -3 12 -1 15 5 5 8 15 6 32 -6 25 -16
26 -16 20 2 -7 18 -6 18 8 0 8 -11 15 -14 15 -7 0 7 5 9 11 5 8 -5 8 -9 -1
-14 -9 -5 -9 -9 -1 -14 10 -6 15 6 12 27 0 4 4 7 10 7 6 0 8 -9 4 -22 -3 -13
-3 -18 2 -12 4 6 16 10 25 9 11 -2 15 2 11 13 -4 14 -3 15 5 2 6 -8 9 -17 6
-21 -2 -4 5 -7 16 -6 11 1 19 7 18 15 -2 7 -6 12 -9 10 -4 -2 -16 5 -26 14
-15 14 -22 15 -31 6 -7 -7 -12 -8 -12 -2 0 6 -18 10 -40 9 -23 -1 -43 2 -46 7
-3 4 -14 3 -25 -2 -10 -6 -19 -8 -19 -4 0 3 -8 -4 -19 -17 -16 -20 -21 -22
-35 -10 -9 8 -15 19 -13 25 5 12 -29 17 -39 6z m259 -25 c-3 -9 -8 -14 -10
-11 -3 3 -2 9 2 15 9 16 15 13 8 -4z m-337 -7 c4 -7 3 -8 -5 -4 -6 4 -20 2
-29 -6 -15 -12 -16 -11 -3 5 16 20 27 22 37 5z"/>
<path d="M2980 1815 c-7 -13 -17 -22 -22 -19 -4 3 -8 0 -8 -5 0 -6 4 -11 8
-11 12 0 49 29 37 30 -5 0 -4 4 4 9 7 5 9 11 4 14 -6 4 -16 -5 -23 -18z"/>
<path d="M3012 1815 c-7 -15 -8 -27 -2 -30 6 -4 10 -3 11 2 0 4 2 18 5 31 5
29 0 28 -14 -3z"/>
<path d="M3039 1832 c-1 -8 -5 -29 -10 -52 -2 -8 -8 -18 -13 -21 -4 -4 -3 -10
3 -13 6 -4 11 -1 11 6 0 11 2 10 9 0 7 -11 9 -10 14 3 5 11 3 14 -6 10 -6 -4
-4 0 6 8 10 9 14 18 8 21 -5 3 -11 0 -14 -6 -3 -7 -4 -3 -4 9 1 17 4 19 14 11
10 -8 13 -7 13 3 1 9 4 8 11 -4 7 -12 17 -16 30 -12 11 4 19 2 19 -4 0 -6 -3
-10 -7 -10 -20 3 -34 -2 -28 -11 4 -7 13 -6 26 1 14 7 18 16 13 31 -5 16 -3
20 9 15 11 -4 14 -2 10 9 -5 13 -8 13 -23 -1 -17 -15 -19 -15 -29 2 -6 11 -11
13 -11 5 0 -8 -5 -10 -12 -5 -17 10 -38 13 -39 5z m66 -22 c3 -5 1 -10 -4 -10
-6 0 -11 5 -11 10 0 6 2 10 4 10 3 0 8 -4 11 -10z"/>
<path d="M3169 1835 c-1 -3 -2 -11 -3 -17 -1 -7 -8 -12 -15 -10 -7 1 -10 -2
-6 -8 7 -12 -19 -53 -28 -43 -4 3 -7 0 -7 -7 0 -9 -5 -7 -14 5 -8 11 -12 23
-10 27 2 4 -1 10 -8 14 -7 4 -10 4 -6 -1 10 -11 -19 -64 -34 -61 -22 3 -39 17
-33 27 15 23 -8 28 -44 9 -38 -19 -39 -19 -56 0 -14 15 -15 23 -6 33 6 8 8 17
4 20 -10 11 -35 8 -28 -2 3 -5 1 -12 -5 -16 -5 -3 -10 -12 -10 -18 0 -7 4 -6
11 3 9 13 10 12 5 -2 -3 -11 0 -18 7 -18 8 0 6 -4 -3 -10 -13 -9 -13 -10 0
-10 13 0 13 -1 0 -10 -8 -5 -11 -12 -7 -17 5 -4 11 -3 15 2 11 15 33 17 49 3
12 -10 14 -9 11 7 -1 10 3 20 11 23 10 3 11 -2 6 -19 -4 -17 -3 -20 3 -10 7 9
12 10 16 2 4 -6 2 -11 -3 -11 -6 0 -11 -5 -11 -11 0 -8 5 -8 15 1 8 7 12 16 9
21 -3 5 0 9 6 9 6 0 10 -7 8 -16 -2 -10 3 -19 11 -22 8 -3 11 0 7 6 -3 6 -1
14 5 18 7 4 9 3 5 -4 -3 -6 1 -9 11 -8 10 2 21 -2 25 -8 4 -6 6 4 3 22 -2 18
1 32 7 32 5 0 7 -7 4 -16 -3 -8 -2 -13 3 -10 5 4 7 -3 4 -14 -3 -12 0 -20 7
-20 7 0 10 7 6 15 -5 15 26 39 38 28 3 -3 6 -1 6 6 0 7 5 9 11 5 8 -4 7 -9 -2
-16 -11 -8 -11 -9 1 -5 21 5 19 32 -2 31 -14 -1 -12 4 10 27 32 34 41 36 39 9
-1 -11 -5 -20 -10 -20 -5 0 -6 8 -2 18 5 14 4 15 -6 5 -9 -9 -10 -16 -3 -23
15 -15 43 -1 39 19 -2 10 3 18 10 18 8 0 12 -3 10 -7 -2 -3 5 -7 17 -7 14 -1
18 3 14 15 -6 15 -5 15 7 0 8 -10 18 -14 22 -10 5 4 5 1 1 -5 -5 -9 -2 -11 8
-7 9 3 16 2 16 -4 0 -11 -18 -11 -37 1 -18 11 -16 -8 2 -23 8 -7 15 -8 15 -3
0 6 12 10 28 9 16 0 26 5 25 11 -2 7 4 10 13 6 13 -5 13 -7 2 -14 -7 -5 -11
-9 -8 -10 3 0 13 -2 23 -4 20 -4 21 4 4 25 -13 17 -26 19 -43 8 -6 -4 -22 2
-36 15 -23 21 -71 29 -93 15 -6 -4 -17 -3 -25 3 -17 10 -29 12 -31 4z m-176
-82 c-3 -7 -6 -13 -8 -13 -2 0 -5 6 -8 13 -3 8 1 14 8 14 7 0 11 -6 8 -14z
m-83 -3 c0 -5 -2 -10 -4 -10 -3 0 -8 5 -11 10 -3 6 -1 10 4 10 6 0 11 -4 11
-10z"/>
<path d="M1824 1822 c9 -14 -14 -62 -29 -62 -7 0 -18 7 -25 15 -9 10 -17 12
-30 5 -9 -5 -20 -6 -24 -3 -3 3 -6 2 -6 -4 0 -6 7 -14 16 -17 22 -8 26 -8 19
3 -3 5 -1 13 5 16 6 4 9 1 8 -7 -2 -7 3 -12 11 -10 11 2 12 0 3 -11 -12 -14
-7 -27 10 -27 5 0 7 4 3 9 -8 13 25 31 56 31 5 0 7 5 4 10 -4 6 -11 8 -16 5
-5 -3 -6 1 -2 10 5 14 8 14 15 3 8 -10 9 -9 5 3 -3 9 1 16 8 16 10 0 11 -5 4
-19 -5 -10 -7 -18 -4 -18 3 0 1 -9 -5 -20 -6 -11 -8 -20 -6 -20 10 0 35 57 29
64 -4 3 -1 6 6 6 13 0 11 -31 -3 -41 -4 -4 -3 -10 3 -13 6 -4 11 -1 11 6 0 9
3 9 10 -2 7 -11 10 -11 10 -2 0 7 5 10 12 6 7 -5 8 -3 3 5 -6 10 -3 11 15 1
13 -7 20 -8 16 -2 -3 6 -2 13 3 16 5 4 13 1 17 -5 4 -8 3 -9 -4 -5 -8 5 -10 2
-6 -8 3 -9 9 -15 12 -14 20 2 32 -3 27 -12 -3 -5 5 -21 19 -35 28 -28 35 -45
11 -25 -9 8 -15 9 -15 2 0 -19 23 -25 35 -9 10 14 12 14 23 -1 7 -9 11 -12 8
-6 -3 6 1 11 9 11 11 0 12 -4 4 -14 -9 -10 -8 -13 2 -13 10 0 10 -3 1 -12 -8
-8 -15 -8 -27 2 -9 8 -15 8 -15 2 0 -12 19 -27 35 -27 6 0 11 -10 11 -22 1
-12 -2 -21 -5 -18 -4 2 -7 -7 -7 -21 0 -13 4 -24 8 -24 4 0 8 -7 8 -15 0 -8
-5 -15 -11 -15 -5 0 -8 4 -4 9 3 5 1 12 -4 16 -6 3 -8 -3 -6 -15 3 -18 -5 -24
-27 -22 -3 1 -9 -5 -12 -13 -5 -13 -1 -13 27 0 23 12 27 12 15 2 -10 -8 -15
-17 -11 -20 3 -4 1 -7 -5 -7 -7 0 -12 -5 -12 -11 0 -5 5 -7 12 -3 7 4 8 3 4
-5 -10 -15 -29 -3 -22 15 3 8 0 11 -10 7 -8 -3 -13 -8 -10 -11 3 -2 0 -14 -6
-26 -8 -17 -8 -19 2 -9 7 6 19 9 27 6 11 -4 10 -8 -4 -20 -10 -8 -11 -11 -3
-7 13 7 13 5 1 -9 -7 -9 -10 -17 -5 -17 4 0 -1 -7 -12 -16 -10 -8 -13 -12 -6
-9 11 6 12 3 3 -14 -14 -25 -19 -27 -17 -5 0 9 -6 19 -14 22 -13 5 -13 3 -1
-11 9 -11 10 -17 2 -17 -6 0 -11 5 -11 12 0 6 -3 8 -7 4 -5 -4 1 -14 11 -22
12 -8 14 -14 7 -14 -8 0 -11 -6 -7 -16 3 -9 2 -12 -4 -9 -6 4 -9 3 -8 -2 4
-15 -13 -53 -22 -48 -5 3 -14 -4 -20 -15 -6 -11 -15 -18 -20 -15 -5 3 -11 1
-15 -4 -3 -6 -12 -8 -19 -5 -8 3 -17 1 -21 -5 -3 -7 0 -8 9 -5 9 3 16 1 16 -4
0 -6 -9 -9 -20 -7 -11 2 -23 -1 -26 -7 -4 -7 -14 -2 -25 13 -14 18 -21 21 -30
12 -14 -14 -2 -36 18 -29 9 4 11 2 7 -6 -5 -7 -3 -8 6 -3 8 5 11 4 7 -2 -4 -6
-18 -9 -32 -8 -14 2 -28 -1 -31 -6 -3 -6 -12 -5 -22 3 -13 11 -15 11 -10 -3 4
-9 1 -16 -7 -16 -15 0 -16 18 -1 28 4 4 3 9 -2 13 -6 3 -14 -3 -17 -15 -5 -15
-9 -18 -15 -9 -5 9 -9 9 -14 1 -4 -6 -2 -11 4 -11 6 0 9 -3 6 -8 -4 -6 51 -9
64 -2 4 2 33 6 77 12 7 1 10 5 7 10 -3 5 6 7 20 4 20 -4 24 -1 19 12 -5 14 -3
15 7 5 10 -10 19 -8 42 8 15 11 26 24 23 29 -3 4 2 11 10 14 15 5 60 73 60 89
0 4 5 11 11 15 10 6 43 83 46 107 1 6 7 16 14 23 7 7 10 20 7 29 -5 12 -3 14
8 8 8 -4 11 -5 7 -1 -3 4 0 23 8 41 9 22 10 36 4 40 -6 3 -10 11 -10 16 0 6 5
7 12 3 7 -5 8 -3 2 7 -4 8 -9 34 -9 59 0 51 -10 71 -30 64 -17 -7 -50 40 -39
57 4 7 3 9 -3 6 -6 -4 -14 1 -17 10 -5 12 -10 13 -18 5 -8 -8 -16 -4 -31 14
-17 22 -21 23 -31 10 -11 -16 -39 -8 -37 10 1 5 -2 9 -6 9 -5 0 -14 4 -21 9
-7 4 -16 5 -19 2 -3 -3 -15 -1 -26 5 -12 7 -17 7 -13 1z m86 -52 c0 -5 -2 -10
-4 -10 -3 0 -8 5 -11 10 -3 6 -1 10 4 10 6 0 11 -4 11 -10z m128 -52 c19 -35
20 -37 2 -26 -10 7 -16 16 -14 20 3 4 1 8 -3 8 -5 0 -9 10 -10 21 -2 25 -3 25
25 -23z m-98 -552 c0 -2 -11 -11 -25 -20 -20 -13 -23 -13 -19 -2 3 8 13 17 22
19 10 3 18 5 20 6 1 0 2 -1 2 -3z m-130 -16 c0 -5 -2 -10 -4 -10 -3 0 -8 5
-11 10 -3 6 -1 10 4 10 6 0 11 -4 11 -10z"/>
<path d="M1619 1813 c-1 -4 -2 -15 -3 -22 0 -9 -13 -16 -28 -16 -15 -1 -34 -7
-42 -14 -12 -10 -18 -7 -31 16 -9 15 -14 20 -11 10 3 -10 2 -16 -3 -13 -4 3
-16 -1 -27 -8 -17 -13 -48 -11 -40 3 2 3 -20 6 -50 7 -29 0 -52 -2 -49 -4 12
-12 -66 -124 -81 -114 -23 14 -26 -9 -6 -45 12 -22 2 -40 -17 -29 -18 11 -38
-5 -38 -30 0 -20 3 -23 19 -18 17 5 19 3 14 -18 -6 -20 -5 -20 4 -5 13 20 4
41 -15 33 -14 -5 -14 18 0 31 4 4 5 2 1 -5 -9 -16 24 -13 37 3 5 6 7 4 4 -6
-3 -9 1 -16 8 -16 7 0 11 6 8 14 -3 7 0 13 6 13 6 0 11 5 11 11 0 8 -6 7 -17
-2 -14 -10 -13 -8 2 10 17 21 18 23 3 18 -10 -3 -20 -1 -24 5 -5 7 -2 8 7 3
11 -6 12 -5 2 6 -7 7 -13 18 -13 24 0 5 7 1 15 -9 8 -11 15 -16 15 -10 0 5 5
2 10 -6 7 -10 10 -11 10 -2 0 7 -7 15 -15 18 -11 5 -11 9 -2 19 9 10 14 9 24
-4 10 -13 14 -14 25 -3 11 11 10 16 -5 26 -15 12 -15 15 -3 19 9 4 18 2 21 -3
4 -6 11 -10 17 -10 7 0 7 4 -1 13 -6 8 -7 17 -3 22 4 4 -3 2 -15 -4 -19 -10
-22 -9 -17 3 3 9 9 15 12 14 22 -2 31 4 25 20 -5 14 -3 13 10 -3 9 -11 17 -15
17 -8 0 14 37 11 68 -6 29 -15 84 -26 63 -12 -9 6 -10 11 -2 15 6 4 11 3 11
-2 0 -5 10 -9 23 -8 13 1 22 7 21 17 -1 11 5 15 17 12 11 -3 19 -10 19 -15 0
-5 -4 -7 -9 -3 -5 3 -13 0 -17 -6 -4 -7 -3 -9 4 -5 7 4 10 -1 7 -14 -2 -11 1
-20 7 -20 5 0 7 7 4 16 -3 8 -2 13 2 10 5 -3 9 1 10 9 1 8 3 21 4 29 1 7 8 13
16 12 24 -2 25 22 3 34 -12 6 -22 7 -22 3z m31 -18 c0 -12 -19 -12 -23 0 -4 9
-1 12 9 8 7 -3 14 -7 14 -8z m-135 -45 c-6 -10 -45 -9 -45 1 0 10 23 17 37 11
7 -2 11 -8 8 -12z m55 6 c0 -3 -4 -8 -10 -11 -5 -3 -10 -1 -10 4 0 6 5 11 10
11 6 0 10 -2 10 -4z m-240 -86 c0 -5 -5 -10 -11 -10 -5 0 -7 5 -4 10 3 6 8 10
11 10 2 0 4 -4 4 -10z"/>
<path d="M2796 1811 c-4 -7 -14 -10 -21 -7 -7 2 -16 2 -20 -2 -3 -4 -14 -7
-23 -7 -12 0 -17 -9 -17 -29 0 -26 -4 -30 -32 -31 -18 -1 -30 2 -27 7 3 5 9 6
14 3 5 -3 11 -1 14 4 4 5 2 12 -3 15 -5 4 -12 2 -16 -4 -4 -6 -10 -8 -15 -5
-5 3 -7 -3 -5 -15 5 -24 -11 -36 -29 -21 -13 11 -26 5 -26 -12 0 -5 7 -7 14
-4 10 4 13 1 10 -8 -3 -8 -11 -13 -17 -12 -6 1 -11 -20 -12 -53 0 -31 -5 -62
-10 -69 -5 -10 -4 -12 3 -7 7 4 12 3 12 -3 0 -5 -5 -13 -10 -16 -6 -4 -8 -10
-6 -14 7 -11 18 -63 18 -83 -1 -9 6 -22 14 -28 7 -7 11 -16 8 -21 -3 -5 0 -9
6 -9 7 0 10 -6 7 -14 -3 -7 1 -23 10 -35 8 -12 16 -30 18 -39 1 -10 9 -16 21
-14 15 3 16 1 5 -12 -10 -12 -10 -16 -2 -16 7 0 9 -5 6 -10 -3 -6 1 -13 9 -16
9 -3 14 -10 11 -14 -2 -4 4 -15 15 -25 11 -10 17 -21 14 -26 -2 -4 8 -16 23
-26 15 -10 31 -22 35 -28 4 -5 8 -7 8 -3 0 4 16 -1 35 -12 29 -16 35 -17 35
-5 0 8 -6 14 -12 13 -7 -2 -12 3 -10 10 2 11 -15 16 -48 13 -11 -1 -11 1 3 9
9 6 21 9 26 6 5 -3 15 2 22 11 12 14 12 16 -1 8 -21 -13 -60 -15 -60 -4 0 6
-5 7 -10 4 -6 -4 -8 -11 -5 -16 4 -5 -2 -6 -11 -2 -11 4 -13 8 -6 11 7 2 9 9
5 15 -11 17 -10 31 2 40 6 5 3 6 -8 3 -13 -4 -16 -2 -11 7 5 8 2 7 -9 -2 -10
-8 -20 -11 -24 -7 -3 3 -1 6 7 6 10 0 10 3 0 15 -7 8 -16 12 -21 10 -4 -3 -6
5 -4 17 3 16 -3 29 -18 41 -15 12 -17 15 -4 11 10 -4 17 -1 17 6 0 6 -4 9 -8
6 -5 -3 -9 1 -9 9 0 8 3 15 7 15 3 0 6 8 7 18 1 11 -6 18 -19 19 -14 1 -17 -2
-10 -10 11 -14 12 -47 1 -47 -4 0 -11 5 -14 10 -3 6 -1 10 4 10 6 0 11 4 11
10 0 5 -8 7 -17 4 -11 -4 -14 -2 -8 3 14 11 18 36 5 28 -5 -3 -10 -1 -10 5 0
7 7 9 16 6 9 -3 12 -2 9 5 -4 6 -14 8 -22 5 -9 -4 -11 -2 -7 6 4 7 3 8 -4 4
-8 -4 -10 -2 -6 7 3 8 1 18 -5 21 -6 4 -7 14 -4 23 5 12 3 14 -8 8 -11 -6 -12
-5 -1 6 6 7 12 20 12 29 0 13 -1 13 -10 0 -8 -12 -9 -10 -7 7 2 12 11 31 22
43 18 20 8 29 -11 10 -6 -6 -10 -2 -11 12 -2 18 0 20 7 8 8 -13 10 -13 10 2 0
9 -6 19 -12 21 -10 4 -9 6 1 6 11 1 11 4 0 18 -10 11 -10 14 -1 9 6 -4 13 -2
13 3 3 21 4 26 12 39 5 7 13 9 19 6 7 -5 8 -2 3 6 -6 9 -4 11 5 5 9 -5 11 -4
6 3 -4 7 -2 12 3 12 14 0 14 -17 1 -25 -5 -3 -7 -12 -4 -20 4 -8 10 -12 15 -9
5 3 7 9 4 14 -11 18 14 49 35 45 14 -3 18 0 13 8 -4 7 0 6 10 -2 16 -13 25 -2
10 13 -4 3 -8 17 -10 29 -3 20 -2 21 11 5 15 -21 27 -23 24 -5 -2 6 5 11 14
11 10 -1 15 2 12 7 -3 5 0 9 6 9 7 0 10 -6 7 -12 -2 -7 -12 -12 -22 -10 -9 2
-14 -1 -11 -7 4 -5 -2 -14 -11 -20 -15 -9 -15 -10 -2 -11 18 0 59 36 59 53 1
14 23 -21 26 -40 1 -7 -3 -13 -9 -13 -7 0 -5 -5 3 -10 8 -5 10 -10 5 -10 -6 0
-17 6 -24 13 -10 10 -12 8 -9 -7 1 -10 -3 -21 -10 -24 -15 -5 -13 28 3 41 6 5
4 7 -5 4 -8 -2 -14 -10 -12 -16 1 -7 -5 -11 -14 -9 -9 2 -19 -4 -21 -12 -4
-12 -3 -12 5 -1 6 8 12 9 16 3 3 -5 -1 -13 -10 -16 -9 -4 -14 -9 -11 -12 3 -3
12 -2 19 2 7 4 19 9 28 10 27 3 45 9 51 18 4 4 10 3 13 -3 4 -6 2 -11 -4 -11
-6 0 -8 -5 -5 -10 5 -8 11 -8 20 0 15 12 41 -13 30 -29 -3 -7 0 -8 9 -5 9 3
14 9 12 13 -3 4 -1 13 4 20 6 11 10 9 19 -8 7 -13 17 -19 24 -14 19 12 37 12
37 0 0 -6 7 -2 16 9 14 17 14 16 0 -8 -20 -34 -3 -37 20 -4 13 22 45 27 42 8
-2 -20 3 -32 12 -27 6 4 5 15 -2 30 -6 13 -14 23 -17 20 -4 -2 -13 0 -21 5
-10 6 -20 4 -31 -6 -15 -13 -17 -13 -23 2 -6 15 -8 15 -28 -2 -12 -11 -19 -14
-15 -9 3 6 2 17 -4 25 -7 13 -9 13 -9 0 -1 -12 -3 -11 -11 3 -5 9 -14 17 -19
17 -6 0 -10 -8 -10 -17 0 -15 2 -16 10 -3 5 8 10 10 10 4 0 -16 -10 -23 -26
-17 -8 3 -11 10 -7 16 3 6 1 7 -6 3 -6 -4 -19 -2 -27 5 -12 10 -12 14 -2 20
10 7 10 9 -2 9 -11 0 -12 2 -2 8 9 6 7 14 -9 30 -11 12 -24 20 -29 17 -4 -3
-10 0 -12 7 -3 9 -6 9 -12 -1z m-51 -621 c3 -5 1 -10 -4 -10 -6 0 -11 5 -11
10 0 6 2 10 4 10 3 0 8 -4 11 -10z"/>
<path d="M1475 1790 c-3 -5 -1 -10 4 -10 6 0 11 5 11 10 0 6 -2 10 -4 10 -3 0
-8 -4 -11 -10z"/>
<path d="M1651 1770 c-14 -15 -26 -35 -27 -45 -1 -10 -7 -22 -12 -27 -10 -10
-42 0 -42 14 0 5 5 6 12 2 6 -4 8 -3 5 3 -3 5 -16 9 -29 8 -16 -1 -23 -8 -24
-23 -1 -22 7 -28 19 -15 4 3 1 13 -6 22 -11 14 -10 14 5 2 10 -7 15 -18 11
-24 -4 -6 -1 -7 6 -2 7 4 22 -2 37 -16 24 -23 34 -14 12 10 -7 8 -8 11 -2 8 6
-4 20 0 30 8 17 14 18 16 3 28 -14 10 -14 14 -3 25 11 10 14 10 14 0 0 -8 3
-9 8 -3 4 6 14 11 22 13 10 1 9 -2 -4 -13 -19 -15 -19 -16 6 -19 16 -1 23 -26
7 -26 -19 0 -1 -13 22 -17 19 -3 19 -2 5 19 -19 26 -20 38 -5 38 5 0 7 -4 4
-10 -3 -5 0 -7 8 -4 8 3 18 1 22 -5 3 -7 0 -8 -9 -5 -9 3 -16 1 -16 -6 0 -6 4
-9 8 -6 4 2 14 0 22 -6 12 -8 11 -8 -5 -3 -11 3 -16 3 -13 -1 4 -3 1 -19 -7
-35 -10 -18 -11 -30 -5 -34 9 -5 14 7 12 26 -1 4 6 6 16 5 10 0 16 6 16 16 -1
10 3 15 9 11 5 -3 7 -1 4 4 -4 6 1 10 11 9 12 -1 16 5 15 22 -2 13 1 21 7 17
6 -3 10 -13 10 -21 0 -8 5 -14 10 -14 13 0 13 17 0 25 -6 4 -8 10 -5 15 3 4
-3 7 -12 5 -10 -2 -22 -4 -26 -4 -5 -1 -6 -5 -3 -10 3 -5 0 -14 -8 -20 -11 -9
-15 -8 -21 6 -5 10 -8 21 -7 25 1 4 -5 5 -13 2 -8 -4 -26 7 -42 24 l-28 29
-24 -27z m39 2 c0 -5 -7 -9 -15 -9 -8 0 -12 4 -9 9 3 4 9 8 15 8 5 0 9 -4 9
-8z m-46 -61 c3 -5 -1 -11 -9 -14 -9 -4 -12 -1 -8 9 6 16 10 17 17 5z m126
-41 c0 -5 -4 -10 -10 -10 -5 0 -10 5 -10 10 0 6 5 10 10 10 6 0 10 -4 10 -10z"/>
<path d="M3231 1792 c4 -30 -22 -39 -51 -18 -10 7 -9 3 3 -10 16 -20 16 -21
-8 -34 -14 -7 -25 -17 -25 -22 0 -14 17 -9 23 6 4 10 15 13 33 10 24 -4 26 -3
14 11 -7 8 -10 18 -6 22 3 3 6 0 6 -8 1 -8 8 -2 16 14 8 15 17 27 20 27 2 0 0
-8 -5 -19 -6 -10 -7 -21 -4 -25 3 -3 1 -6 -6 -6 -7 0 -9 -5 -5 -11 4 -8 12 -2
21 15 7 14 16 26 19 26 2 0 0 -9 -6 -19 -9 -17 -7 -19 10 -16 11 2 25 7 30 10
5 3 7 0 5 -7 -4 -9 2 -14 16 -15 17 -2 18 1 8 13 -6 8 -9 17 -5 21 3 3 6 1 6
-7 0 -10 3 -10 15 0 10 9 15 9 15 1 0 -6 -5 -11 -11 -11 -5 0 -7 -5 -3 -11 4
-8 9 -7 15 2 5 8 9 10 9 6 0 -4 9 -3 21 3 19 11 20 10 9 -9 -9 -17 -8 -22 5
-27 8 -3 12 -11 9 -16 -4 -6 -10 -5 -15 3 -5 8 -9 10 -9 4 0 -5 5 -17 10 -25
8 -12 10 -12 10 -1 0 8 3 11 6 8 4 -4 1 -14 -7 -23 -12 -15 -11 -16 11 -10 19
6 21 5 10 -3 -18 -13 -1 -15 18 -2 11 7 10 9 -3 15 -9 3 -13 10 -10 16 3 5 1
10 -5 10 -6 0 -9 4 -5 9 3 5 0 13 -6 17 -9 5 -7 11 6 21 11 7 13 13 7 13 -7 0
-12 7 -12 16 0 13 -3 14 -13 5 -8 -6 -17 -8 -20 -4 -4 3 -7 0 -7 -8 -1 -11 -3
-10 -10 2 -9 15 -54 18 -68 5 -3 -4 -16 4 -29 16 -23 21 -53 33 -52 20z"/>
<path d="M2824 1772 c3 -5 1 -12 -6 -14 -8 -3 -9 -6 -1 -11 6 -4 13 0 17 8 3
8 0 17 -6 21 -6 4 -8 3 -4 -4z"/>
<path d="M1396 1738 c-9 -5 -16 -5 -16 -1 0 4 -4 1 -10 -7 -5 -9 -5 -19 1 -26
15 -18 -9 -28 -29 -12 -15 12 -16 11 -3 -5 12 -16 12 -20 -2 -34 -14 -14 -18
-14 -34 -2 -16 13 -17 12 -4 -3 10 -14 11 -21 2 -31 -6 -8 -8 -17 -5 -20 3 -3
2 -12 -2 -19 -5 -7 -9 -17 -9 -23 0 -13 -26 -14 -45 -1 -12 9 -13 8 -4 -4 15
-20 14 -48 -2 -54 -16 -6 -28 10 -19 24 3 5 0 7 -8 4 -14 -5 -20 -34 -7 -34 4
0 6 -14 5 -32 -4 -44 2 -55 30 -55 14 0 22 4 19 9 -3 5 -12 7 -20 4 -8 -3 -11
0 -7 10 4 12 8 12 21 2 13 -11 14 -10 10 2 -3 8 -12 14 -21 14 -9 -1 -14 3
-11 8 4 6 1 14 -6 18 -8 5 -7 9 5 13 9 4 13 3 10 -3 -3 -6 -4 -10 -1 -10 11 0
35 58 28 66 -3 5 2 2 11 -7 16 -14 23 -32 26 -62 1 -5 5 -5 11 -2 6 4 5 16 -5
34 -10 21 -11 31 -2 40 6 6 7 11 2 11 -5 0 0 7 11 15 12 9 14 14 6 15 -7 0
-10 5 -6 11 4 8 9 7 15 -2 6 -10 9 -10 9 -2 0 7 -7 16 -16 21 -11 6 -13 11 -5
16 6 4 11 2 11 -5 0 -7 8 -5 20 6 14 13 20 14 20 5 0 -7 3 -10 7 -6 5 4 1 13
-8 19 -13 10 -14 15 -4 24 10 9 14 9 19 -2 3 -8 11 -15 17 -15 9 0 9 3 0 14
-7 8 -8 16 -4 18 4 3 3 4 -3 2 -6 -1 -11 7 -10 19 1 18 7 22 34 20 17 -1 32 2
32 6 0 13 -36 19 -54 9z"/>
<path d="M1927 1743 c-4 -3 -22 -7 -40 -7 -25 -1 -32 -5 -32 -21 0 -11 -7 -20
-15 -21 -24 -2 -48 -15 -54 -29 -3 -9 0 -12 10 -8 7 3 14 9 14 14 0 4 12 -3
26 -16 15 -14 23 -29 18 -36 -4 -8 -3 -9 4 -5 7 4 12 2 12 -4 0 -6 5 -8 11 -4
8 4 7 9 -2 15 -7 4 -10 11 -6 16 5 4 13 1 18 -7 9 -13 10 -13 6 0 -2 8 -12 15
-22 15 -12 0 -19 8 -20 22 -1 12 1 20 5 18 4 -2 16 2 26 10 16 13 17 14 2 9
-11 -4 -18 -1 -18 7 0 7 3 9 6 6 4 -3 16 -2 27 4 10 6 17 7 14 2 -4 -5 0 -10
7 -10 8 0 12 6 9 14 -3 7 0 13 6 13 6 0 10 -3 10 -7 -3 -21 2 -33 12 -27 8 4
7 9 -2 16 -11 8 -11 9 1 5 8 -2 14 -10 13 -16 -2 -6 2 -11 8 -11 5 0 7 -4 4
-10 -4 -6 1 -7 12 -4 15 5 16 4 3 -6 -12 -9 -13 -12 -1 -17 11 -5 11 -7 0 -14
-12 -7 -12 -9 0 -9 11 0 10 -5 -4 -20 -10 -11 -13 -20 -7 -20 7 0 17 8 24 19
8 14 14 16 23 7 10 -8 9 -13 -4 -23 -13 -10 -14 -14 -3 -25 11 -11 16 -10 26
5 11 14 15 15 19 4 3 -8 0 -20 -6 -26 -6 -6 -7 -11 -2 -11 5 0 0 -7 -11 -15
-19 -15 -19 -15 1 -9 12 3 16 2 9 -3 -6 -4 -16 -17 -23 -28 -11 -19 -12 -18
-6 5 4 17 3 21 -3 12 -5 -8 -13 -13 -18 -12 -5 1 -10 -4 -12 -12 -2 -9 0 -8 7
2 6 8 11 12 11 8 0 -3 3 -15 6 -25 5 -15 4 -15 -5 -3 -9 13 -11 13 -11 0 0
-13 -1 -13 -11 0 -8 12 -9 11 -6 -5 2 -11 9 -19 16 -17 7 1 9 -2 6 -8 -4 -6
-10 -9 -13 -6 -7 7 -32 -13 -32 -26 0 -6 6 -6 14 1 17 15 28 1 15 -19 -14 -23
-11 -29 10 -25 14 3 18 -1 14 -12 -3 -8 -9 -11 -12 -6 -3 4 -10 9 -16 10 -5 1
-19 5 -30 8 -11 4 -16 3 -10 -2 13 -10 13 -23 1 -42 -5 -8 -4 -16 5 -22 12 -7
12 -9 0 -9 -11 0 -11 -3 -1 -15 10 -12 10 -15 -1 -15 -12 0 -12 -2 0 -9 11 -7
11 -9 0 -13 -8 -3 -22 1 -31 10 -10 8 -18 10 -18 5 0 -6 7 -16 15 -23 17 -14
10 -34 -8 -23 -7 4 -21 9 -32 10 -17 2 -17 1 4 -11 15 -8 20 -16 12 -20 -6 -4
-11 -2 -11 4 0 6 -4 8 -10 5 -5 -3 -10 -1 -10 6 0 7 -11 3 -24 -10 -23 -22
-25 -22 -35 -4 -9 16 -12 16 -21 3 -8 -12 -10 -12 -10 -1 0 11 -3 11 -15 1 -8
-7 -14 -19 -13 -28 2 -8 -3 -17 -11 -20 -10 -3 -12 0 -8 12 4 11 3 15 -4 11
-5 -4 -17 -1 -26 7 -15 11 -16 11 -10 -4 7 -19 -24 -44 -37 -30 -4 3 -5 -6 -2
-21 3 -15 1 -25 -3 -22 -5 2 -15 -3 -22 -13 -11 -14 -11 -15 0 -5 7 6 20 9 29
5 11 -4 14 -1 9 11 -7 17 15 41 28 29 5 -4 5 -2 2 4 -12 21 21 23 39 3 12 -13
21 -16 29 -9 6 5 16 6 21 2 4 -4 3 0 -2 8 -16 22 -13 47 5 45 29 -3 51 -17 44
-29 -3 -6 5 0 20 13 14 12 30 20 36 17 5 -4 12 -2 16 4 4 6 10 8 14 6 4 -3 14
6 21 19 7 13 17 22 22 19 4 -3 8 0 8 5 0 19 2 26 11 42 5 10 4 20 -3 27 -14
14 9 45 28 38 8 -3 18 4 24 14 6 11 8 20 4 20 -3 0 0 8 7 18 11 14 11 15 -1 5
-21 -19 -27 -16 -27 12 0 15 4 22 11 18 6 -3 8 -3 4 2 -10 11 21 67 32 60 6
-4 11 -1 11 4 2 14 6 29 9 36 1 3 3 14 4 24 0 11 4 23 9 27 10 10 9 26 -2 20
-12 -8 -44 31 -36 44 5 8 11 7 23 -2 15 -12 16 -11 3 5 -10 13 -17 15 -27 6
-17 -14 -48 7 -40 27 3 8 -2 17 -10 22 -9 5 -15 12 -15 15 3 18 0 24 -11 24
-7 0 -20 4 -29 7 -8 4 -18 3 -22 -1z m-87 -68 c7 -9 8 -15 2 -15 -5 0 -12 7
-16 15 -3 8 -4 15 -2 15 2 0 9 -7 16 -15z m210 -80 c-7 -9 -15 -13 -19 -10 -3
3 1 10 9 15 21 14 24 12 10 -5z m-180 -409 c0 -2 -8 -10 -17 -17 -16 -13 -17
-12 -4 4 13 16 21 21 21 13z"/>
<path d="M1663 1724 c16 -20 16 -21 -8 -34 -13 -7 -22 -17 -19 -22 3 -5 12 -1
20 9 11 14 13 14 9 2 -3 -9 1 -22 10 -29 11 -9 15 -9 15 -1 0 7 5 9 11 5 8 -4
7 -9 -2 -15 -11 -7 -11 -9 1 -9 13 0 13 -1 0 -10 -8 -5 -13 -10 -10 -11 3 0
13 -2 23 -4 18 -3 23 6 10 19 -11 11 -10 30 0 37 5 4 4 10 -2 13 -6 4 -11 2
-11 -5 0 -7 -6 -4 -14 7 -11 14 -12 23 -3 34 6 8 7 12 2 7 -4 -4 -18 1 -29 10
-21 18 -21 18 -3 -3z m27 -54 c0 -5 -2 -10 -4 -10 -3 0 -8 5 -11 10 -3 6 -1
10 4 10 6 0 11 -4 11 -10z"/>
<path d="M3130 1730 c0 -6 -6 -8 -12 -4 -10 5 -10 4 -1 -6 10 -11 9 -16 -2
-24 -10 -8 -12 -16 -5 -26 5 -8 12 -11 17 -7 4 5 1 12 -7 17 -11 7 -10 9 7 8
11 -1 19 -7 16 -14 -2 -7 1 -15 8 -20 15 -9 41 24 32 40 -4 6 1 5 10 -3 9 -7
17 -9 17 -4 0 13 32 13 49 -1 12 -9 13 -8 8 6 -3 10 -1 20 5 24 7 5 8 2 3 -6
-6 -9 -4 -11 5 -5 8 5 11 4 7 -2 -3 -5 4 -9 16 -8 12 1 27 -5 33 -13 9 -12 12
-12 23 2 10 12 10 16 2 16 -7 0 -9 5 -5 12 4 7 3 8 -5 4 -6 -4 -9 -13 -5 -19
3 -7 -2 -3 -10 7 -12 15 -16 16 -16 5 -1 -11 -3 -10 -10 3 -7 11 -18 15 -33
12 -12 -3 -28 -6 -34 -6 -7 -1 -13 -5 -13 -10 0 -5 -6 -6 -12 -1 -19 12 -32
10 -44 -6 -13 -17 -38 -5 -30 15 3 7 1 16 -4 19 -6 4 -10 1 -10 -5z m44 -55
c-4 -8 -11 -12 -16 -9 -6 4 -5 10 3 15 19 12 19 11 13 -6z"/>
<path d="M1459 1728 c-6 -11 -5 -48 1 -48 15 0 19 14 8 29 -11 14 -10 14 7 0
11 -9 27 -14 35 -12 11 3 10 0 -2 -10 -19 -15 -25 -33 -9 -22 6 3 14 -3 20
-12 8 -14 10 -15 11 -3 0 12 2 12 9 2 6 -11 10 -10 15 4 3 9 4 19 1 22 -3 3
-5 0 -5 -8 0 -10 -3 -10 -15 0 -8 7 -13 16 -10 20 3 4 -2 13 -10 20 -11 9 -15
10 -15 1 0 -8 -6 -7 -16 3 -15 15 -22 19 -25 14z"/>
<path d="M3380 1720 c-8 -5 -11 -12 -7 -16 4 -4 0 -15 -9 -25 -13 -15 -19 -15
-41 -4 -17 9 -32 11 -43 5 -11 -6 -21 -5 -27 1 -8 8 -17 7 -32 0 -12 -7 -21
-9 -21 -5 0 3 -9 -4 -19 -17 -15 -19 -22 -21 -32 -12 -16 16 -53 -3 -45 -23 4
-10 2 -13 -7 -8 -8 5 -8 3 1 -7 11 -12 16 -11 32 9 13 15 20 18 23 10 4 -10 8
-9 16 2 8 12 11 12 11 1 0 -11 3 -11 15 -1 11 9 13 15 5 20 -8 5 -6 9 6 14 9
3 19 4 22 1 3 -3 0 -5 -8 -5 -9 0 -10 -3 -1 -13 6 -8 8 -17 4 -20 -3 -4 -2 -7
4 -7 15 0 23 12 16 24 -12 18 -12 36 -1 36 6 0 8 -6 5 -13 -3 -7 3 -13 12 -13
9 -1 24 -5 34 -9 12 -5 17 -3 15 5 -2 7 4 15 12 17 12 4 12 3 1 -5 -9 -7 -10
-12 -2 -16 6 -4 11 -1 11 6 1 9 5 7 14 -4 7 -10 16 -15 19 -11 4 3 7 1 7 -6 0
-7 4 -10 10 -6 5 3 16 -7 25 -22 13 -22 15 -23 10 -5 -4 13 -2 22 5 22 6 0 8
-5 4 -11 -4 -7 1 -7 16 1 15 8 20 8 16 1 -4 -6 -3 -11 2 -11 5 0 12 -9 15 -21
4 -14 10 -18 19 -13 10 6 10 4 2 -7 -5 -8 -10 -25 -9 -39 0 -14 -6 -31 -15
-37 -13 -12 -13 -15 3 -27 11 -8 14 -17 8 -20 -5 -4 -8 -18 -5 -31 2 -14 0
-25 -6 -25 -6 0 -8 -4 -5 -10 7 -12 26 -14 23 -2 -1 4 2 32 7 62 4 30 9 80 9
110 2 46 -2 58 -21 73 -13 10 -27 16 -33 12 -13 -8 -52 14 -45 26 4 5 2 9 -3
9 -5 0 -9 16 -7 35 1 19 1 35 1 35 -1 0 -8 -4 -16 -10z m-85 -50 c-3 -5 -12
-10 -18 -10 -7 0 -6 4 3 10 19 12 23 12 15 0z m98 -22 l17 -27 -29 16 c-21 13
-26 20 -17 29 6 7 11 11 12 10 0 0 8 -13 17 -28z m-263 -13 c-7 -9 -15 -13
-19 -10 -3 3 1 10 9 15 21 14 24 12 10 -5z m358 -50 c-3 -3 -9 2 -12 12 -6 14
-5 15 5 6 7 -7 10 -15 7 -18z m6 -110 c-7 -16 -24 -21 -24 -6 0 8 7 13 27 20
1 1 0 -6 -3 -14z"/>
<path d="M1390 1711 c0 -5 6 -11 13 -14 14 -5 16 -41 4 -53 -4 -4 -14 -1 -23
7 -16 13 -16 12 -3 -8 15 -25 29 -30 29 -10 1 6 7 1 14 -13 8 -14 12 -28 10
-31 -2 -4 3 -10 12 -13 9 -3 12 -2 9 5 -4 5 -1 17 6 25 11 13 10 15 -6 12 -10
-1 -20 3 -23 10 -5 15 28 13 41 -3 5 -6 6 -1 3 10 -6 20 -6 20 9 1 11 -15 15
-16 16 -5 0 9 3 7 8 -5 8 -20 41 -32 41 -15 0 5 3 8 8 8 20 -3 32 2 26 12 -4
8 -9 7 -16 -2 -8 -11 -9 -11 -6 -1 2 8 7 13 12 12 5 -1 12 4 16 10 5 9 9 9 14
1 4 -6 2 -11 -3 -11 -13 0 -10 -22 4 -32 16 -12 30 -9 17 4 -7 7 -12 17 -12
22 0 6 5 4 10 -4 6 -10 10 -11 10 -2 0 6 5 12 11 12 8 0 7 -5 -1 -15 -11 -13
-10 -14 3 -10 8 4 18 2 22 -4 5 -10 -6 -15 -27 -13 -3 1 -9 -5 -12 -14 -3 -9
-2 -12 5 -9 5 4 17 1 25 -6 13 -11 15 -10 12 6 -1 10 3 20 10 22 6 3 12 0 12
-7 0 -6 -5 -8 -11 -4 -7 4 -7 -1 1 -15 11 -22 37 -24 33 -3 -1 5 4 13 12 16 9
3 12 0 9 -8 -6 -14 23 -42 33 -32 4 3 -1 12 -11 19 -16 12 -16 13 3 13 11 0
19 -3 19 -6 -2 -19 3 -30 12 -25 12 7 -15 65 -31 65 -5 0 -4 6 3 14 7 8 15 10
17 4 1 -5 13 -1 25 9 17 14 16 12 -3 -10 -14 -15 -20 -27 -14 -27 6 0 16 6 23
14 6 8 18 12 26 9 8 -3 14 0 14 7 0 6 -4 9 -9 6 -5 -3 -12 1 -15 10 -3 8 -10
12 -16 9 -5 -3 -20 -8 -32 -10 -23 -5 -40 -24 -32 -37 5 -7 -3 -10 -22 -7 -4
0 -10 -3 -13 -8 -3 -5 -14 -1 -23 9 -10 10 -13 18 -6 18 6 0 3 8 -7 20 -13 14
-22 17 -35 10 -13 -7 -22 -4 -35 10 -24 27 -30 25 -45 -11 -10 -22 -15 -27
-21 -17 -7 10 -9 10 -9 -2 -1 -9 -6 -5 -15 10 -7 14 -17 25 -22 25 -4 0 -7 6
-7 12 1 7 -2 10 -7 7 -5 -3 -9 -11 -9 -19 0 -8 -5 -17 -11 -20 -6 -4 -9 0 -7
11 2 12 -3 19 -13 18 -9 -1 -16 4 -16 11 0 8 7 11 16 7 14 -5 14 -4 2 12 -11
13 -16 14 -22 4 -7 -10 -9 -10 -9 0 0 6 -4 12 -10 12 -5 0 -10 -4 -10 -9z m60
-45 c0 -2 -7 -9 -15 -16 -13 -11 -14 -10 -9 4 5 14 24 23 24 12z m218 -41 c-3
-3 -9 2 -12 12 -6 14 -5 15 5 6 7 -7 10 -15 7 -18z m102 -35 c0 -5 -4 -10 -10
-10 -5 0 -10 5 -10 10 0 6 5 10 10 10 6 0 10 -4 10 -10z m-65 -20 c3 -5 1 -10
-4 -10 -6 0 -11 5 -11 10 0 6 2 10 4 10 3 0 8 -4 11 -10z"/>
<path d="M2689 1701 c-1 -9 -1 -21 0 -27 3 -22 -28 -24 -39 -3 -6 11 -15 17
-21 14 -5 -4 -7 -11 -4 -16 4 -5 3 -15 -2 -21 -12 -20 -12 -39 0 -31 6 4 8 0
4 -10 -3 -9 -1 -19 4 -23 6 -4 2 -15 -12 -30 -18 -19 -19 -25 -8 -29 8 -3 15
-15 16 -25 1 -11 -2 -18 -6 -16 -4 3 -7 -4 -6 -15 2 -22 65 -97 65 -77 0 6 6
3 14 -8 8 -10 11 -21 7 -24 -9 -7 -8 -61 2 -77 5 -7 6 -17 3 -22 -3 -4 3 -16
14 -26 11 -10 20 -15 20 -11 0 4 9 2 20 -4 16 -9 18 -15 10 -30 -7 -13 -7 -21
2 -26 7 -4 8 -3 4 4 -4 7 -3 12 1 12 5 0 18 7 29 16 18 14 18 15 -4 4 -22 -11
-23 -10 -12 10 6 12 9 24 6 28 -3 3 -6 0 -6 -8 0 -9 -4 -9 -12 -3 -7 6 -21 9
-31 7 -12 -1 -17 2 -13 11 3 10 0 12 -12 8 -11 -3 -9 1 6 11 12 10 22 22 22
29 0 8 -3 8 -12 -1 -7 -7 -17 -12 -23 -12 -5 0 -3 5 5 10 11 7 11 10 2 10 -7
0 -11 4 -7 9 3 5 1 12 -5 16 -6 4 -8 11 -5 16 13 20 14 50 2 43 -7 -4 -8 -3
-4 2 5 5 13 10 18 10 5 1 14 2 20 3 5 0 7 6 4 11 -4 7 -12 7 -25 0 -28 -15
-32 -12 -25 13 3 12 3 17 -2 12 -4 -6 -12 -10 -18 -10 -16 1 -52 24 -38 25 17
0 53 41 53 59 -1 13 -2 13 -11 -2 -6 -9 -15 -15 -20 -11 -6 3 -9 -2 -7 -11 2
-10 -3 -20 -9 -22 -7 -3 -13 0 -13 7 0 6 4 9 8 6 4 -2 7 10 7 27 -1 18 3 35 8
38 5 4 4 16 -3 28 -11 21 -10 22 9 12 17 -9 20 -9 15 3 -3 9 -11 14 -17 13 -6
-1 -12 8 -13 20 -1 13 3 20 9 16 6 -3 7 -2 4 4 -7 11 34 10 52 -1 5 -4 12 -2
16 4 6 9 -8 14 -28 11 -4 -1 -4 7 2 16 5 10 10 23 11 28 1 6 4 12 7 15 4 3 2
-1 -2 -9 -6 -11 -4 -13 7 -8 12 4 15 0 14 -17 -3 -26 31 -34 41 -10 5 13 7 13
14 2 7 -11 11 -10 20 2 9 13 10 12 5 -2 -3 -10 -1 -20 4 -23 9 -6 14 8 11 28
0 4 4 7 10 7 6 0 9 -6 6 -13 -3 -8 1 -14 8 -14 10 0 11 5 4 18 -11 21 -29 34
-29 21 0 -5 -10 -8 -22 -8 -13 1 -31 -4 -40 -12 -12 -10 -18 -11 -19 -4 -1 7
-3 17 -4 22 -1 6 -3 14 -4 18 -2 15 -51 8 -52 -7z m-48 -54 c-6 -8 -7 -18 -3
-22 4 -5 1 -5 -6 -1 -10 6 -10 11 -1 22 6 8 14 14 16 14 3 0 0 -6 -6 -13z m0
-100 c-6 -8 -7 -18 -3 -22 4 -5 2 -5 -5 -1 -14 8 -6 36 9 36 7 0 6 -5 -1 -13z"/>
<path d="M1897 1692 c-28 -17 -46 -45 -23 -36 7 3 19 -2 26 -11 11 -13 10 -19
-5 -35 -16 -17 -20 -18 -45 -5 -25 13 -29 12 -45 -5 -10 -11 -13 -20 -7 -20 5
0 9 -8 7 -17 -2 -10 -4 -18 -6 -18 -10 0 -3 -45 8 -49 8 -3 11 -1 8 5 -4 5 -1
17 7 26 11 15 11 16 -7 10 -19 -7 -19 -6 -1 7 10 9 15 20 10 27 -4 8 -3 10 4
5 8 -5 10 -2 6 8 -3 9 -1 16 5 16 6 0 10 -3 10 -7 -3 -21 2 -34 11 -28 6 4 8
11 5 16 -4 5 2 6 11 2 11 -4 13 -8 6 -11 -9 -3 -8 -7 1 -17 7 -7 16 -11 21 -8
4 3 3 9 -4 13 -9 5 -9 9 -1 14 6 4 11 2 11 -3 0 -6 5 -11 11 -11 8 0 8 5 -1
15 -10 12 -10 15 0 15 10 0 10 3 0 15 -9 10 -9 15 -1 15 6 0 11 -5 11 -12 0
-18 14 0 17 24 3 17 1 19 -11 9 -9 -8 -16 -8 -20 -2 -4 5 -2 12 4 16 5 3 10
10 10 16 0 11 -22 8 -33 -6 -5 -6 -7 -4 -4 5 2 9 14 15 30 14 41 -2 44 -3 44
-16 0 -7 4 -22 8 -33 5 -14 4 -16 -3 -6 -7 9 -12 10 -16 2 -4 -6 -1 -11 6 -11
9 0 9 -3 -2 -10 -12 -8 -12 -10 -1 -10 11 0 11 -3 0 -16 -11 -14 -10 -15 7
-12 11 2 18 -2 17 -9 -2 -7 4 -10 12 -7 9 4 13 -1 12 -14 0 -12 -5 -18 -9 -16
-5 3 -6 10 -3 15 3 5 -1 6 -10 3 -14 -6 -14 -8 2 -20 17 -13 17 -14 1 -8 -11
4 -18 1 -18 -6 0 -6 5 -8 12 -4 7 5 8 3 3 -6 -6 -10 -11 -9 -22 5 -10 15 -13
15 -13 4 0 -8 5 -20 12 -27 8 -8 8 -15 -1 -26 -8 -10 -9 -16 -1 -19 6 -3 5 -4
-2 -2 -7 1 -12 8 -10 15 1 6 -2 10 -8 8 -16 -5 -14 -21 4 -33 11 -7 20 -5 33
9 10 10 12 16 6 12 -7 -4 -13 -4 -13 1 0 14 39 73 49 73 5 0 20 15 32 33 17
22 18 28 6 18 -16 -12 -20 -12 -34 2 -14 14 -14 18 -2 34 12 15 10 15 -9 -1
-17 -15 -19 -22 -10 -28 10 -6 10 -8 1 -8 -17 0 -36 37 -23 45 11 7 7 45 -9
72 -6 10 -11 14 -11 10 0 -4 -8 -3 -18 2 -12 7 -26 5 -45 -7z m-74 -97 c-3 -9
-8 -14 -10 -11 -3 3 -2 9 2 15 9 16 15 13 8 -4z m87 1 c0 -3 -4 -8 -10 -11 -5
-3 -10 -1 -10 4 0 6 5 11 10 11 6 0 10 -2 10 -4z m119 -40 c9 -11 9 -16 -1
-22 -7 -4 -10 -4 -6 1 4 4 3 14 -3 22 -6 7 -9 13 -6 13 2 0 10 -6 16 -14z"/>
<path d="M2876 1683 c-11 -11 -6 -23 9 -23 8 0 15 4 15 9 0 13 -16 22 -24 14z"/>
<path d="M1931 1658 c-13 -20 -12 -22 1 -11 8 7 18 10 22 6 4 -4 4 0 0 10 -8
21 -6 21 -23 -5z"/>
<path d="M2710 1670 c0 -5 5 -10 10 -10 6 0 10 5 10 10 0 6 -4 10 -10 10 -5 0
-10 -4 -10 -10z"/>
<path d="M2930 1675 c6 -26 -2 -32 -40 -30 -40 2 -41 1 -31 -43 1 -2 8 4 17
12 8 9 20 14 25 11 5 -4 9 0 9 7 0 9 3 9 10 -2 9 -13 10 -13 10 0 0 13 1 13
10 0 9 -13 10 -13 10 0 0 13 1 13 10 0 8 -13 10 -13 10 2 0 9 5 20 12 24 8 5
9 2 5 -9 -4 -10 -10 -24 -14 -34 -4 -10 -3 -14 5 -9 6 3 15 -2 21 -11 9 -16
10 -16 11 -1 0 9 -4 20 -10 23 -5 3 -10 12 -10 18 0 7 5 4 11 -6 6 -9 15 -14
21 -11 7 5 9 1 5 -9 -3 -9 -2 -19 3 -22 4 -3 7 7 5 22 -3 25 -2 26 11 8 8 -10
14 -17 15 -14 0 2 2 12 4 22 2 9 -1 17 -6 17 -6 0 -7 5 -3 11 4 8 9 7 15 -2 4
-7 5 -17 3 -21 -3 -4 0 -8 5 -8 14 0 14 3 0 34 l-12 25 -25 -30 c-18 -22 -27
-27 -33 -18 -4 7 -6 16 -3 20 2 4 -3 9 -11 13 -8 3 -17 1 -21 -5 -4 -6 -14 -3
-26 8 -11 9 -19 13 -18 8z"/>
<path d="M2775 1649 c-4 -6 -13 -8 -20 -5 -7 2 -18 -1 -24 -7 -14 -14 -41 -18
-41 -6 0 6 -8 5 -20 -1 -19 -10 -28 -31 -12 -29 21 4 30 -3 27 -18 -1 -10 -7
-17 -12 -16 -6 1 -9 -9 -7 -22 1 -14 -2 -25 -7 -25 -6 0 -7 -5 -3 -11 5 -8 10
-7 16 4 11 21 33 12 35 -13 1 -11 -2 -18 -8 -15 -5 4 -14 -5 -20 -19 -7 -14
-16 -23 -22 -19 -6 3 -7 1 -3 -5 5 -9 13 -9 26 -2 20 11 36 -2 25 -20 -3 -6 1
-7 9 -4 9 3 16 10 16 14 0 13 -29 32 -39 25 -7 -3 -8 0 -5 9 3 9 10 14 15 11
4 -3 13 4 19 16 7 12 8 19 3 16 -5 -4 -10 0 -10 8 0 20 13 19 21 -1 4 -9 9
-14 12 -11 3 3 2 12 -2 19 -5 7 -9 20 -9 28 0 8 -7 15 -15 15 -9 0 -14 -8 -13
-19 1 -13 -2 -15 -10 -7 -7 7 -6 15 3 26 10 12 10 15 -1 15 -11 0 -11 2 1 10
11 7 11 10 2 10 -7 0 -10 5 -6 11 5 8 9 8 14 -1 5 -9 12 -6 23 10 11 16 16 18
21 8 5 -11 7 -11 12 0 5 10 10 8 21 -7 18 -26 28 -27 30 -1 2 23 -32 46 -42
29z m35 -21 c0 -6 -6 -5 -15 2 -8 7 -15 14 -15 16 0 2 7 1 15 -2 8 -4 15 -11
15 -16z m-80 -78 c0 -5 -4 -10 -10 -10 -5 0 -10 5 -10 10 0 6 5 10 10 10 6 0
10 -4 10 -10z"/>
<path d="M3255 1641 c3 -5 -5 -18 -17 -28 -27 -21 -34 -50 -13 -50 11 0 14 7
10 21 -5 17 -3 17 10 -4 13 -21 15 -21 10 -4 -4 16 1 24 21 33 15 6 29 9 32 6
3 -3 -1 -5 -9 -5 -11 0 -11 -2 1 -10 8 -5 20 -10 25 -10 6 0 4 4 -4 9 -8 5 -9
11 -3 15 5 3 13 -1 16 -10 5 -14 9 -14 24 -3 15 12 16 12 4 -2 -10 -14 -10
-18 3 -23 9 -3 13 -2 10 3 -3 5 -1 12 4 15 4 3 8 -9 7 -26 -1 -20 5 -33 14
-36 13 -5 13 -3 1 11 -14 18 -13 19 22 20 13 0 21 -5 19 -12 -1 -7 2 -9 9 -6
8 6 8 2 0 -12 -6 -11 -7 -23 -4 -27 3 -3 1 -6 -6 -6 -8 0 -11 7 -6 18 5 14 4
15 -7 4 -11 -11 -10 -16 5 -27 14 -10 15 -14 5 -19 -11 -5 -11 -7 0 -12 10 -5
9 -9 -4 -18 -19 -14 -10 -40 10 -33 7 3 13 -1 13 -8 0 -7 -6 -11 -12 -8 -14 5
-18 -44 -4 -53 5 -3 9 1 9 8 0 10 3 9 10 -2 5 -9 5 -19 0 -26 -6 -6 -6 -15 -2
-19 4 -5 1 -5 -6 0 -11 6 -12 3 -3 -14 15 -27 19 -27 17 2 -1 12 5 28 12 36
11 11 10 16 -8 28 -12 8 -17 19 -13 26 11 18 12 60 1 74 -6 8 -4 20 5 35 17
29 16 74 -2 70 -8 -2 -11 3 -8 12 9 22 -12 31 -26 12 -11 -14 -40 -9 -38 8 3
19 0 29 -6 23 -3 -4 -16 -1 -27 6 -12 8 -29 13 -40 11 -10 -1 -29 2 -43 7 -14
5 -22 5 -18 0z m195 -206 c-7 -9 -15 -13 -19 -10 -3 3 1 10 9 15 21 14 24 12
10 -5z"/>
<path d="M2829 1633 c-2 -26 -9 -47 -17 -55 -12 -12 -32 -2 -31 15 0 9 2 9 6
0 2 -7 9 -13 15 -13 6 0 4 8 -5 18 -19 21 -48 22 -71 3 -15 -13 -15 -15 4 -28
12 -8 19 -20 17 -26 -2 -7 2 -20 11 -29 10 -12 11 -18 4 -18 -21 0 -27 -3 -38
-19 -9 -12 -7 -22 12 -46 21 -28 21 -59 -1 -56 -5 1 -10 -4 -11 -11 -1 -7 -3
-17 -5 -23 -4 -16 12 -45 21 -40 14 8 23 -15 11 -28 -14 -18 -1 -33 29 -33 16
0 25 -5 24 -15 -1 -16 30 -19 43 -4 5 4 2 5 -6 0 -10 -6 -12 -4 -6 5 6 9 4 11
-5 5 -9 -6 -11 -4 -5 5 6 9 4 11 -5 5 -10 -6 -12 -4 -7 9 5 11 3 15 -5 10 -7
-4 -8 -3 -4 4 4 7 3 12 -2 12 -6 0 -12 -7 -16 -15 -3 -8 -12 -12 -21 -9 -8 3
-12 11 -9 16 4 6 10 5 16 -3 6 -10 7 -7 3 9 -6 21 -4 23 17 18 20 -6 19 -5 -5
9 -15 9 -25 20 -22 25 4 6 2 10 -2 10 -5 0 -9 10 -10 23 -2 21 -1 21 12 -3 16
-29 20 -19 5 11 -8 14 -7 27 5 48 9 19 11 32 5 36 -9 6 -14 -8 -11 -27 0 -5
-3 -8 -8 -8 -6 0 -9 8 -9 18 0 9 -1 24 -3 32 -2 9 2 15 11 14 21 -1 23 35 4
43 -13 5 -13 7 -2 14 11 8 11 10 0 18 -11 7 -10 9 3 14 10 5 14 3 9 -5 -4 -7
-3 -8 4 -4 8 4 10 2 6 -8 -3 -8 3 -19 14 -25 17 -9 19 -7 18 17 -1 23 3 27 27
26 15 -1 27 3 27 8 0 6 8 7 17 4 15 -6 32 8 33 27 0 10 -22 4 -38 -10 -10 -10
-17 -10 -32 -1 -12 8 -15 15 -9 19 8 5 8 9 0 13 -6 4 -11 4 -12 -1z m-56 -40
c-4 -11 -8 -11 -21 -1 -14 11 -15 10 -8 -7 5 -15 4 -17 -5 -8 -15 15 -6 29 19
29 12 0 18 -5 15 -13z m77 -3 c0 -5 -2 -10 -4 -10 -3 0 -8 5 -11 10 -3 6 -1
10 4 10 6 0 11 -4 11 -10z m-40 -40 c0 -5 -4 -10 -10 -10 -5 0 -10 5 -10 10 0
6 5 10 10 10 6 0 10 -4 10 -10z m-69 -97 c13 -16 12 -17 -3 -4 -17 13 -22 21
-14 21 2 0 10 -8 17 -17z m13 -126 l17 -28 -25 16 c-15 10 -23 22 -19 31 3 8
6 14 7 12 1 -2 10 -16 20 -31z"/>
<path d="M3201 1626 c-7 -8 -23 -13 -36 -11 -14 1 -32 -6 -41 -16 -17 -19 -40
-27 -29 -10 8 15 -14 24 -29 12 -7 -6 -16 -8 -20 -4 -4 4 -4 0 -1 -9 5 -13 1
-16 -20 -14 -15 2 -31 9 -36 17 -5 8 -9 10 -9 4 0 -5 -7 -1 -15 9 -11 14 -15
16 -15 5 0 -11 -2 -11 -8 -1 -6 9 -12 5 -20 -14 -8 -16 -18 -24 -27 -20 -8 3
-17 1 -20 -4 -3 -4 -15 -7 -28 -6 -19 2 -22 -2 -22 -32 0 -36 17 -53 31 -31 4
7 0 17 -8 23 -13 10 -13 13 -2 24 11 10 14 10 14 0 0 -10 2 -10 9 0 7 11 9 10
15 -3 3 -9 11 -13 17 -9 8 4 9 3 5 -4 -5 -8 -1 -10 9 -5 12 4 13 8 5 13 -9 6
-9 9 -1 14 6 4 8 12 5 18 -4 7 -2 8 4 4 6 -4 8 -14 5 -24 -6 -15 -5 -15 10 -4
9 8 15 17 14 20 -2 8 7 12 26 12 9 0 9 -2 -1 -9 -11 -7 -10 -9 3 -14 11 -5 14
-3 10 6 -4 6 1 3 9 -7 14 -18 21 -15 17 7 -1 4 8 3 19 -3 19 -10 24 -6 21 13
-1 5 3 6 9 2 27 -17 60 -15 72 5 7 11 17 20 22 20 4 0 2 -7 -5 -17 -12 -14
-12 -16 1 -11 8 3 15 12 14 20 -1 8 5 15 12 15 7 0 11 -4 8 -9 -12 -19 -13
-48 -1 -42 7 4 3 -3 -8 -16 -16 -19 -17 -22 -4 -17 9 3 22 0 28 -6 9 -9 11 -8
6 4 -4 10 -2 20 4 24 6 3 11 1 11 -4 0 -6 5 -11 11 -11 5 0 7 5 3 12 -4 7 -3
8 5 4 15 -10 3 -29 -15 -22 -8 3 -11 0 -8 -8 3 -7 10 -13 17 -13 7 0 21 -4 32
-8 15 -5 17 -4 6 3 -8 6 -15 20 -16 31 -2 28 1 26 20 -6 14 -25 15 -26 9 -4
-5 20 -3 23 10 18 11 -4 15 -3 11 4 -4 6 -13 8 -20 5 -8 -3 -12 2 -10 12 1 9
-3 21 -9 25 -7 6 -6 7 4 4 8 -2 14 -9 13 -15 -2 -6 6 -10 17 -9 11 1 20 6 20
12 0 5 5 3 11 -5 8 -12 10 -12 7 -1 -2 8 -13 16 -24 17 -10 2 -28 4 -39 6 -14
2 -20 -3 -20 -16 0 -24 -49 -31 -66 -9 -9 9 -8 13 0 13 6 0 10 3 10 8 -1 4 0
9 1 12 4 11 8 40 5 40 -1 0 -8 -6 -14 -14z m-63 -36 c-7 -11 -17 -20 -22 -20
-5 0 -1 9 9 20 10 11 20 20 22 20 2 0 -2 -9 -9 -20z m-184 -2 c-3 -4 -9 -8
-15 -8 -5 0 -9 4 -9 8 0 5 7 9 15 9 8 0 12 -4 9 -9z m136 8 c0 -3 -4 -8 -10
-11 -5 -3 -10 -1 -10 4 0 6 5 11 10 11 6 0 10 -2 10 -4z m-182 -43 c-6 -7 -12
-13 -13 -13 -2 0 -5 6 -8 13 -3 7 3 13 14 13 13 0 15 -3 7 -13z m-63 -43 c3
-5 1 -10 -4 -10 -6 0 -11 5 -11 10 0 6 2 10 4 10 3 0 8 -4 11 -10z"/>
<path d="M1346 1613 c-9 -9 6 -33 16 -27 6 4 5 10 -3 16 -10 7 -8 8 6 3 11 -4
25 -8 32 -8 19 -1 24 -26 6 -35 -14 -8 -14 -10 1 -15 9 -4 17 -3 17 1 6 32 5
52 -3 52 -5 0 -7 3 -5 8 5 8 -59 13 -67 5z"/>
<path d="M1471 1607 c-6 -8 -8 -23 -4 -32 5 -14 3 -17 -10 -12 -11 4 -20 -1
-27 -13 -9 -17 -14 -18 -32 -9 -21 11 -21 12 -3 25 14 11 15 14 4 15 -8 1 -18
0 -24 -1 -5 -1 -16 -3 -23 -3 -16 0 -58 -57 -42 -57 6 0 8 -4 5 -10 -3 -5 -1
-10 4 -10 6 0 10 -5 9 -11 -2 -6 3 -14 11 -17 10 -3 12 0 8 10 -3 10 0 15 11
14 10 0 17 6 16 15 -1 10 8 15 26 15 18 0 26 -4 23 -12 -6 -17 17 -28 30 -14
9 9 8 14 -6 24 -15 11 -15 15 -3 19 8 3 20 -1 26 -9 7 -8 17 -14 23 -14 5 0 3
8 -6 18 -12 13 -13 22 -5 36 8 14 7 17 -1 12 -6 -4 -11 -3 -11 3 0 5 9 9 20 8
13 -1 16 -5 10 -11 -15 -15 -12 -30 3 -17 8 6 17 8 20 4 4 -3 7 0 7 8 1 12 3
11 13 -1 16 -20 44 -24 44 -5 0 11 -7 14 -21 10 -19 -5 -19 -5 -3 5 12 8 22 8
35 1 9 -6 11 -11 5 -11 -7 0 -12 -4 -10 -9 1 -5 -7 -16 -17 -24 -18 -13 -18
-14 5 -11 13 1 24 3 24 4 0 1 8 3 17 5 24 4 31 -10 18 -37 -10 -21 -10 -22 4
-5 8 10 17 18 20 18 21 -3 26 0 20 11 -4 7 -3 8 5 4 6 -4 9 -12 6 -17 -10 -16
13 -10 31 9 17 16 18 16 11 -1 -4 -10 -3 -16 2 -13 4 3 17 -1 27 -10 18 -14
18 -15 -2 -5 -20 10 -34 6 -34 -9 0 -4 6 -7 13 -8 24 -2 47 -8 53 -15 4 -3 16
-2 27 4 14 8 18 8 13 0 -4 -6 -3 -11 1 -11 5 0 14 10 22 21 12 20 11 21 -6 14
-47 -19 -69 -13 -64 18 1 5 -4 5 -10 1 -9 -5 -10 -2 -5 11 5 14 4 15 -7 7 -10
-8 -16 -6 -25 9 -11 17 -16 18 -28 9 -11 -10 -17 -10 -29 0 -8 7 -15 9 -15 5
0 -4 -7 -2 -16 6 -13 10 -17 10 -24 0 -5 -9 -10 -10 -14 -2 -4 6 -5 15 -1 20
9 15 -32 33 -52 23 -21 -10 -33 -10 -50 1 -7 5 -13 5 -13 0 0 -4 -4 -2 -9 5
-6 10 -10 10 -20 -1z m-89 -39 c-9 -9 -9 -15 1 -27 9 -11 9 -13 0 -8 -7 5 -21
-1 -32 -12 -15 -15 -21 -17 -25 -6 -3 8 -1 17 5 20 5 4 7 11 4 16 -4 5 -1 9 4
9 6 0 11 -4 11 -10 0 -5 5 -10 12 -10 6 0 8 3 5 7 -7 6 10 33 21 33 3 0 1 -5
-6 -12z m292 -21 c4 4 4 -1 0 -10 -3 -10 -7 -17 -8 -15 -1 2 -8 12 -16 23 -14
18 -13 19 1 8 9 -7 19 -10 23 -6z m-304 -31 c0 -3 -4 -8 -10 -11 -5 -3 -10 -1
-10 4 0 6 5 11 10 11 6 0 10 -2 10 -4z m80 -6 c0 -5 -2 -10 -4 -10 -3 0 -8 5
-11 10 -3 6 -1 10 4 10 6 0 11 -4 11 -10z"/>
<path d="M1938 1593 c0 -5 -2 -12 -3 -18 -2 -5 -3 -16 -4 -23 0 -7 -5 -11 -10
-8 -5 3 -14 -1 -21 -9 -7 -8 -18 -15 -24 -15 -7 0 -6 3 2 9 11 6 11 10 0 17
-17 13 -38 12 -39 -1 0 -5 -5 -16 -11 -23 -15 -18 0 -28 22 -15 14 10 19 9 24
-2 3 -8 1 -17 -5 -20 -5 -4 -7 -10 -4 -15 7 -11 -15 -18 -45 -14 -14 1 -25 3
-25 4 0 1 -17 6 -47 13 -7 1 -19 6 -27 11 -11 7 -11 10 0 17 8 4 -2 6 -24 5
-20 -2 -43 -9 -51 -15 -21 -18 -40 -4 -21 15 19 20 19 31 0 31 -8 0 -15 -4
-15 -8 0 -4 -13 -7 -30 -7 -33 1 -37 7 -17 27 6 7 8 12 2 11 -5 -2 -12 -1 -15
0 -19 7 -41 7 -46 -1 -3 -5 -11 -6 -17 -2 -7 3 -4 -2 5 -13 13 -15 14 -23 6
-39 -6 -11 -7 -17 -3 -13 4 4 16 3 26 -3 14 -7 17 -6 13 4 -3 8 2 14 10 14 11
0 13 -5 5 -18 -12 -24 -11 -39 2 -17 6 11 16 15 27 11 15 -6 15 -5 3 10 -8 10
-11 20 -7 24 3 3 6 1 6 -6 0 -9 6 -9 23 -1 21 11 21 10 3 -4 -14 -12 -16 -16
-5 -16 11 0 11 -2 1 -9 -11 -7 -10 -9 3 -14 10 -5 14 -3 9 5 -4 7 -3 8 5 4 9
-6 9 -11 0 -22 -7 -8 -7 -14 -1 -14 11 0 31 22 29 32 -1 3 2 10 6 15 5 4 7 2
5 -6 -2 -9 6 -16 17 -18 15 -3 16 -2 7 5 -11 7 -10 11 4 16 9 3 19 4 22 1 3
-3 -1 -5 -9 -5 -10 -1 -9 -4 4 -11 9 -6 15 -14 12 -20 -11 -16 7 -10 22 9 13
16 13 16 11 -3 -2 -14 3 -20 19 -21 16 -1 20 3 15 15 -5 14 -3 13 12 -1 18
-18 42 -25 32 -10 -3 5 8 8 24 7 22 -1 27 2 25 17 -2 10 1 18 7 18 5 0 7 -7 4
-15 -3 -9 1 -18 8 -21 8 -3 13 -16 11 -29 -2 -21 0 -23 17 -14 18 10 18 12 4
28 -15 16 -15 19 3 35 12 11 21 13 24 6 3 -6 4 -5 3 2 -2 7 -8 12 -14 11 -6
-2 -10 6 -9 17 1 19 10 25 32 20 6 -1 7 2 3 5 -4 4 -3 16 2 25 7 14 6 17 -8
16 -11 -1 -16 5 -14 17 3 16 -6 26 -10 10z m-421 -39 c-3 -4 2 -14 11 -23 10
-9 16 -15 13 -14 -2 2 -10 -2 -18 -8 -9 -9 -13 -8 -13 0 0 6 6 11 13 11 6 0 4
5 -6 11 -15 9 -16 29 0 29 4 0 4 -3 0 -6z m353 -14 c0 -12 -30 -33 -37 -26 -3
3 -1 6 6 6 7 0 11 6 8 13 -3 8 1 14 9 14 8 0 14 -4 14 -7z m54 -17 c-13 -10
-14 -13 -3 -14 10 0 11 -2 1 -6 -9 -3 -10 -9 -2 -18 7 -9 6 -16 -5 -25 -9 -8
-15 -9 -13 -4 1 5 -3 19 -10 31 -11 19 -10 22 3 17 9 -4 15 -3 14 2 -4 21 2
31 17 31 14 0 14 -2 -2 -14z m-154 -73 c0 -5 -5 -10 -11 -10 -5 0 -7 5 -4 10
3 6 8 10 11 10 2 0 4 -4 4 -10z"/>
<path d="M3134 1558 c-3 -5 -18 -6 -34 -3 -16 3 -31 1 -35 -5 -3 -5 -12 -7
-19 -4 -8 3 -17 1 -21 -5 -4 -8 -12 -8 -26 -1 -10 6 -19 7 -19 3 0 -4 -4 -2
-9 5 -6 11 -13 8 -28 -12 -11 -14 -23 -22 -27 -19 -3 3 -6 1 -6 -6 0 -7 7 -11
15 -8 8 4 17 2 20 -3 4 -6 11 -10 17 -10 6 0 3 9 -7 20 -10 11 -16 21 -14 21
17 6 48 5 44 -1 -2 -4 6 -6 20 -5 16 2 22 -1 19 -10 -3 -7 0 -16 7 -21 7 -4
10 -3 5 4 -3 6 -1 14 5 18 8 4 7 9 -2 15 -10 6 -7 8 9 6 12 0 22 -5 22 -10 0
-4 5 -5 11 -1 8 4 7 9 -2 15 -10 6 -7 8 8 6 17 -1 19 -4 11 -14 -11 -13 3 -19
16 -6 13 13 43 12 43 -1 0 -8 -5 -12 -12 -10 -6 3 -11 -5 -12 -17 -1 -14 2
-18 10 -11 26 20 53 9 48 -20 -2 -14 11 -9 25 10 12 15 13 15 8 0 -3 -10 2
-20 15 -28 12 -6 21 -7 20 -3 -1 4 -1 15 0 23 1 13 2 13 11 0 5 -8 10 -11 10
-7 0 4 10 3 23 -3 22 -11 22 -11 2 5 -19 16 -19 16 -1 13 10 -2 21 2 23 9 2 7
-3 10 -14 8 -10 -2 -18 -4 -18 -5 0 -1 -12 -4 -28 -6 -19 -2 -25 1 -21 9 4 7
3 9 -1 4 -5 -4 -19 0 -31 8 -16 10 -25 11 -30 4 -4 -8 -9 -7 -15 2 -4 7 -5 18
-1 24 13 20 9 31 -10 31 -11 0 -22 -4 -24 -8z m111 -88 c3 -5 1 -10 -4 -10 -6
0 -11 5 -11 10 0 6 2 10 4 10 3 0 8 -4 11 -10z"/>
<path d="M3356 1562 c-3 -6 -15 -9 -26 -7 -19 4 -19 3 -3 -22 17 -26 17 -26
-5 -14 -18 10 -21 9 -16 -3 3 -9 9 -15 12 -14 29 3 35 -3 20 -19 -9 -10 -13
-23 -11 -30 3 -7 -4 -11 -16 -10 -12 1 -21 4 -21 7 0 4 -6 7 -13 7 -8 0 -13
-12 -13 -29 0 -28 10 -37 21 -18 3 6 1 10 -5 10 -6 0 -8 5 -4 11 4 8 9 7 15
-2 7 -11 9 -11 9 1 0 12 2 12 9 1 6 -10 10 -10 16 -1 5 8 11 6 20 -7 10 -14
16 -15 25 -6 15 14 3 36 -15 30 -20 -8 -12 26 12 50 12 12 25 18 28 13 4 -6 1
-10 -6 -10 -7 0 -5 -9 7 -22 15 -19 16 -20 2 -9 -13 9 -18 10 -18 2 0 -6 7
-14 16 -18 13 -5 13 -7 2 -14 -11 -8 -11 -10 0 -18 11 -7 10 -9 -3 -15 -9 -3
-13 -11 -9 -17 4 -8 9 -7 16 2 8 11 9 11 5 -1 -2 -8 -12 -13 -22 -12 -16 3
-17 1 -6 -12 7 -8 10 -20 6 -27 -6 -8 -2 -8 12 -1 17 10 19 8 18 -16 -2 -15
-6 -36 -10 -47 -4 -12 -3 -15 2 -8 6 8 13 7 28 -4 20 -15 20 -15 0 -9 -18 5
-21 1 -21 -29 0 -19 4 -35 9 -35 5 0 7 7 3 15 -3 8 -1 15 5 15 6 0 8 4 5 9 -3
5 1 12 9 15 14 5 14 9 0 37 -15 29 -15 32 2 46 10 8 13 12 7 9 -7 -3 -17 1
-24 9 -7 8 -16 12 -21 9 -5 -3 -6 2 -3 10 3 9 9 14 13 11 10 -5 7 27 -3 43 -4
7 -4 18 1 25 10 15 10 38 0 54 -4 7 -1 23 7 36 14 21 14 23 -4 23 -13 0 -16
-4 -9 -12 7 -8 6 -14 -1 -19 -14 -8 -30 3 -39 28 -5 13 -10 16 -15 9z m18 -30
c2 -4 0 -14 -5 -22 -8 -13 -10 -13 -18 0 -10 15 -6 30 9 30 5 0 11 -4 14 -8z
m-4 -102 c0 -5 -4 -10 -10 -10 -5 0 -10 5 -10 10 0 6 5 10 10 10 6 0 10 -4 10
-10z m64 -146 c3 -8 2 -12 -4 -9 -6 3 -10 10 -10 16 0 14 7 11 14 -7z"/>
<path d="M1459 1528 c11 -15 11 -21 1 -33 -10 -12 -10 -19 -2 -27 9 -9 12 -9
12 1 0 7 5 9 11 5 8 -4 7 -9 -2 -15 -20 -12 -1 -11 22 2 19 10 20 9 9 -13 -11
-22 -11 -22 5 -3 16 19 16 19 13 1 -2 -10 3 -21 10 -23 7 -3 11 1 10 7 -2 7 4
15 12 17 12 4 12 3 1 -5 -9 -7 -10 -12 -2 -16 6 -4 11 -2 11 5 0 8 3 9 13 0 8
-6 18 -7 22 -3 5 4 5 2 1 -5 -4 -7 -14 -9 -24 -6 -14 5 -15 3 -5 -7 18 -20 43
-21 36 -3 -5 12 -1 14 18 8 16 -4 20 -3 10 3 -9 7 -10 12 -2 16 6 4 11 2 11
-3 0 -6 3 -10 8 -10 20 3 28 -3 29 -22 1 -12 -3 -19 -10 -16 -7 2 -10 12 -9
22 3 16 1 17 -12 6 -8 -7 -20 -10 -25 -6 -6 3 -8 0 -5 -8 2 -7 10 -14 17 -15
7 -1 24 -3 40 -6 15 -2 25 0 22 5 -4 5 2 6 11 2 12 -4 15 -2 12 8 -3 8 -13 13
-23 11 -10 -2 -14 1 -10 7 8 14 35 14 35 0 0 -5 4 -8 9 -4 6 3 19 -5 31 -17
15 -16 21 -18 20 -8 -4 26 0 40 9 40 6 0 8 -8 6 -18 -2 -11 3 -19 11 -19 13 0
18 11 15 30 -1 7 15 11 32 8 4 0 7 4 7 10 0 7 -7 8 -17 4 -23 -10 -95 -14
-108 -6 -5 3 -17 6 -25 6 -8 0 -14 6 -12 14 2 9 -3 11 -13 7 -8 -3 -22 -9 -32
-13 -12 -5 -14 -3 -8 8 5 8 -1 6 -13 -4 -19 -18 -48 -16 -37 2 2 5 -7 13 -21
20 -14 6 -23 7 -20 2 11 -18 -21 -19 -37 -1 -10 12 -26 17 -43 15 -25 -2 -26
-1 -11 10 16 11 15 14 -5 31 -19 16 -20 16 -9 2z m135 -84 c5 -14 4 -15 -9 -4
-17 14 -19 20 -6 20 5 0 12 -7 15 -16z m101 -14 c3 -6 -1 -7 -9 -4 -18 7 -21
14 -7 14 6 0 13 -4 16 -10z"/>
<path d="M2784 1522 c11 -12 15 -22 9 -22 -15 0 -11 -43 4 -48 7 -2 16 4 19
13 5 13 9 14 15 3 7 -11 11 -10 19 2 8 12 10 12 10 1 0 -9 4 -10 13 -4 16 14
50 13 59 -1 5 -7 8 -6 8 4 0 13 1 13 10 0 8 -12 11 -13 19 -1 7 11 9 11 14 0
4 -10 6 -10 6 -1 1 6 6 12 13 12 6 0 3 -9 -7 -20 -10 -11 -13 -20 -7 -20 6 0
17 9 25 20 12 17 16 18 20 6 4 -9 2 -18 -3 -21 -17 -11 -11 -24 19 -39 26 -14
30 -14 42 0 11 13 9 14 -15 10 -14 -3 -24 -1 -21 4 3 5 1 19 -5 31 -11 19 -10
20 10 9 15 -8 20 -8 16 -1 -4 6 -9 20 -11 31 -3 17 -1 18 14 10 10 -5 21 -6
25 -3 5 6 10 -12 7 -29 0 -5 4 -8 10 -8 6 0 8 -8 5 -17 -5 -15 -4 -15 9 1 8
11 15 25 15 30 0 6 5 4 10 -4 8 -13 10 -12 10 3 0 21 -16 22 -28 1 -8 -15 -10
-15 -15 -1 -3 9 -4 26 -2 38 4 21 4 21 -15 4 -11 -10 -20 -14 -20 -8 0 6 -10
9 -22 8 -31 -3 -30 -2 -18 -26 11 -19 10 -20 -9 -10 -11 6 -24 19 -30 29 -5 9
-13 13 -17 9 -5 -5 -3 -12 5 -16 10 -6 9 -10 -5 -15 -10 -4 -15 -4 -12 0 10 9
-10 44 -24 44 -6 0 -3 -9 6 -19 20 -22 4 -40 -18 -22 -7 6 -16 8 -20 4 -4 -4
-16 3 -26 16 -10 14 -25 26 -34 27 -12 2 -14 -1 -8 -9 15 -19 10 -43 -10 -44
-10 -1 -23 6 -30 15 -7 9 -22 24 -33 32 -20 15 -20 14 -1 -8z m117 -29 c12
-16 12 -17 -2 -6 -9 7 -20 9 -24 5 -5 -4 -5 -1 -1 6 9 16 11 15 27 -5z m-96
-23 c3 -5 1 -10 -4 -10 -6 0 -11 5 -11 10 0 6 2 10 4 10 3 0 8 -4 11 -10z
m245 -40 c0 -5 -4 -10 -10 -10 -5 0 -10 5 -10 10 0 6 5 10 10 10 6 0 10 -4 10
-10z"/>
<path d="M1270 1512 c0 -24 -2 -27 -16 -35 -14 -8 -14 -11 0 -26 18 -20 15
-56 -5 -56 -31 -1 -40 -15 -24 -39 8 -12 12 -25 9 -28 -3 -4 0 -17 8 -30 7
-12 13 -30 13 -38 0 -9 10 -15 28 -16 26 -1 34 6 21 19 -4 3 -15 2 -26 -4 -18
-9 -18 -8 -8 10 10 19 7 25 -12 22 -4 0 -4 7 -1 16 5 12 3 14 -8 8 -12 -8 -12
-6 0 8 9 12 10 17 2 17 -7 0 -9 5 -6 10 3 6 1 10 -5 10 -6 0 -8 5 -4 11 4 8
11 4 19 -11 10 -19 13 -20 18 -6 4 10 3 15 -1 12 -5 -3 -9 1 -9 8 0 8 6 12 14
9 11 -4 12 2 8 28 -3 22 -2 29 4 20 6 -9 11 -10 15 -2 4 6 3 11 -2 11 -5 0 -9
6 -10 13 -2 36 -22 89 -22 59z m13 -47 c9 -21 -9 -27 -24 -8 -10 12 -10 14 -1
9 6 -4 12 -2 12 3 0 16 7 13 13 -4z"/>
<path d="M1372 1489 c-13 -16 -31 -28 -40 -27 -10 2 -17 -4 -17 -12 0 -8 -5
-22 -10 -30 -5 -8 -10 -21 -11 -30 -1 -8 -3 -19 -5 -25 -2 -5 1 -11 6 -12 6
-1 9 4 7 12 -1 7 2 16 7 20 6 3 8 12 4 20 -3 8 0 15 7 15 6 0 9 -4 5 -9 -8
-14 15 -25 27 -13 7 7 6 16 -1 29 -11 16 -11 16 -6 -4 4 -15 2 -23 -6 -23 -7
0 -9 3 -6 6 3 4 2 15 -3 25 -8 15 -7 17 10 14 31 -6 40 -14 33 -33 -6 -15 -5
-15 10 -4 9 8 21 11 26 7 7 -3 8 0 5 9 -3 9 -9 14 -13 12 -4 -3 -13 -1 -20 3
-9 6 -10 11 -2 15 6 4 11 2 11 -4 0 -6 5 -8 11 -4 8 4 7 9 -2 15 -7 4 -10 11
-6 16 5 4 12 1 17 -7 8 -13 10 -13 10 -1 0 8 3 11 6 8 4 -4 2 -12 -4 -19 -8
-10 -4 -17 19 -30 27 -16 29 -16 26 1 -2 16 -61 92 -69 90 -2 0 -14 -13 -26
-30z m43 1 c3 -5 0 -7 -9 -4 -8 3 -19 -3 -26 -15 -6 -12 -15 -21 -20 -21 -6 0
0 11 12 25 23 27 33 31 43 15z m35 -40 c0 -5 -5 -10 -11 -10 -5 0 -7 5 -4 10
3 6 8 10 11 10 2 0 4 -4 4 -10z"/>
<path d="M3075 1482 c6 -4 11 -15 13 -26 3 -13 -1 -17 -12 -13 -10 4 -13 1 -9
-9 4 -10 9 -12 18 -4 9 8 14 7 18 -4 6 -16 -26 -50 -37 -39 -4 4 -4 0 0 -10 3
-9 10 -17 16 -17 5 0 6 5 2 12 -5 7 -3 8 6 3 10 -6 9 -11 -5 -22 -16 -11 -17
-13 -3 -13 9 0 20 5 23 10 3 6 12 10 18 10 7 0 6 -4 -3 -10 -9 -6 -10 -10 -3
-10 6 0 14 4 17 8 5 9 -8 34 -18 33 -20 -3 -26 0 -20 10 4 8 9 7 16 -2 7 -10
8 -9 4 6 -6 19 -5 19 8 2 14 -18 15 -17 21 3 5 16 12 19 28 15 19 -5 19 -4 -3
10 l-25 16 24 -7 c13 -3 21 -2 18 3 -3 5 3 9 14 9 18 0 19 -2 4 -12 -9 -7 -12
-15 -6 -18 5 -4 12 -2 16 3 3 6 12 8 21 4 13 -5 12 -7 -2 -18 -21 -14 -11 -34
15 -32 14 1 17 5 11 17 -8 15 -10 22 -10 41 0 5 -4 8 -9 5 -5 -4 -11 -1 -13 6
-7 20 -71 17 -86 -4 -16 -22 -36 -24 -29 -3 4 8 2 17 -4 20 -5 4 -7 10 -4 15
3 4 -2 11 -11 14 -21 8 -31 7 -19 -2z m175 -86 c0 -3 -4 -8 -10 -11 -5 -3 -10
-1 -10 4 0 6 5 11 10 11 6 0 10 -2 10 -4z"/>
<path d="M3363 1483 c-19 -7 -16 -16 10 -32 20 -13 21 -13 9 2 -8 9 -11 21 -7
27 7 11 6 11 -12 3z"/>
<path d="M2755 1470 c3 -5 8 -10 11 -10 2 0 4 5 4 10 0 6 -5 10 -11 10 -5 0
-7 -4 -4 -10z"/>
<path d="M2875 1459 c-3 -4 -16 -6 -30 -5 -25 3 -69 -29 -60 -44 3 -4 -1 -11
-7 -13 -9 -4 -9 -8 -3 -14 15 -12 17 -34 4 -49 -11 -13 -2 -19 24 -15 7 1 11
-15 8 -31 0 -5 4 -8 9 -8 6 0 10 -6 10 -14 0 -7 6 -19 14 -26 20 -16 12 -33
-25 -49 -16 -7 -28 -18 -26 -24 6 -18 47 -15 58 4 7 15 6 17 -6 13 -8 -3 -12
-11 -8 -17 4 -6 1 -7 -7 -2 -10 6 -9 11 5 21 14 10 22 11 32 3 14 -12 43 4 43
23 0 6 -7 5 -15 -2 -9 -7 -19 -10 -22 -6 -11 10 -12 37 -2 31 5 -4 6 1 3 9 -3
9 -10 14 -15 11 -4 -3 -13 4 -19 15 -6 11 -8 20 -4 20 4 0 -1 9 -11 20 -10 11
-22 17 -27 14 -6 -4 -5 3 1 15 7 11 8 21 3 21 -4 0 -8 9 -9 20 -1 11 3 20 8
20 6 0 8 -4 5 -8 -2 -4 -1 -14 3 -21 6 -9 11 -10 15 -2 4 5 -2 19 -12 29 -15
15 -16 20 -5 31 9 8 13 9 13 0 0 -8 4 -8 15 1 12 10 15 10 15 -1 0 -11 2 -11
10 1 9 13 10 13 10 0 1 -12 2 -12 10 2 6 9 18 15 28 13 9 -2 21 -4 26 -4 4 -1
5 -9 1 -18 -4 -10 -8 -24 -8 -30 0 -7 -5 -13 -10 -13 -6 0 -8 -2 -5 -5 12 -12
36 8 33 26 -3 16 -1 18 17 8 16 -9 19 -8 13 2 -6 8 -4 10 4 4 10 -6 11 -3 2
12 -6 11 -8 22 -6 25 3 3 -5 4 -18 3 -12 -1 -26 0 -32 3 -15 9 -45 10 -50 1z
m95 -30 c0 -14 -17 -10 -23 5 -4 10 -1 13 9 9 7 -3 14 -9 14 -14z"/>
<path d="M3006 1441 c-15 -16 -15 -19 -2 -24 10 -4 13 -13 9 -24 -5 -14 -3
-16 7 -6 11 10 11 15 0 28 -10 12 -10 18 0 30 18 22 6 18 -14 -4z"/>
<path d="M1481 1441 c-10 -6 -10 -10 -1 -16 9 -6 9 -9 -1 -15 -7 -5 -23 -1
-38 8 -15 11 -22 12 -17 4 4 -7 2 -20 -6 -29 -7 -9 -8 -14 -2 -10 7 4 19 -5
29 -19 14 -21 19 -24 26 -13 5 8 9 10 9 6 0 -4 9 -3 21 3 17 9 23 8 35 -7 7
-10 14 -13 14 -7 1 29 -35 37 -82 19 -20 -8 -25 10 -6 21 7 4 8 3 4 -4 -5 -8
-1 -10 9 -5 13 5 14 7 3 14 -7 5 -8 9 -3 10 6 0 21 2 35 5 20 3 22 2 10 -7
-13 -9 -12 -10 3 -5 10 3 16 2 13 -2 -5 -9 2 -11 49 -14 18 -2 21 -5 14 -14
-6 -8 -6 -14 -1 -18 6 -3 12 1 16 9 5 14 36 11 34 -3 -2 -20 3 -32 12 -27 5 3
7 13 4 23 -5 15 -4 15 6 2 9 -12 13 -12 17 -2 4 10 9 9 19 -5 13 -17 15 -17
29 1 8 10 12 23 8 28 -3 6 4 5 15 -1 11 -6 23 -16 25 -23 4 -10 6 -10 6 1 1
11 4 11 18 0 15 -12 16 -12 11 3 -5 12 -1 16 16 14 19 -2 23 1 20 18 -3 12 -1
15 2 8 5 -10 10 -9 21 5 8 10 12 12 8 5 -4 -7 -2 -19 5 -27 9 -10 7 -16 -7
-24 -15 -9 -16 -10 -2 -11 18 0 42 23 33 32 -2 3 1 8 8 11 8 3 14 -2 14 -13 0
-10 -5 -16 -11 -14 -5 3 -2 -1 8 -9 12 -10 14 -17 8 -22 -6 -3 -11 -1 -11 5 0
6 -5 8 -11 4 -6 -4 -7 -9 -2 -13 14 -9 13 -48 -1 -48 -7 0 -12 10 -10 23 1 17
-3 22 -17 21 -23 -2 -25 -13 -4 -21 13 -5 14 -10 5 -27 -11 -19 -10 -20 7 -11
13 8 22 7 35 -4 15 -14 16 -12 13 25 -2 23 1 43 6 47 5 3 5 13 -1 24 -11 20 2
36 19 25 6 -3 15 5 21 17 10 21 10 21 -3 5 -13 -15 -15 -16 -21 -2 -5 14 -9
14 -35 0 -36 -18 -42 -19 -40 -2 1 6 1 21 0 32 -2 19 -2 19 -12 2 -6 -9 -14
-15 -18 -13 -5 3 -13 -6 -20 -21 -6 -14 -14 -23 -18 -20 -3 4 -13 2 -23 -3
-13 -7 -22 -4 -35 10 -16 18 -19 18 -30 3 -12 -16 -85 -28 -85 -14 0 4 -6 8
-12 9 -31 2 -48 9 -68 27 -14 12 -20 14 -20 5 0 -10 -4 -9 -17 2 -10 9 -24 13
-32 10 -10 -3 -12 0 -8 12 7 18 7 19 -12 7z m-27 -52 c-3 -5 -10 -7 -15 -3 -5
3 -7 10 -3 15 3 5 10 7 15 3 5 -3 7 -10 3 -15z m121 1 c3 -6 -1 -7 -9 -4 -18
7 -21 14 -7 14 6 0 13 -4 16 -10z m159 -35 c-4 -8 -11 -12 -16 -9 -6 4 -5 10
3 15 19 12 19 11 13 -6z"/>
<path d="M2887 1427 c-3 -9 -18 -13 -43 -11 -33 2 -36 0 -21 -10 9 -7 14 -16
10 -19 -3 -4 -1 -7 6 -7 7 0 11 6 8 13 -3 8 1 14 8 14 7 0 11 -7 8 -16 -3 -10
3 -7 15 7 12 13 23 18 27 12 3 -5 2 -10 -3 -10 -5 0 -9 -6 -9 -12 0 -7 -2 -19
-4 -27 -2 -7 1 -15 7 -17 5 -3 10 6 11 18 0 31 6 52 17 59 4 4 3 10 -3 13 -6
4 -11 1 -11 -6 0 -11 -2 -10 -9 0 -7 11 -9 11 -14 -1z"/>
<path d="M3216 1411 c-4 -5 -17 -8 -31 -6 -28 3 -45 -18 -38 -45 5 -19 -22
-34 -39 -23 -7 4 -8 1 -3 -7 6 -10 4 -12 -7 -7 -9 3 -20 1 -25 -4 -7 -7 -10
-3 -8 13 1 13 -4 33 -10 46 -10 19 -14 20 -24 9 -8 -11 -7 -20 7 -38 11 -13
17 -30 15 -36 -3 -7 -1 -13 4 -13 5 0 15 6 22 13 8 6 11 7 8 2 -3 -6 3 -11 13
-11 10 0 17 3 14 7 -2 4 3 9 11 12 10 4 12 1 8 -11 -6 -15 -5 -15 10 -3 10 8
15 16 13 19 -10 9 15 43 26 36 7 -5 9 -2 5 9 -3 9 -1 19 5 23 7 4 8 3 4 -4 -4
-7 -2 -12 5 -12 8 0 7 -5 -2 -17 -10 -11 -10 -14 -1 -9 6 4 12 3 12 -3 0 -5
-6 -12 -12 -14 -10 -4 -10 -6 0 -6 7 -1 15 6 19 15 5 13 7 13 14 2 7 -11 11
-10 19 2 6 9 10 11 10 3 0 -7 10 -17 21 -24 15 -8 19 -8 15 0 -4 6 -2 11 5 11
8 0 8 4 -1 15 -8 9 -23 13 -40 10 -35 -6 -59 17 -40 40 7 8 10 15 7 15 -3 0
-8 -4 -11 -9z m-55 -34 c-10 -9 -11 -8 -5 6 3 10 9 15 12 12 3 -3 0 -11 -7
-18z m-110 -14 c13 -16 12 -17 -3 -4 -17 13 -22 21 -14 21 2 0 10 -8 17 -17z
m239 -13 c0 -5 -4 -10 -10 -10 -5 0 -10 5 -10 10 0 6 5 10 10 10 6 0 10 -4 10
-10z"/>
<path d="M3286 1402 c-13 -13 -12 -17 9 -34 l25 -19 -20 -39 c-17 -34 -18 -39
-4 -51 13 -10 14 -9 11 12 -4 20 0 24 20 25 19 2 23 -2 18 -15 -5 -12 -3 -13
6 -4 16 16 1 35 -23 27 -15 -4 -19 -2 -16 7 3 8 13 12 23 11 15 -3 16 -1 8 10
-6 7 -10 21 -10 30 0 20 24 32 24 12 0 -8 -4 -14 -9 -14 -18 0 -7 -16 12 -17
21 -2 27 12 9 22 -6 5 -4 16 7 33 16 24 16 26 1 13 -12 -9 -21 -10 -29 -4 -18
14 -45 12 -62 -5z m60 -4 c4 -7 3 -8 -4 -4 -11 6 -16 -6 -13 -26 2 -15 -14 -8
-27 12 -7 12 -8 20 -2 20 5 0 10 -6 10 -12 0 -7 5 -5 11 5 12 20 15 21 25 5z"/>
<path d="M1385 1400 c-4 -6 -10 -8 -15 -5 -5 3 -12 0 -15 -6 -4 -5 -13 -8 -21
-5 -19 7 -30 -14 -13 -25 18 -12 32 -11 24 0 -3 5 0 13 6 17 8 4 9 3 5 -4 -6
-11 6 -16 27 -13 4 0 7 -3 7 -7 0 -5 7 -9 15 -10 8 -1 22 -3 30 -4 8 -1 15 -6
15 -11 0 -5 -8 -6 -17 -3 -15 5 -15 4 1 -9 24 -18 37 -19 34 -3 -2 7 7 13 19
14 15 1 20 -3 16 -15 -2 -9 3 -5 12 9 13 21 15 22 13 5 -2 -11 -7 -23 -13 -27
-6 -5 -5 -8 2 -8 7 0 17 9 23 20 8 15 18 19 37 15 15 -2 33 1 40 7 12 10 18 0
14 -24 0 -5 4 -8 9 -8 13 0 12 10 -4 39 -11 19 -14 21 -19 7 -4 -9 -13 -13
-22 -10 -10 4 -14 13 -10 22 3 9 3 13 -1 10 -4 -4 -16 -2 -28 4 -21 11 -21 10
-3 -10 23 -26 1 -37 -27 -13 -13 11 -17 11 -11 2 5 -9 3 -12 -6 -9 -8 3 -22 1
-31 -3 -12 -7 -22 -2 -36 16 -12 15 -23 21 -27 15 -3 -5 -12 -10 -18 -10 -8 0
-8 3 -2 8 14 10 18 42 6 42 -5 0 -13 -5 -16 -10z m5 -20 c-13 -24 -16 -25 -24
-4 -3 8 -2 12 3 9 5 -3 12 -1 16 5 11 19 16 10 5 -10z"/>
<path d="M2987 1403 c-4 -3 -2 -12 5 -20 9 -11 7 -12 -8 -6 -17 6 -17 5 -6
-10 8 -9 11 -21 7 -28 -5 -8 -1 -8 15 1 15 8 20 8 16 1 -4 -6 -4 -17 1 -23 4
-7 8 -19 9 -26 3 -17 36 -54 42 -47 3 2 -1 11 -8 20 -7 8 -9 15 -5 15 4 0 2 7
-5 15 -7 9 -10 18 -7 22 4 3 -5 19 -19 36 -14 16 -23 36 -20 43 6 14 -6 19
-17 7z"/>
<path d="M2951 1393 c3 -17 -1 -33 -8 -32 -17 3 -33 -1 -32 -8 1 -5 1 -14 0
-22 -1 -12 -4 -12 -18 1 -10 8 -28 13 -40 12 -13 0 -23 3 -23 8 0 5 6 8 13 7
24 -3 35 1 41 17 4 10 2 13 -7 7 -6 -4 -18 -8 -26 -10 -8 -1 -21 -9 -29 -17
-14 -14 -14 -18 5 -38 21 -22 23 -26 23 -49 0 -5 4 -8 9 -4 6 3 15 -4 22 -16
9 -17 8 -23 -2 -30 -10 -6 -10 -9 -2 -9 7 0 16 7 21 16 8 15 10 14 16 -1 8
-22 -22 -58 -41 -50 -8 3 -11 0 -8 -6 4 -5 2 -15 -3 -22 -10 -13 -12 -46 -3
-45 22 2 30 -4 24 -19 -7 -19 -5 -18 17 11 8 11 10 17 5 14 -6 -4 -17 -2 -25
3 -12 8 -11 9 4 7 10 -2 21 2 23 9 3 7 -6 10 -22 8 -20 -2 -23 0 -14 9 7 6 19
18 27 26 12 13 13 13 8 -2 -6 -20 8 -31 44 -34 21 -3 22 -1 7 7 -9 6 -21 8
-26 4 -5 -3 -13 0 -17 6 -4 7 -3 9 3 6 5 -3 10 0 10 8 0 8 -4 15 -9 15 -5 0
-6 5 -2 11 4 8 9 7 16 -2 6 -10 7 -6 3 10 -6 20 -4 23 10 17 15 -5 16 -4 5 9
-9 11 -15 13 -20 5 -10 -16 -21 15 -14 38 5 13 4 14 -4 3 -6 -8 -12 -9 -16 -3
-3 5 1 12 9 16 8 3 12 12 9 19 -3 8 2 17 11 21 9 3 18 0 21 -9 4 -8 10 -15 16
-15 5 0 6 5 2 11 -5 8 -1 8 13 0 11 -6 24 -7 28 -3 5 4 5 2 1 -5 -4 -7 -12
-10 -20 -7 -7 3 -13 -2 -13 -11 0 -11 6 -14 21 -9 17 4 18 3 6 -5 -8 -6 -24
-8 -35 -5 -16 4 -17 3 -5 -5 8 -6 22 -8 31 -6 11 4 20 -4 28 -24 7 -16 19 -28
27 -27 18 3 31 16 15 16 -7 0 -10 4 -7 9 3 4 -6 19 -20 32 -13 12 -22 29 -20
36 8 19 -14 29 -75 35 -9 1 -15 8 -12 15 4 9 9 9 23 0 22 -13 39 -2 23 14 -6
6 -9 18 -6 25 3 8 0 14 -6 14 -6 0 -10 -3 -10 -7z m-86 -63 c5 8 11 8 20 0 14
-11 14 -27 2 -47 -4 -6 -3 -14 3 -18 5 -3 10 -10 10 -15 0 -5 -10 1 -23 13
-13 12 -22 25 -20 29 2 4 -7 17 -19 29 -23 21 -23 21 -1 10 15 -8 24 -8 28 -1z
m185 -94 c0 -3 -4 -8 -10 -11 -5 -3 -10 -1 -10 4 0 6 5 11 10 11 6 0 10 -2 10
-4z"/>
<path d="M2864 1319 c-4 -7 -2 -15 4 -17 7 -2 9 -9 6 -14 -4 -6 -2 -8 4 -5 10
7 11 32 0 42 -3 4 -9 1 -14 -6z"/>
<path d="M1866 1364 c-3 -8 -11 -12 -17 -8 -6 3 -15 1 -19 -7 -5 -7 -21 -14
-37 -15 -15 -1 -39 -5 -52 -8 -14 -3 -30 -1 -37 5 -10 8 -20 4 -38 -16 -14
-15 -30 -24 -36 -20 -6 3 -8 10 -5 15 3 4 -6 7 -20 6 -14 0 -23 -5 -21 -11 2
-5 9 -9 15 -8 6 2 11 -2 11 -9 0 -6 3 -8 6 -5 4 3 15 2 25 -4 15 -8 24 -5 44
15 15 15 26 20 29 13 3 -8 8 -7 15 3 8 11 11 11 11 2 0 -10 7 -9 30 3 26 13
29 14 24 0 -4 -8 -1 -15 6 -15 6 0 9 4 6 9 -3 5 1 12 9 15 13 4 13 2 5 -14 -7
-12 -7 -21 0 -25 9 -6 14 8 11 28 0 4 4 7 10 7 6 0 8 -8 4 -19 -4 -13 0 -23
12 -30 12 -7 13 -10 4 -11 -10 0 -11 -3 -3 -13 8 -10 6 -13 -11 -14 -12 0 -16
1 -9 4 6 3 10 9 6 14 -3 5 -14 -1 -24 -13 -16 -20 -20 -21 -36 -8 -10 8 -15
10 -11 4 3 -6 0 -11 -8 -11 -17 0 -20 13 -5 20 6 3 5 4 -2 3 -7 -2 -12 -12
-11 -22 1 -18 1 -18 -13 0 -15 21 -31 16 -18 -6 13 -20 13 -38 2 -38 -6 0 -8
7 -4 15 5 13 2 14 -15 4 -19 -10 -20 -9 -9 10 6 12 8 26 5 31 -3 5 -1 11 5 15
5 3 10 12 10 18 0 7 -7 4 -14 -6 -12 -15 -18 -16 -35 -8 -13 7 -22 8 -26 1 -6
-9 7 -14 27 -11 4 0 5 -7 2 -17 -5 -14 -4 -14 5 -2 5 8 13 11 18 7 4 -5 1 -12
-7 -17 -8 -6 -11 -10 -5 -10 5 0 4 -5 -2 -11 -6 -6 -9 -18 -6 -27 4 -10 2 -13
-5 -8 -6 3 -15 -2 -21 -11 -6 -10 -11 -13 -11 -6 0 6 5 15 10 18 6 3 10 14 10
23 -1 15 -2 15 -11 -1 -6 -9 -14 -15 -19 -12 -5 3 -8 -4 -7 -15 2 -25 26 -35
34 -14 5 13 7 13 14 2 7 -10 9 -11 9 0 0 7 5 10 12 6 7 -4 8 -3 4 4 -12 19 3
35 20 21 11 -9 20 -7 41 7 37 24 62 27 70 8 5 -13 10 -11 32 10 26 25 43 28
71 11 9 -5 8 -1 -4 13 -10 12 -23 20 -28 19 -6 -1 -12 6 -13 16 -2 9 2 17 8
17 7 0 4 5 -5 10 -19 12 -18 58 2 70 7 5 8 10 2 14 -5 3 -13 -1 -16 -10z m-11
-34 c3 -6 -1 -7 -9 -4 -18 7 -21 14 -7 14 6 0 13 -4 16 -10z m-155 -3 c0 -2
-12 -14 -27 -28 -20 -18 -24 -19 -13 -4 18 24 40 42 40 32z m165 -37 c3 -5 1
-10 -4 -10 -6 0 -11 5 -11 10 0 6 2 10 4 10 3 0 8 -4 11 -10z m-21 -77 c-9 -7
-21 -10 -26 -7 -14 9 -1 20 22 20 20 0 20 -1 4 -13z m-84 -8 c-7 -8 -17 -15
-23 -15 -6 0 -2 7 9 15 25 19 30 19 14 0z"/>
<path d="M1747 1346 c-4 -10 -1 -13 9 -9 15 6 19 23 5 23 -5 0 -11 -7 -14 -14z"/>
<path d="M3170 1351 c0 -6 1 -13 3 -15 1 -2 -7 -13 -17 -25 -11 -12 -15 -21
-10 -21 5 0 3 -4 -5 -9 -9 -6 -10 -11 -2 -15 6 -4 11 -2 11 3 0 6 3 10 8 10
19 -3 33 2 27 11 -3 5 -13 6 -23 3 -16 -6 -16 -6 0 10 17 18 33 23 24 9 -3 -5
1 -9 9 -9 8 0 15 5 15 11 0 5 7 1 15 -10 14 -18 16 -18 28 -2 8 10 17 15 20
11 4 -3 -1 -12 -11 -20 -9 -8 -11 -11 -3 -7 10 5 12 3 6 -6 -5 -8 -1 -19 11
-28 16 -12 16 -14 2 -9 -10 3 -20 1 -24 -5 -5 -7 -2 -8 6 -3 8 5 11 4 6 -3 -7
-12 47 -45 58 -35 3 4 6 1 6 -6 0 -7 5 -9 11 -5 13 8 -8 23 -43 29 -11 3 -23
7 -27 10 -7 8 44 -1 61 -10 7 -4 4 1 -6 9 -11 9 -15 17 -8 17 7 1 17 3 22 4 6
1 15 3 21 4 5 0 8 5 4 10 -3 5 0 13 6 17 7 4 9 3 5 -4 -3 -5 0 -13 6 -15 9 -4
9 -6 -1 -6 -11 -1 -10 -5 5 -16 13 -10 14 -13 3 -10 -10 4 -16 0 -16 -10 0 -9
6 -14 13 -11 14 6 7 -31 -9 -41 -6 -4 -8 0 -4 10 3 9 3 19 -2 21 -4 3 -8 0 -9
-7 0 -7 -3 -25 -7 -42 l-6 -30 27 30 c14 17 30 29 36 27 5 -1 6 3 1 10 -4 7
-8 24 -8 38 0 14 -4 31 -8 37 -4 7 -3 22 3 33 12 22 5 44 -11 34 -5 -3 -16 -1
-24 6 -15 12 -16 -4 -1 -28 4 -7 2 -19 -4 -27 -16 -19 -34 -19 -27 -1 4 10 1
13 -9 9 -11 -4 -12 -9 -4 -18 16 -20 -11 -26 -32 -7 -14 11 -15 19 -7 35 9 16
8 22 -7 31 -23 13 -45 14 -60 3 -6 -4 -19 -4 -29 -1 -12 5 -13 9 -5 14 9 5 9
9 1 14 -6 4 -11 2 -11 -3z m70 -36 c7 -9 8 -15 2 -15 -5 0 -12 7 -16 15 -3 8
-4 15 -2 15 2 0 9 -7 16 -15z m153 -3 c4 9 6 9 6 1 2 -20 -16 -24 -30 -5 -13
15 -12 16 3 4 13 -10 17 -10 21 0z"/>
<path d="M1305 1340 c-3 -5 -12 -7 -19 -4 -21 8 -28 -12 -10 -30 8 -9 12 -22
8 -28 -4 -7 -4 -10 1 -6 4 4 14 3 22 -4 10 -8 20 -8 39 2 18 10 21 16 12 22
-18 11 -28 10 -25 -3 1 -6 -5 -14 -13 -16 -12 -4 -12 -3 -1 5 8 6 9 12 3 16
-6 3 -12 3 -15 -1 -2 -5 -2 -2 0 5 1 7 -1 11 -6 8 -5 -3 -15 2 -22 11 -12 14
-12 16 1 8 8 -5 28 -10 45 -11 22 -2 26 0 15 8 -12 8 -11 9 3 4 10 -3 22 -6
25 -6 4 0 0 -5 -8 -11 -12 -8 -11 -9 5 -6 11 2 19 9 17 16 -1 7 2 10 8 6 6 -3
8 -10 5 -15 -8 -13 21 -31 41 -24 11 3 15 2 9 -3 -19 -16 -15 -39 7 -40 16 -2
18 1 9 10 -6 6 -11 16 -11 22 0 5 5 3 10 -5 5 -8 10 -10 10 -3 0 13 18 12 39
-2 10 -5 16 -4 19 4 3 8 8 6 18 -6 13 -17 15 -17 29 1 8 11 15 14 15 7 0 -7 4
-10 9 -7 5 3 11 0 14 -8 3 -8 -1 -13 -10 -12 -9 0 -18 -6 -21 -14 -5 -13 -3
-13 13 0 11 9 16 10 11 3 -4 -7 -3 -13 3 -13 5 0 11 5 13 12 3 7 7 5 11 -6 5
-11 3 -15 -5 -10 -6 4 -8 3 -5 -3 4 -6 0 -14 -9 -17 -8 -3 -12 -2 -9 4 3 6 4
10 1 10 -3 0 -10 -9 -16 -21 -11 -19 -10 -20 9 -9 12 6 21 7 21 3 0 -4 5 0 11
9 6 11 16 15 27 11 15 -6 16 -5 2 13 -8 10 -20 22 -27 27 -7 4 -9 15 -6 24 4
11 3 14 -5 9 -7 -4 -23 4 -38 19 l-25 25 -20 -22 -19 -23 -19 23 c-19 22 -32
29 -30 15 5 -29 -3 -32 -35 -11 -19 13 -33 25 -31 29 2 3 -1 6 -8 7 -7 1 -29
4 -49 6 -21 2 -40 0 -43 -4z m25 -4 c0 -3 -4 -8 -10 -11 -5 -3 -10 -1 -10 4 0
6 5 11 10 11 6 0 10 -2 10 -4z m243 -42 c3 -3 3 -12 0 -20 -4 -11 -9 -12 -19
-3 -8 6 -11 15 -8 20 6 10 18 12 27 3z"/>
<path d="M2929 1318 c-6 -16 -4 -76 1 -73 5 3 17 -6 28 -20 12 -15 23 -21 27
-15 3 5 12 10 18 10 9 0 8 -3 -1 -8 -9 -6 -5 -12 13 -20 32 -15 35 -15 35 -2
0 6 -3 9 -7 9 -18 -3 -36 2 -30 7 14 14 -13 41 -37 39 -29 -4 -42 20 -19 34
14 7 13 10 -6 16 -11 3 -19 11 -16 16 4 5 4 9 1 9 -3 0 -6 -1 -7 -2z"/>
<path d="M1761 1300 c-8 -4 -24 -7 -37 -5 -14 1 -31 -6 -41 -19 -18 -21 -18
-21 2 -5 27 22 52 14 31 -10 -15 -16 -15 -18 2 -16 9 0 23 5 30 9 8 5 21 1 32
-9 19 -17 46 -12 35 6 -6 9 9 14 30 9 5 -1 7 1 3 5 -3 4 -10 7 -15 7 -4 0 -19
8 -34 18 -15 12 -30 15 -38 10z m49 -30 c0 -10 -39 -9 -46 1 -3 6 -11 4 -18
-6 -10 -15 -12 -14 -12 3 0 15 6 19 24 16 15 -3 21 -1 17 6 -4 7 2 6 14 -2 12
-7 21 -15 21 -18z"/>
<path d="M1383 1294 c4 -6 -5 -16 -19 -23 -14 -6 -22 -16 -19 -22 4 -6 0 -9
-11 -7 -11 2 -18 -2 -16 -9 1 -7 -2 -13 -7 -13 -5 0 -12 6 -14 13 -4 9 -6 9
-6 -1 -1 -8 -6 -10 -13 -6 -7 4 -2 -7 11 -25 13 -17 28 -30 34 -28 7 2 20 -7
30 -20 10 -13 22 -21 27 -18 5 3 11 1 15 -4 3 -6 13 -7 22 -4 12 5 14 3 8 -7
-5 -9 -4 -11 3 -6 7 4 18 4 25 -1 12 -7 17 -9 67 -18 62 -12 85 -12 107 2 l23
16 -26 13 c-14 8 -31 11 -38 7 -6 -4 -18 -8 -26 -8 -8 0 -14 -6 -12 -12 1 -7
-2 -13 -7 -13 -5 0 -12 6 -14 13 -4 8 -8 9 -14 1 -5 -7 -14 -4 -25 8 -10 10
-13 18 -7 18 5 0 7 5 3 11 -3 6 -9 7 -13 3 -10 -15 -33 -16 -25 -2 6 10 4 11
-7 1 -18 -18 -32 -16 -25 3 3 8 2 12 -4 9 -18 -11 -51 -14 -45 -4 4 5 10 7 13
5 4 -2 18 1 31 8 15 9 20 16 12 20 -6 4 -11 2 -11 -5 0 -7 -3 -9 -7 -6 -3 4
-18 0 -32 -10 -25 -16 -26 -16 -11 3 8 10 10 16 6 12 -5 -4 -15 -3 -23 3 -9 9
-13 8 -13 0 0 -6 -4 -11 -8 -11 -18 0 -8 32 15 47 12 8 20 19 17 24 -5 8 3 11
22 8 4 0 11 5 16 13 8 10 9 10 5 -2 -2 -8 -10 -14 -16 -12 -13 3 -15 -14 -2
-23 5 -3 12 -1 16 5 9 14 28 1 21 -15 -8 -21 6 -26 21 -7 8 9 12 11 8 5 -4 -9
-1 -11 11 -6 13 5 15 2 10 -18 l-7 -24 15 25 c8 14 18 23 22 22 4 -2 10 2 15
9 4 8 11 10 16 6 4 -5 1 -12 -7 -17 -9 -6 -10 -10 -3 -10 7 0 16 6 20 14 7 11
10 12 20 1 10 -10 9 -14 -2 -19 -8 -3 -15 -11 -15 -17 0 -8 4 -8 15 1 8 7 15
9 15 5 0 -4 -8 -14 -17 -21 -12 -9 -14 -13 -5 -14 7 0 10 -4 7 -10 -3 -5 -1
-10 5 -10 7 0 10 7 6 18 -6 16 -5 16 7 0 9 -11 18 -14 28 -7 8 5 11 9 7 10 -5
1 -12 3 -18 4 -5 1 -13 3 -16 4 -4 0 1 13 11 27 9 15 12 24 7 20 -17 -10 -25
14 -10 32 12 15 11 16 -4 3 -14 -10 -21 -11 -31 -2 -8 6 -17 8 -20 4 -4 -3
-12 -1 -20 5 -13 11 -37 2 -40 -14 -4 -18 -42 -8 -53 14 -6 13 -17 29 -24 35
-8 8 -11 8 -7 1z m125 -48 c-2 -1 -12 -8 -22 -16 -18 -14 -18 -14 -6 7 8 12
18 19 23 16 4 -3 7 -6 5 -7z m-38 -127 c0 -6 -4 -7 -10 -4 -5 3 -10 11 -10 16
0 6 5 7 10 4 6 -3 10 -11 10 -16z m147 -12 c-5 -17 -64 -17 -64 0 0 7 4 13 9
13 4 0 8 -5 8 -11 0 -6 7 -3 16 5 17 17 38 12 31 -7z"/>
<path d="M1595 1110 c-3 -5 -1 -10 4 -10 6 0 11 5 11 10 0 6 -2 10 -4 10 -3 0
-8 -4 -11 -10z"/>
<path d="M3066 1284 c-3 -8 -1 -16 4 -19 11 -7 7 -44 -9 -73 -9 -16 -18 -21
-29 -17 -9 4 -23 8 -29 8 -7 0 -13 5 -13 10 0 6 -3 7 -6 4 -4 -3 -16 -2 -27 4
-14 8 -18 8 -12 0 4 -7 1 -18 -5 -26 -12 -15 -4 -20 23 -16 4 0 7 -3 7 -9 0
-28 3 -26 -45 -29 -19 -2 -19 -2 -2 -12 9 -6 15 -14 12 -19 -3 -5 4 -8 15 -7
25 2 25 6 3 24 -16 13 -15 13 6 3 13 -7 21 -8 17 -2 -3 5 1 13 10 16 15 6 15
8 2 24 -32 36 -32 44 0 28 16 -8 33 -12 37 -8 5 4 5 1 0 -6 -6 -11 -3 -12 14
-3 11 7 21 9 21 7 0 -3 -12 -12 -27 -20 -27 -15 -27 -15 -4 -12 28 3 52 32 44
52 -3 8 0 14 6 14 6 0 10 -3 10 -7 -3 -20 2 -34 11 -28 6 4 7 13 1 23 -6 12
-5 24 5 36 7 10 11 23 8 27 -3 5 0 9 6 9 13 0 9 -32 -5 -42 -6 -5 -5 -8 2 -8
7 0 17 9 23 20 6 11 16 20 23 20 8 0 8 -3 -2 -9 -8 -5 -9 -11 -3 -15 5 -3 13
1 16 10 3 8 10 13 15 9 5 -3 12 -1 15 4 8 12 -29 21 -45 10 -16 -10 -40 8 -33
25 3 8 -5 12 -25 12 -17 0 -32 -5 -35 -12z m41 -24 c-1 -11 -5 -20 -10 -20 -4
0 -5 -4 -2 -10 3 -5 1 -10 -5 -10 -7 0 -9 8 -5 19 3 11 1 23 -6 26 -8 6 -8 10
2 16 18 11 28 3 26 -21z"/>
<path d="M3193 1284 c0 -7 7 -16 15 -19 11 -4 12 -8 2 -20 -7 -8 -17 -12 -23
-8 -6 3 -7 1 -3 -5 7 -11 -6 -17 -28 -13 -4 1 -14 -3 -22 -10 -7 -6 -18 -8
-23 -4 -7 3 -8 0 -5 -9 8 -20 14 -20 30 2 12 16 12 16 11 -3 -2 -23 24 -28 30
-5 4 12 3 12 -5 1 -7 -9 -12 -10 -16 -2 -4 6 -2 12 3 12 6 1 16 3 21 4 6 1 15
3 21 4 5 0 8 5 4 10 -8 14 36 4 49 -10 8 -9 6 -9 -11 0 -14 7 -24 8 -28 1 -6
-9 8 -14 28 -11 4 0 7 -4 7 -10 0 -5 4 -8 9 -4 6 3 15 -4 21 -15 6 -11 8 -20
4 -20 -3 0 -2 -6 4 -13 7 -8 7 -18 2 -27 -8 -13 -10 -13 -10 -1 0 11 -4 9 -15
-5 -15 -19 -15 -19 -8 1 6 18 5 19 -11 6 -12 -10 -14 -17 -6 -25 7 -7 13 -7
21 1 6 6 17 9 24 7 16 -7 27 34 14 57 -12 23 -11 29 2 29 5 0 7 -4 4 -10 -3
-5 0 -8 7 -7 7 2 10 2 6 0 -5 -3 -8 -9 -8 -14 0 -6 4 -8 8 -5 5 3 9 -1 9 -9 0
-8 -4 -15 -9 -15 -4 0 -8 -5 -8 -11 0 -8 5 -8 15 1 8 7 12 16 9 21 -3 5 0 9 7
9 7 0 9 3 6 6 -3 4 -1 16 5 28 8 17 8 19 -2 9 -10 -9 -19 -9 -41 3 -16 8 -29
12 -29 10 0 -3 -10 5 -23 17 -19 19 -20 24 -8 33 12 10 11 14 -7 29 -26 23
-49 27 -49 9z m55 -28 c-2 -1 -12 -8 -23 -16 -19 -14 -19 -14 -6 3 11 14 11
20 0 35 -11 14 -9 13 9 -2 12 -11 21 -20 20 -20z"/>
<path d="M1340 1219 c-14 -12 -20 -18 -13 -15 6 4 14 2 17 -2 3 -5 15 -8 28
-6 13 1 28 3 33 3 6 1 3 6 -5 11 -10 6 -11 10 -2 10 6 0 12 5 12 11 0 8 -4 8
-13 0 -8 -6 -17 -7 -23 -1 -5 5 -19 1 -34 -11z m41 -6 c13 -16 12 -17 -3 -4
-17 13 -22 21 -14 21 2 0 10 -8 17 -17z"/>
<path d="M3343 1219 c6 -10 15 -15 20 -12 5 3 4 9 -3 13 -9 6 -9 9 1 13 8 3 4
5 -7 4 -18 -1 -20 -4 -11 -18z"/>
<path d="M1489 1209 c-1 -8 -1 -17 -1 -21 1 -3 -5 -9 -13 -12 -16 -6 -29 9
-20 24 3 6 -1 7 -10 4 -9 -4 -14 -9 -11 -12 3 -2 1 -14 -5 -25 -9 -15 -8 -18
2 -11 30 18 66 8 68 -21 1 -5 11 -9 24 -9 14 0 21 6 19 15 -11 42 -10 54 1 68
11 14 10 14 -5 2 -15 -11 -21 -11 -33 -1 -12 10 -15 10 -16 -1z m30 -38 c-8
-2 -8 -5 0 -11 9 -5 8 -10 -4 -20 -13 -11 -15 -10 -9 4 3 9 1 16 -4 16 -6 0
-10 8 -9 19 1 15 4 17 19 7 11 -6 14 -12 7 -15z"/>
<path d="M3180 1175 c-12 -23 -15 -24 -31 -9 -17 15 -20 14 -44 -11 -14 -16
-28 -25 -32 -22 -3 4 -1 7 5 7 7 0 12 5 12 12 0 6 -10 2 -22 -9 -13 -11 -33
-19 -46 -18 -16 1 -27 -6 -37 -25 -10 -19 -21 -27 -37 -26 -13 1 -22 7 -20 14
1 7 -3 12 -8 12 -5 0 -10 -4 -10 -10 0 -5 -1 -13 -2 -17 -2 -4 13 -8 33 -9 31
-2 38 2 53 29 9 18 14 23 11 11 -4 -14 -1 -21 10 -21 9 0 14 6 11 14 -7 17 15
12 32 -7 7 -8 12 -10 11 -5 -3 22 2 35 12 35 8 0 7 -6 -2 -17 -12 -14 -12 -16
1 -11 8 2 15 13 15 24 0 12 7 19 18 19 10 0 22 7 27 15 8 12 10 12 10 1 0 -7
6 -11 14 -8 7 3 18 1 24 -5 6 -6 15 -7 21 -4 16 10 13 26 -3 20 -8 -3 -16 -2
-19 3 -3 5 10 8 30 8 22 0 38 -6 44 -17 8 -14 7 -16 -6 -12 -8 3 -12 10 -9 15
3 5 0 9 -6 9 -7 0 -9 -7 -6 -16 4 -10 2 -13 -6 -8 -7 5 -8 3 -3 -6 5 -8 4 -11
-2 -7 -6 4 -9 -4 -7 -18 2 -22 0 -24 -18 -14 -16 9 -19 8 -13 -2 6 -8 4 -10
-5 -4 -9 6 -11 4 -5 -5 5 -9 4 -11 -4 -6 -6 4 -24 9 -39 12 -21 3 -24 2 -12
-6 11 -8 7 -9 -17 -5 -19 3 -33 1 -33 -5 0 -5 -5 -10 -11 -10 -5 0 -8 4 -4 9
3 5 0 13 -6 17 -7 4 -9 3 -6 -3 4 -7 -5 -10 -23 -8 -17 1 -30 -1 -30 -6 0 -11
1 -11 82 -13 36 -1 64 2 62 6 -2 3 0 9 6 13 5 3 10 2 10 -2 0 -5 9 -9 20 -10
11 -1 20 3 20 8 0 6 9 7 22 4 16 -6 20 -4 15 9 -8 21 18 46 43 41 14 -3 18 0
13 8 -7 11 -9 16 -12 35 -1 8 -16 12 -54 13 -9 0 -15 4 -12 10 4 5 2 9 -3 9
-5 0 -15 -11 -22 -25z m-50 -20 c-7 -9 -15 -13 -19 -10 -3 3 1 10 9 15 21 14
24 12 10 -5z"/>
<path d="M2980 1166 c0 -2 7 -9 15 -16 9 -7 15 -8 15 -2 0 5 -7 12 -15 16 -8
3 -15 4 -15 2z"/>
<path d="M3134 1128 c-4 -5 -13 -7 -21 -4 -8 3 -11 1 -8 -5 4 -5 1 -18 -7 -27
-11 -15 -11 -15 3 -5 8 7 27 10 42 7 19 -3 29 0 34 12 4 12 8 13 14 3 4 -8 11
-10 16 -5 9 9 -23 29 -50 31 -10 1 -20 -2 -23 -7z m39 -15 c-4 -10 -9 -11 -19
-2 -11 9 -14 8 -14 -1 0 -8 -3 -11 -6 -7 -10 10 3 23 24 23 12 0 18 -5 15 -13z"/>
<path d="M2115 622 c-101 -7 -209 -68 -385 -213 -106 -87 -159 -118 -234 -133
-73 -15 -98 -11 -131 21 -26 27 -34 78 -15 112 12 23 55 51 85 57 28 5 58 -22
51 -45 -4 -11 -2 -10 9 3 44 57 -13 100 -94 71 -90 -32 -161 -111 -161 -181 0
-86 99 -173 265 -230 73 -26 94 -28 240 -30 88 -1 185 2 215 7 30 5 71 11 90
14 98 15 210 61 268 109 36 31 37 31 65 5 92 -87 289 -136 550 -137 204 -2
326 33 447 125 57 44 80 80 81 129 2 52 -13 86 -53 125 -63 60 -168 93 -198
63 -17 -17 -19 -48 -4 -69 14 -18 14 -18 14 2 0 22 18 40 38 37 6 -1 19 -2 28
-3 9 0 31 -16 49 -34 33 -33 38 -60 21 -114 -11 -34 -68 -51 -135 -41 -74 12
-153 58 -279 161 -176 146 -258 187 -374 187 -78 0 -124 -13 -174 -46 -36 -25
-39 -25 -64 -10 -38 26 -92 48 -125 53 -16 2 -34 5 -40 6 -5 1 -28 1 -50 -1z"/>
</g>
</svg>
