<?xml version="1.0" encoding="UTF-8" standalone="no"?><!-- Generator: Gravit.io --><svg xmlns="http://www.w3.org/2000/svg" xmlns:xlink="http://www.w3.org/1999/xlink" style="isolation:isolate" viewBox="0 0 475.432 465.195" width="475.432pt" height="465.195pt"><defs><clipPath id="_clipPath_U0k77JgOA4BVCTMeIwLfU4N2wAPKdF2s"><rect width="475.432" height="465.195"/></clipPath></defs><g clip-path="url(#_clipPath_U0k77JgOA4BVCTMeIwLfU4N2wAPKdF2s)"><g><path d=" M 440.818 3.559 C 419.35 16.51 402.606 28.145 384.029 43.022 C 366.928 56.716 358.805 59.345 334.717 58.98 C 323.845 58.815 321.091 58.864 317.554 59.289 C 300.517 61.328 297.527 61.201 292.595 58.22 C 287.253 54.993 283.105 54.604 271.108 56.201 C 241.397 60.159 237.766 57.48 234.699 29.346 C 232.982 13.581 231.819 12.465 225.966 20.955 C 221.734 27.091 216.126 32.877 207.84 39.656 C 200.865 45.361 188.915 53.697 188.136 53.398 C 185.621 52.434 174.215 50.72 170.418 50.737 C 165.291 50.759 162.96 51.782 161.202 54.782 C 156.949 62.036 146.502 68.136 116.571 80.837 C 95.516 89.773 85.873 104.8 83.33 132.631 C 82.763 138.844 82.961 138.4 81.405 136.919 C 76.634 132.38 59.815 125.847 55.138 126.716 C 50.906 127.5 52.396 131.039 60.74 140.012 C 75.012 155.359 78.091 163.589 68.603 161.025 C 67.608 160.758 65.522 160.207 63.97 159.805 C 62.418 159.4 60.1 158.777 58.821 158.419 C 57.542 158.059 53.336 156.923 49.473 155.891 C 36.933 152.541 25.161 149.337 16.113 146.811 C 11.239 145.45 7.209 144.379 7.159 144.429 C 7.108 144.48 8.216 145.358 9.623 146.382 C 17.704 152.26 32.256 169.191 44.086 186.482 L 45.687 188.823 L 45.077 191.319 C 37.212 223.44 40.972 255.291 56.222 285.725 C 61.714 296.684 68.093 306.539 74.333 313.698 L 76.274 315.926 L 76.613 321.188 C 76.801 324.083 77.089 328.524 77.257 331.06 C 77.424 333.595 77.561 336.51 77.561 337.537 L 77.561 339.402 L 87.504 339.402 C 92.973 339.402 98.113 339.312 98.928 339.199 L 100.407 338.997 L 100.197 337.716 C 99.038 330.694 98.746 317.289 99.565 308.818 C 100.085 303.427 101.111 296.087 101.381 295.817 C 102.244 294.954 107.079 301.109 109.837 306.584 C 111.06 309.013 111.511 309.29 114.807 309.627 C 117.576 309.912 117.879 309.576 119.205 304.76 C 122.24 293.729 127.023 287.852 134.539 285.912 C 139.692 284.582 166.083 284.125 175.489 285.202 C 197.266 287.694 209.226 293.765 213.356 304.42 C 214.364 307.015 215.482 306.929 217.972 304.068 C 223.372 297.862 223.269 292.748 217.687 289.938 C 199.805 280.933 159.853 275.13 134.517 277.856 C 123.963 278.993 114.85 280.448 107.714 282.133 C 103.65 283.094 103.907 283.27 104.714 280.064 C 108.401 265.423 116.271 244.64 122.276 233.684 C 124.126 230.31 123.845 230.411 126.323 232.235 C 146.856 247.361 183.533 253.538 227.205 249.228 C 235.074 248.451 246.185 247.095 250.299 246.411 C 251.329 246.241 254.84 245.672 258.102 245.147 C 272.05 242.908 283.648 240.597 309.751 234.86 C 338.254 228.595 343.428 227.662 349.517 227.692 C 355.884 227.722 357.071 230.299 359.361 249.053 C 360.389 257.48 362.188 282.075 361.806 282.457 C 361.72 282.543 359.979 282.251 357.938 281.807 C 325.068 274.686 289.425 276.379 259.349 286.489 C 245.326 291.203 243.114 294.482 248.602 302.422 C 251.919 307.217 253.231 307.535 254.744 303.907 C 260.09 291.097 278.231 284.777 309.595 284.801 C 331.5 284.82 336.572 285.798 341.698 290.992 C 345.079 294.419 346.338 297.083 349.596 307.71 C 350.283 309.949 350.981 310.279 353.91 309.747 C 356.801 309.223 356.829 309.204 357.852 307.176 C 359.162 304.582 362.209 299.692 362.396 299.881 C 362.48 299.963 362.613 302.395 362.692 305.283 C 362.855 311.325 364.025 332.44 364.544 338.699 L 364.731 340.963 L 374.223 340.963 L 383.715 340.963 L 383.715 340.141 C 383.715 339.184 384.248 323.118 384.523 315.827 L 384.711 310.82 L 386.432 309.919 C 392.439 306.773 400.64 295.226 406.823 281.21 C 408.965 276.355 411.165 270.089 411.173 268.829 C 411.193 265.219 423.986 253.042 434.963 246.183 C 444.369 240.307 450.52 230.34 458.512 208.029 C 461.165 200.619 461.685 199.101 463.867 192.41 C 471.205 169.905 473.153 162.709 474.34 153.713 C 477.914 126.654 472.567 97.724 455.703 52.877 C 447.116 30.044 444.955 18.049 446.747 3.183 C 446.949 1.494 447.067 0.063 447.007 0.002 C 446.945 -0.058 444.161 1.543 440.818 3.559 Z  M 1.539 142.512 C 2.554 142.84 3.445 143.046 3.522 142.969 C 3.678 142.813 0.537 141.838 0.03 141.885 C -0.154 141.902 0.526 142.184 1.539 142.512 Z  M 361.494 287.176 C 365.969 288.968 366.686 289.661 365.287 290.836 C 361.919 293.671 351.953 291.713 353.595 288.539 C 354.835 286.142 357.679 285.652 361.494 287.176 Z  M 99.317 289.078 C 99.246 289.55 99.188 289.164 99.188 288.221 C 99.188 287.277 99.246 286.891 99.317 287.363 C 99.39 287.835 99.39 288.606 99.317 289.078 Z  M 368.914 288.769 C 368.575 289.108 368.478 288.687 368.678 287.752 L 368.881 286.816 L 368.987 287.704 C 369.045 288.191 369.014 288.67 368.914 288.769 Z  M 112.159 288.138 C 114.427 289.822 114.226 290.951 111.402 292.411 C 108.174 294.082 103.049 293.63 101.298 291.52 C 99.589 289.462 109.702 286.314 112.159 288.138 Z  M 210.353 407.928 C 202.597 408.972 198.234 410.688 190.534 415.723 C 188.368 417.14 184.13 420.217 183.357 420.936 C 183.099 421.174 182.327 421.78 181.64 422.282 C 180.955 422.784 179.76 423.778 178.989 424.494 C 174.92 428.257 167.682 433.828 161.717 437.787 C 159.728 439.107 158.252 439.889 155.114 441.296 C 154.599 441.526 153.616 441.814 152.929 441.936 C 152.242 442.06 151.54 442.266 151.369 442.399 C 151.075 442.621 148.336 443.144 145.379 443.541 C 133.783 445.093 128.982 431.113 139.05 425.113 C 144.422 421.913 148.716 422.96 148.716 427.469 C 148.716 429.409 148.72 429.416 149.257 428.649 C 152.781 423.625 150.882 419.608 144.984 419.608 C 142.008 419.608 141.293 419.814 136.7 421.988 C 126.193 426.963 121.409 436.931 125.618 445.076 C 129.878 453.326 147.162 462.644 161.2 464.262 C 162.658 464.43 164.982 464.704 166.364 464.87 C 169.635 465.264 181.743 465.264 185.542 464.87 C 187.171 464.702 190.401 464.417 192.72 464.237 C 211.718 462.76 226.627 457.481 234.051 449.604 C 235.222 448.362 235.392 448.379 236.789 449.864 C 237.755 450.89 238.89 451.842 241.56 453.866 C 242.404 454.506 246.423 456.747 247.803 457.349 C 248.66 457.723 249.644 458.159 249.986 458.32 C 252.404 459.455 260.356 461.728 264.03 462.335 C 265.232 462.533 266.917 462.827 267.775 462.989 C 276.849 464.694 296.22 465.734 303.51 464.904 C 305.139 464.719 307.667 464.432 309.127 464.266 C 311.642 463.981 314.971 463.324 315.992 462.912 C 316.25 462.809 317.209 462.556 318.125 462.35 C 326.959 460.367 338.803 453.184 343.984 446.668 C 345.237 445.093 346.332 441.146 346.313 438.279 C 346.298 436.03 344.963 431.472 344.137 430.849 C 344.019 430.759 343.51 430.081 343.008 429.34 C 340.757 426.023 332.258 420.232 329.642 420.232 C 329.363 420.232 329.066 420.118 328.979 419.979 C 328.7 419.528 322.987 419.526 322.184 419.977 C 321.023 420.631 320.05 421.554 320.05 422.003 C 320.05 422.23 319.909 422.417 319.737 422.417 C 319.355 422.417 319.317 425.434 319.698 425.668 C 319.847 425.761 320.055 426.226 320.162 426.701 C 320.269 427.177 320.709 427.988 321.139 428.503 L 321.924 429.439 L 321.74 427.566 C 321.053 420.53 333.49 423.076 336.282 430.544 C 337.576 434.002 336.689 438.73 334.331 440.945 C 331.489 443.618 323.898 444.335 318.958 442.397 C 318.613 442.262 317.14 441.767 315.681 441.297 C 314.22 440.827 312.957 440.354 312.87 440.245 C 312.784 440.138 312.082 439.715 311.311 439.307 C 310.153 438.697 305.455 435.697 304.289 434.824 C 300.203 431.768 297.986 430.064 297.733 429.785 C 297.559 429.594 296.647 428.81 295.703 428.042 C 294.761 427.272 293.409 426.106 292.698 425.449 C 291.434 424.278 284.315 418.663 282.92 417.736 C 282.532 417.477 281.894 417.02 281.5 416.721 C 281.107 416.421 280.718 416.174 280.635 416.174 C 280.551 416.174 279.31 415.395 277.875 414.444 C 264.687 405.699 247.844 405.499 237.424 413.965 C 235.149 415.815 235.276 415.785 234.07 414.736 C 232.43 413.311 229.003 411.197 226.979 410.362 C 225.902 409.918 224.739 409.435 224.397 409.291 C 221.869 408.227 213.881 407.452 210.353 407.928 Z " fill-rule="evenodd" fill="rgb(19,19,16)"/><path d=" M 446.533 7.19 C 446.535 8.048 446.595 8.362 446.668 7.887 C 446.739 7.413 446.737 6.711 446.662 6.327 C 446.589 5.943 446.529 6.331 446.533 7.19 Z  M 446.537 16.085 C 446.537 17.028 446.595 17.414 446.666 16.942 C 446.739 16.47 446.739 15.697 446.666 15.225 C 446.595 14.753 446.537 15.141 446.537 16.085 Z  M 220.167 27.864 L 219.09 29.035 L 220.26 27.96 C 220.904 27.368 221.431 26.842 221.431 26.79 C 221.431 26.552 221.167 26.777 220.167 27.864 Z  M 213.766 34.263 L 212.849 35.278 L 213.864 34.36 C 214.422 33.856 214.877 33.4 214.877 33.345 C 214.877 33.106 214.62 33.317 213.766 34.263 Z  M 169.555 50.642 C 170.289 50.707 171.412 50.707 172.053 50.64 C 172.691 50.572 172.09 50.52 170.718 50.52 C 169.345 50.522 168.821 50.576 169.555 50.642 Z  M 281.117 54.997 C 281.418 55.076 281.909 55.076 282.21 54.997 C 282.51 54.918 282.264 54.855 281.663 54.855 C 281.062 54.855 280.817 54.918 281.117 54.997 Z  M 253.823 57.51 C 254.902 57.572 256.587 57.572 257.568 57.51 C 258.547 57.448 257.663 57.398 255.604 57.398 C 253.544 57.399 252.743 57.45 253.823 57.51 Z  M 321.22 58.748 C 321.606 58.822 322.239 58.822 322.624 58.748 C 323.01 58.673 322.694 58.613 321.922 58.613 C 321.151 58.613 320.834 58.673 321.22 58.748 Z  M 332.923 58.751 C 333.395 58.822 334.168 58.822 334.64 58.751 C 335.112 58.68 334.726 58.62 333.781 58.62 C 332.837 58.62 332.451 58.68 332.923 58.751 Z  M 349.152 58.742 C 349.452 58.821 349.944 58.821 350.244 58.742 C 350.543 58.663 350.298 58.6 349.697 58.6 C 349.096 58.6 348.85 58.663 349.152 58.742 Z  M 317.63 59.055 C 317.932 59.133 318.422 59.133 318.724 59.055 C 319.023 58.976 318.778 58.912 318.177 58.912 C 317.576 58.912 317.331 58.976 317.63 59.055 Z  M 341.518 59.072 C 342.596 59.131 344.282 59.131 345.263 59.07 C 346.242 59.008 345.36 58.957 343.3 58.959 C 341.241 58.959 340.437 59.01 341.518 59.072 Z  M 100.637 90.282 L 99.563 91.453 L 100.733 90.376 C 101.823 89.376 102.047 89.112 101.808 89.112 C 101.757 89.112 101.229 89.638 100.637 90.282 Z  M 97.671 93.247 L 96.754 94.261 L 97.769 93.344 C 98.327 92.84 98.782 92.383 98.782 92.329 C 98.782 92.089 98.525 92.301 97.671 93.247 Z  M 474.915 125.937 C 474.915 126.538 474.98 126.783 475.059 126.483 C 475.136 126.184 475.136 125.691 475.059 125.392 C 474.98 125.09 474.915 125.337 474.915 125.937 Z  M 55.638 126.47 C 56.023 126.543 56.654 126.543 57.042 126.47 C 57.428 126.395 57.111 126.334 56.34 126.334 C 55.566 126.334 55.25 126.395 55.638 126.47 Z  M 475.248 129.994 C 475.248 130.938 475.308 131.324 475.379 130.852 C 475.45 130.38 475.45 129.609 475.379 129.137 C 475.308 128.665 475.248 129.051 475.248 129.994 Z  M 61.8 141.542 C 62.47 142.227 63.09 142.789 63.176 142.789 C 63.261 142.789 62.783 142.227 62.113 141.542 C 61.442 140.855 60.824 140.293 60.738 140.293 C 60.652 140.293 61.13 140.855 61.8 141.542 Z  M 475.24 145.911 C 475.24 146.682 475.3 146.998 475.375 146.613 C 475.45 146.227 475.45 145.594 475.375 145.208 C 475.3 144.823 475.24 145.137 475.24 145.911 Z  M 12.023 148.504 C 12.023 148.558 12.48 149.015 13.038 149.519 L 14.051 150.436 L 13.136 149.422 C 12.282 148.476 12.023 148.264 12.023 148.504 Z  M 14.832 150.991 C 14.832 151.037 15.92 152.125 17.251 153.408 L 19.669 155.741 L 17.337 153.322 C 15.169 151.077 14.832 150.762 14.832 150.991 Z  M 40.86 223.619 C 40.86 226.28 40.908 227.368 40.967 226.039 C 41.025 224.707 41.025 222.531 40.967 221.2 C 40.908 219.871 40.86 220.958 40.86 223.619 Z  M 348.058 227.905 C 348.789 227.971 349.981 227.971 350.712 227.905 C 351.442 227.84 350.845 227.786 349.386 227.786 C 347.925 227.786 347.33 227.84 348.058 227.905 Z  M 41.431 236.727 C 41.431 237.328 41.496 237.573 41.575 237.274 C 41.652 236.972 41.652 236.482 41.575 236.18 C 41.496 235.88 41.431 236.126 41.431 236.727 Z  M 184.531 250.368 C 184.919 250.441 185.48 250.439 185.78 250.361 C 186.078 250.282 185.759 250.222 185.074 250.226 C 184.387 250.229 184.143 250.293 184.531 250.368 Z  M 214.648 250.37 C 215.122 250.443 215.824 250.441 216.208 250.366 C 216.592 250.291 216.204 250.233 215.345 250.235 C 214.487 250.239 214.173 250.299 214.648 250.37 Z  M 190.15 250.684 C 190.712 250.754 191.555 250.752 192.023 250.681 C 192.491 250.61 192.032 250.553 191.002 250.555 C 189.973 250.557 189.589 250.615 190.15 250.684 Z  M 207.939 250.684 C 208.501 250.754 209.344 250.752 209.812 250.681 C 210.28 250.61 209.821 250.553 208.791 250.555 C 207.761 250.557 207.377 250.615 207.939 250.684 Z  M 418.043 259.665 C 416.764 260.953 415.789 262.006 415.875 262.006 C 415.961 262.006 417.077 260.953 418.356 259.665 C 419.635 258.379 420.61 257.324 420.524 257.324 C 420.438 257.324 419.322 258.379 418.043 259.665 Z  M 360.705 266.374 C 360.705 267.147 360.767 267.464 360.84 267.076 C 360.915 266.691 360.915 266.06 360.84 265.672 C 360.767 265.286 360.705 265.603 360.705 266.374 Z  M 361.334 276.205 C 361.336 277.064 361.396 277.377 361.469 276.903 C 361.54 276.429 361.539 275.727 361.464 275.343 C 361.391 274.96 361.331 275.347 361.334 276.205 Z  M 140.211 277.212 C 140.769 277.281 141.683 277.281 142.241 277.212 C 142.799 277.143 142.342 277.085 141.226 277.085 C 140.11 277.085 139.653 277.143 140.211 277.212 Z  M 158.728 277.098 C 158.799 277.16 160.123 277.287 161.668 277.379 C 163.578 277.493 164.076 277.461 163.228 277.283 C 161.996 277.025 158.477 276.881 158.728 277.098 Z  M 313.28 277.22 C 315.479 277.272 318.99 277.272 321.081 277.218 C 323.175 277.165 321.375 277.12 317.085 277.12 C 312.794 277.12 311.082 277.165 313.28 277.22 Z  M 137.559 277.514 C 137.859 277.59 138.351 277.59 138.651 277.514 C 138.951 277.435 138.705 277.369 138.104 277.369 C 137.503 277.369 137.258 277.435 137.559 277.514 Z  M 307.18 277.519 C 307.567 277.592 308.129 277.59 308.429 277.512 C 308.727 277.433 308.408 277.373 307.723 277.377 C 307.036 277.381 306.792 277.444 307.18 277.519 Z  M 325.588 277.517 C 325.976 277.592 326.607 277.592 326.993 277.517 C 327.38 277.444 327.064 277.383 326.291 277.383 C 325.519 277.383 325.203 277.444 325.588 277.517 Z  M 133.037 277.83 C 133.425 277.905 133.987 277.903 134.286 277.824 C 134.584 277.746 134.266 277.686 133.58 277.688 C 132.893 277.692 132.65 277.755 133.037 277.83 Z  M 167.366 277.83 C 167.755 277.905 168.317 277.903 168.615 277.824 C 168.913 277.746 168.596 277.686 167.909 277.688 C 167.222 277.692 166.978 277.755 167.366 277.83 Z  M 301.559 277.83 C 301.944 277.905 302.577 277.905 302.963 277.83 C 303.349 277.755 303.032 277.695 302.261 277.695 C 301.489 277.695 301.173 277.755 301.559 277.83 Z  M 331.206 277.83 C 331.593 277.905 332.225 277.905 332.61 277.83 C 332.998 277.755 332.681 277.695 331.908 277.695 C 331.137 277.695 330.82 277.755 331.206 277.83 Z  M 130.229 278.143 C 130.616 278.218 131.178 278.214 131.478 278.137 C 131.775 278.059 131.457 277.997 130.772 278 C 130.084 278.004 129.841 278.068 130.229 278.143 Z  M 170.487 278.143 C 170.875 278.218 171.437 278.214 171.736 278.137 C 172.034 278.059 171.716 277.997 171.03 278 C 170.343 278.004 170.1 278.068 170.487 278.143 Z  M 298.126 278.143 C 298.512 278.216 299.143 278.216 299.531 278.143 C 299.916 278.068 299.6 278.006 298.829 278.006 C 298.055 278.006 297.739 278.068 298.126 278.143 Z  M 334.64 278.143 C 335.026 278.216 335.657 278.216 336.044 278.143 C 336.43 278.068 336.114 278.006 335.342 278.006 C 334.569 278.006 334.252 278.068 334.64 278.143 Z  M 202.237 284.163 C 202.582 284.311 203.073 284.433 203.331 284.433 C 203.625 284.433 203.567 284.333 203.174 284.163 C 202.831 284.017 202.339 283.895 202.082 283.895 C 201.786 283.895 201.844 283.994 202.237 284.163 Z  M 144.971 285.002 C 128.983 285.745 123.596 289.778 119.602 303.995 C 116.782 314.035 121.141 338.512 127.562 348.678 C 136.041 362.108 171.98 366.955 190.768 357.205 C 196.575 354.192 203.833 342.527 210.196 325.983 C 212.873 319.021 212.804 319.499 212.403 310.644 C 212.209 306.361 212.134 302.725 212.235 302.562 C 212.336 302.397 212.261 302.264 212.068 302.264 C 211.877 302.264 211.798 302.139 211.892 301.985 C 212.128 301.605 209.686 298.383 207.816 296.606 C 198.183 287.445 176.91 283.519 144.971 285.002 Z  M 298.203 285.105 C 280.197 286.277 267.024 290.237 260.701 296.375 C 259.704 297.343 258.98 297.974 259.092 297.78 C 259.203 297.587 259.18 297.529 259.042 297.654 C 258.903 297.78 258.753 298.272 258.708 298.748 C 258.662 299.223 258.476 301.156 258.294 303.045 C 256.871 317.838 257.102 321.738 259.815 328.792 C 265.099 342.536 272.531 355.425 277.023 358.632 C 285.536 364.71 306.195 366.847 322.012 363.283 C 342.862 358.587 349.174 347.751 351.397 312.831 C 351.566 310.185 351.554 310.131 350.824 309.947 C 350.047 309.752 349.343 308.4 348.935 306.322 C 346.83 295.585 340.443 287.679 332.563 286.058 C 328.283 285.176 306.416 284.569 298.203 285.105 Z  M 231.827 292.2 C 234.025 292.252 237.536 292.252 239.628 292.198 C 241.721 292.145 239.922 292.1 235.632 292.1 C 231.34 292.1 229.628 292.145 231.827 292.2 Z  M 221.668 292.499 C 222.058 292.572 222.62 292.57 222.917 292.492 C 223.215 292.413 222.899 292.353 222.211 292.357 C 221.524 292.361 221.281 292.424 221.668 292.499 Z  M 106.199 293.435 C 106.586 293.509 107.148 293.507 107.446 293.428 C 107.745 293.349 107.427 293.289 106.74 293.293 C 106.055 293.297 105.809 293.361 106.199 293.435 Z  M 101.28 296.353 C 101.28 296.534 101.426 296.593 101.606 296.482 C 101.783 296.372 102.171 296.469 102.463 296.697 C 102.943 297.074 102.954 297.061 102.568 296.568 C 102.096 295.967 101.28 295.83 101.28 296.353 Z  M 221.635 298.753 C 221.556 298.883 224.179 298.952 227.468 298.907 C 238.856 298.755 239.959 298.652 230.89 298.585 C 225.88 298.549 221.715 298.624 221.635 298.753 Z  M 250.299 305.073 C 250.969 305.76 251.587 306.322 251.673 306.322 C 251.759 306.322 251.282 305.76 250.612 305.073 C 249.941 304.386 249.321 303.824 249.235 303.824 C 249.151 303.824 249.629 304.386 250.299 305.073 Z  M 217.199 305.152 L 216.281 306.165 L 217.296 305.249 C 218.242 304.395 218.453 304.137 218.214 304.137 C 218.159 304.137 217.702 304.594 217.199 305.152 Z  M 362.595 310.222 C 362.596 311.425 362.653 311.878 362.72 311.23 C 362.787 310.582 362.787 309.599 362.718 309.045 C 362.649 308.49 362.595 309.02 362.595 310.222 Z  M 114.936 309.975 C 115.325 310.05 115.887 310.046 116.185 309.97 C 116.483 309.891 116.166 309.829 115.479 309.833 C 114.792 309.837 114.548 309.9 114.936 309.975 Z  M 384.776 311.125 C 384.685 311.365 384.656 312.102 384.716 312.763 C 384.814 313.879 384.832 313.848 384.971 312.329 C 385.123 310.657 385.072 310.354 384.776 311.125 Z  M 99.194 316.932 C 99.194 318.048 99.252 318.505 99.321 317.947 C 99.39 317.388 99.39 316.477 99.321 315.919 C 99.252 315.361 99.194 315.816 99.194 316.932 Z  M 362.89 317.244 C 362.89 318.016 362.95 318.332 363.025 317.947 C 363.1 317.561 363.1 316.928 363.025 316.542 C 362.95 316.156 362.89 316.473 362.89 317.244 Z  M 384.449 322.081 C 384.449 323.626 384.501 324.298 384.566 323.573 C 384.632 322.849 384.632 321.585 384.568 320.765 C 384.505 319.944 384.45 320.536 384.449 322.081 Z  M 76.402 321.77 C 76.404 322.628 76.465 322.942 76.537 322.467 C 76.608 321.993 76.606 321.291 76.533 320.907 C 76.458 320.523 76.4 320.911 76.402 321.77 Z  M 363.201 321.613 C 363.201 322.386 363.263 322.703 363.338 322.315 C 363.411 321.929 363.411 321.298 363.338 320.911 C 363.263 320.525 363.201 320.841 363.201 321.613 Z  M 99.188 325.358 C 99.188 326.303 99.246 326.689 99.317 326.217 C 99.39 325.745 99.39 324.972 99.317 324.5 C 99.246 324.028 99.188 324.414 99.188 325.358 Z  M 363.518 327.075 C 363.522 327.933 363.581 328.247 363.653 327.773 C 363.726 327.298 363.724 326.596 363.649 326.212 C 363.574 325.828 363.516 326.217 363.518 327.075 Z  M 76.698 326.92 C 76.698 327.519 76.761 327.766 76.84 327.464 C 76.919 327.165 76.919 326.672 76.84 326.373 C 76.761 326.073 76.698 326.318 76.698 326.92 Z  M 363.827 331.601 C 363.827 332.372 363.887 332.689 363.962 332.303 C 364.036 331.915 364.036 331.284 363.962 330.899 C 363.887 330.511 363.827 330.827 363.827 331.601 Z  M 77.022 332.224 C 77.022 332.996 77.083 333.312 77.156 332.927 C 77.231 332.541 77.231 331.908 77.156 331.522 C 77.083 331.136 77.022 331.453 77.022 332.224 Z  M 384.112 332.537 C 384.112 333.308 384.173 333.625 384.246 333.239 C 384.321 332.852 384.321 332.221 384.246 331.835 C 384.173 331.447 384.112 331.764 384.112 332.537 Z  M 77.321 337.529 C 77.321 338.13 77.385 338.375 77.463 338.076 C 77.542 337.776 77.542 337.284 77.463 336.984 C 77.385 336.683 77.321 336.928 77.321 337.529 Z  M 90.902 339.634 C 92.318 339.692 94.636 339.692 96.052 339.634 C 97.467 339.576 96.308 339.529 93.477 339.529 C 90.644 339.529 89.487 339.576 90.902 339.634 Z  M 212.628 407.667 C 213.707 407.729 215.392 407.729 216.373 407.667 C 217.352 407.606 216.468 407.555 214.409 407.555 C 212.349 407.557 211.548 407.607 212.628 407.667 Z  M 254.123 407.667 C 255.196 407.729 256.95 407.729 258.023 407.667 C 259.096 407.607 258.218 407.557 256.072 407.557 C 253.928 407.557 253.05 407.607 254.123 407.667 Z  M 204.267 408.699 C 203.925 408.929 204.052 408.959 204.735 408.806 C 205.881 408.549 206.132 408.371 205.333 408.377 C 205.003 408.381 204.524 408.525 204.267 408.699 Z  M 232.355 413.152 C 232.355 413.229 232.87 413.686 233.501 414.165 C 234.13 414.646 234.547 414.88 234.426 414.685 C 234.18 414.287 232.355 412.935 232.355 413.152 Z  M 144.585 419.204 C 144.973 419.279 145.534 419.277 145.832 419.198 C 146.132 419.12 145.813 419.06 145.126 419.062 C 144.441 419.065 144.196 419.129 144.585 419.204 Z  M 324.969 419.204 C 325.356 419.279 325.918 419.277 326.218 419.198 C 326.515 419.12 326.197 419.06 325.512 419.062 C 324.824 419.065 324.581 419.129 324.969 419.204 Z  M 180.367 422.908 L 179.144 424.022 L 180.47 423.011 C 181.683 422.087 181.977 421.792 181.692 421.792 C 181.636 421.792 181.039 422.293 180.367 422.908 Z  M 319.198 423.977 C 319.198 424.748 319.259 425.065 319.334 424.679 C 319.407 424.293 319.407 423.66 319.334 423.275 C 319.259 422.889 319.198 423.203 319.198 423.977 Z  M 128.884 427.175 L 127.65 428.503 L 128.976 427.269 C 130.21 426.121 130.446 425.849 130.21 425.849 C 130.159 425.849 129.562 426.447 128.884 427.175 Z  M 148.096 429.205 C 148.09 430.094 148.457 430.096 149.214 429.21 C 149.749 428.581 149.751 428.557 149.238 428.956 C 148.746 429.338 148.63 429.338 148.384 428.95 C 148.165 428.604 148.1 428.662 148.096 429.205 Z  M 343.727 430.062 C 343.896 430.405 344.263 430.967 344.542 431.311 L 345.051 431.935 L 344.744 431.311 C 344.576 430.967 344.209 430.405 343.93 430.062 L 343.422 429.439 L 343.727 430.062 Z  M 336.503 433.027 C 336.599 433.97 336.728 434.802 336.79 434.873 C 337.022 435.143 336.848 432.532 336.593 431.935 C 336.428 431.547 336.395 431.959 336.503 433.027 Z  M 133.833 433.807 C 133.835 434.837 133.893 435.221 133.962 434.659 C 134.032 434.1 134.03 433.257 133.959 432.787 C 133.887 432.319 133.831 432.778 133.833 433.807 Z  M 123.821 437.084 C 123.821 437.685 123.886 437.931 123.965 437.631 C 124.042 437.33 124.042 436.839 123.965 436.538 C 123.886 436.238 123.821 436.483 123.821 437.084 Z  M 150.12 442.389 L 149.184 442.629 L 150.023 442.664 C 150.485 442.685 150.95 442.561 151.056 442.389 C 151.163 442.219 151.206 442.095 151.154 442.114 C 151.099 442.134 150.635 442.258 150.12 442.389 Z  M 345.693 443.31 C 345.51 443.835 345.428 444.262 345.508 444.262 C 345.72 444.262 346.308 442.642 346.154 442.487 C 346.083 442.415 345.875 442.786 345.693 443.31 Z  M 143.34 443.243 C 144.074 443.309 145.197 443.309 145.838 443.241 C 146.476 443.174 145.875 443.119 144.503 443.121 C 143.13 443.121 142.606 443.177 143.34 443.243 Z  M 324.972 443.243 C 325.706 443.309 326.83 443.309 327.47 443.241 C 328.109 443.174 327.508 443.119 326.135 443.121 C 324.763 443.121 324.238 443.177 324.972 443.243 Z  M 341.583 449.724 C 340.825 450.495 340.274 451.128 340.361 451.128 C 340.447 451.128 341.138 450.495 341.896 449.724 C 342.654 448.95 343.203 448.319 343.117 448.319 C 343.033 448.319 342.342 448.95 341.583 449.724 Z  M 128.899 449.879 C 129.569 450.566 130.187 451.128 130.274 451.128 C 130.36 451.128 129.88 450.566 129.21 449.879 C 128.54 449.194 127.922 448.632 127.836 448.632 C 127.749 448.632 128.229 449.194 128.899 449.879 Z  M 234.877 448.709 C 234.948 448.752 235.428 449.139 235.942 449.568 L 236.879 450.347 L 236.122 449.49 C 235.707 449.018 235.227 448.632 235.057 448.632 C 234.886 448.632 234.806 448.666 234.877 448.709 Z  M 199.741 463.612 C 198.906 463.824 198.889 463.85 199.586 463.85 C 200.015 463.85 200.786 463.743 201.301 463.612 C 202.136 463.399 202.153 463.372 201.459 463.372 C 201.03 463.372 200.256 463.481 199.741 463.612 Z  M 161.434 464.767 C 161.82 464.842 162.451 464.842 162.838 464.767 C 163.224 464.694 162.907 464.633 162.136 464.633 C 161.363 464.633 161.046 464.694 161.434 464.767 Z  M 190.774 464.773 C 191.336 464.844 192.178 464.842 192.647 464.771 C 193.117 464.7 192.658 464.642 191.628 464.644 C 190.598 464.646 190.214 464.704 190.774 464.773 Z  M 278.158 464.773 C 278.72 464.844 279.562 464.842 280.03 464.771 C 280.499 464.7 280.04 464.642 279.01 464.644 C 277.98 464.646 277.596 464.704 278.158 464.773 Z  M 307.8 464.767 C 308.187 464.842 308.818 464.842 309.204 464.767 C 309.592 464.694 309.275 464.633 308.502 464.633 C 307.73 464.633 307.414 464.694 307.8 464.767 Z  M 164.711 465.084 C 165.183 465.155 165.954 465.155 166.426 465.084 C 166.898 465.013 166.512 464.953 165.568 464.953 C 164.625 464.953 164.239 465.013 164.711 465.084 Z  M 186.718 465.086 C 187.278 465.155 188.121 465.153 188.591 465.082 C 189.059 465.011 188.6 464.955 187.57 464.957 C 186.54 464.958 186.156 465.016 186.718 465.086 Z  M 282.21 465.086 C 282.768 465.155 283.68 465.155 284.238 465.086 C 284.796 465.016 284.339 464.96 283.223 464.96 C 282.107 464.96 281.652 465.016 282.21 465.086 Z  M 304.528 465.084 C 305.002 465.155 305.704 465.153 306.088 465.08 C 306.472 465.005 306.084 464.947 305.225 464.949 C 304.367 464.951 304.053 465.013 304.528 465.084 Z " fill-rule="evenodd" fill="rgb(174,180,165)" fill-opacity="0.5"/><path d=" M 446.209 11.559 C 446.213 12.246 446.277 12.489 446.352 12.102 C 446.426 11.712 446.425 11.15 446.346 10.853 C 446.267 10.555 446.207 10.871 446.209 11.559 Z  M 217.686 30.596 C 216.407 31.883 215.431 32.937 215.517 32.937 C 215.603 32.937 216.719 31.883 217.998 30.596 C 219.277 29.308 220.253 28.256 220.167 28.256 C 220.081 28.256 218.965 29.308 217.686 30.596 Z  M 278.776 55.315 C 279.163 55.388 279.795 55.388 280.18 55.315 C 280.568 55.24 280.251 55.179 279.478 55.179 C 278.707 55.179 278.39 55.24 278.776 55.315 Z  M 283.302 55.31 C 283.601 55.388 284.094 55.388 284.393 55.31 C 284.695 55.231 284.448 55.167 283.849 55.167 C 283.247 55.167 283.002 55.231 283.302 55.31 Z  M 157.766 58.995 C 157.007 59.768 156.459 60.399 156.545 60.399 C 156.629 60.399 157.32 59.768 158.078 58.995 C 158.837 58.223 159.387 57.59 159.301 57.59 C 159.215 57.59 158.524 58.223 157.766 58.995 Z  M 325.448 58.759 C 326.785 58.819 328.891 58.817 330.129 58.759 C 331.365 58.699 330.27 58.652 327.695 58.652 C 325.12 58.652 324.109 58.701 325.448 58.759 Z  M 337.292 59.062 C 337.763 59.135 338.537 59.135 339.009 59.062 C 339.48 58.991 339.095 58.933 338.151 58.933 C 337.205 58.933 336.82 58.991 337.292 59.062 Z  M 347.279 59.055 C 347.579 59.133 348.071 59.133 348.371 59.055 C 348.671 58.976 348.425 58.912 347.824 58.912 C 347.223 58.912 346.978 58.976 347.279 59.055 Z  M 301.09 60.629 C 302.077 60.693 303.693 60.693 304.68 60.629 C 305.667 60.568 304.858 60.517 302.884 60.517 C 300.911 60.517 300.104 60.568 301.09 60.629 Z  M 474.915 127.809 C 474.915 128.41 474.98 128.655 475.059 128.356 C 475.136 128.056 475.136 127.564 475.059 127.264 C 474.98 126.963 474.915 127.21 474.915 127.809 Z  M 475.244 132.958 C 475.246 133.818 475.308 134.131 475.379 133.657 C 475.45 133.183 475.448 132.481 475.375 132.097 C 475.3 131.713 475.242 132.101 475.244 132.958 Z  M 475.24 135.925 C 475.24 136.696 475.3 137.012 475.375 136.627 C 475.45 136.239 475.45 135.608 475.375 135.222 C 475.3 134.835 475.24 135.151 475.24 135.925 Z  M 59.459 138.889 C 60.042 139.49 60.588 139.98 60.675 139.98 C 60.761 139.98 60.354 139.49 59.772 138.889 C 59.19 138.288 58.643 137.797 58.557 137.797 C 58.471 137.797 58.877 138.288 59.459 138.889 Z  M 475.24 140.293 C 475.24 141.065 475.3 141.381 475.375 140.995 C 475.45 140.61 475.45 139.977 475.375 139.591 C 475.3 139.205 475.24 139.52 475.24 140.293 Z  M 475.244 143.257 C 475.246 144.117 475.308 144.429 475.379 143.956 C 475.45 143.482 475.448 142.78 475.375 142.396 C 475.3 142.012 475.242 142.4 475.244 143.257 Z  M 474.915 148.096 C 474.915 148.695 474.98 148.942 475.059 148.641 C 475.136 148.341 475.136 147.849 475.059 147.549 C 474.98 147.249 474.915 147.495 474.915 148.096 Z  M 20.605 156.833 C 21.275 157.52 21.895 158.082 21.981 158.082 C 22.066 158.082 21.588 157.52 20.918 156.833 C 20.247 156.148 19.629 155.586 19.543 155.586 C 19.457 155.586 19.935 156.148 20.605 156.833 Z  M 182.035 250.055 C 182.423 250.13 182.984 250.126 183.282 250.05 C 183.582 249.971 183.263 249.909 182.576 249.913 C 181.891 249.917 181.646 249.98 182.035 250.055 Z  M 217.609 250.055 C 217.995 250.128 218.626 250.128 219.013 250.055 C 219.399 249.98 219.082 249.919 218.311 249.919 C 217.538 249.919 217.221 249.98 217.609 250.055 Z  M 186.555 250.362 C 186.857 250.439 187.347 250.439 187.649 250.362 C 187.948 250.284 187.703 250.218 187.102 250.218 C 186.501 250.218 186.256 250.284 186.555 250.362 Z  M 212.459 250.362 C 212.759 250.439 213.251 250.439 213.551 250.362 C 213.851 250.284 213.605 250.218 213.004 250.218 C 212.403 250.218 212.158 250.284 212.459 250.362 Z  M 196.23 250.692 C 198.247 250.746 201.548 250.746 203.565 250.692 C 205.582 250.638 203.93 250.593 199.897 250.593 C 195.863 250.593 194.214 250.638 196.23 250.692 Z  M 421.301 256.467 L 420.384 257.48 L 421.399 256.564 C 422.344 255.71 422.556 255.452 422.316 255.452 C 422.262 255.452 421.805 255.909 421.301 256.467 Z  M 361.005 269.183 C 361.005 269.784 361.069 270.029 361.147 269.73 C 361.226 269.43 361.226 268.938 361.147 268.638 C 361.069 268.336 361.005 268.582 361.005 269.183 Z  M 146.922 277.22 C 149.109 277.272 152.691 277.272 154.88 277.22 C 157.067 277.165 155.277 277.12 150.901 277.12 C 146.523 277.12 144.733 277.165 146.922 277.22 Z  M 139.591 277.519 C 139.979 277.592 140.54 277.59 140.84 277.512 C 141.138 277.433 140.819 277.373 140.134 277.377 C 139.447 277.381 139.203 277.444 139.591 277.519 Z  M 160.966 277.514 C 161.265 277.59 161.758 277.59 162.057 277.514 C 162.357 277.435 162.112 277.369 161.511 277.369 C 160.909 277.369 160.664 277.435 160.966 277.514 Z  M 309.672 277.523 C 310.23 277.592 311.144 277.592 311.702 277.523 C 312.26 277.454 311.803 277.398 310.687 277.398 C 309.571 277.398 309.114 277.454 309.672 277.523 Z  M 322.624 277.521 C 323.096 277.592 323.869 277.592 324.341 277.521 C 324.813 277.45 324.427 277.392 323.482 277.392 C 322.538 277.392 322.152 277.45 322.624 277.521 Z  M 304.058 277.83 C 304.448 277.905 305.01 277.903 305.307 277.824 C 305.605 277.746 305.289 277.686 304.601 277.688 C 303.914 277.692 303.671 277.755 304.058 277.83 Z  M 329.026 277.83 C 329.414 277.905 329.976 277.903 330.273 277.824 C 330.573 277.746 330.255 277.686 329.567 277.688 C 328.882 277.692 328.637 277.755 329.026 277.83 Z  M 172.201 278.45 C 172.5 278.527 172.993 278.527 173.292 278.45 C 173.592 278.371 173.347 278.306 172.746 278.306 C 172.144 278.306 171.899 278.371 172.201 278.45 Z  M 361.653 279.95 C 361.655 280.98 361.713 281.363 361.782 280.804 C 361.853 280.242 361.851 279.399 361.78 278.931 C 361.709 278.461 361.651 278.92 361.653 279.95 Z  M 154.412 284.71 C 156.771 284.762 160.634 284.762 162.994 284.71 C 165.353 284.655 163.422 284.612 158.702 284.612 C 153.983 284.612 152.051 284.655 154.412 284.71 Z  M 143.956 285.013 C 144.514 285.082 145.428 285.082 145.986 285.013 C 146.544 284.944 146.087 284.888 144.971 284.888 C 143.855 284.888 143.398 284.944 143.956 285.013 Z  M 170.332 285.011 C 170.806 285.084 171.508 285.082 171.892 285.007 C 172.276 284.932 171.888 284.874 171.03 284.876 C 170.171 284.88 169.858 284.94 170.332 285.011 Z  M 299.055 285.013 C 299.609 285.082 300.592 285.082 301.24 285.015 C 301.886 284.947 301.433 284.891 300.233 284.889 C 299.031 284.889 298.501 284.944 299.055 285.013 Z  M 317.162 285.017 C 317.892 285.082 319.085 285.082 319.815 285.017 C 320.546 284.951 319.948 284.897 318.49 284.897 C 317.029 284.897 316.434 284.951 317.162 285.017 Z  M 138.964 285.32 C 139.35 285.395 139.981 285.395 140.368 285.32 C 140.754 285.245 140.437 285.185 139.666 285.185 C 138.893 285.185 138.576 285.245 138.964 285.32 Z  M 294.696 285.32 C 295.085 285.395 295.647 285.393 295.945 285.314 C 296.243 285.236 295.926 285.176 295.239 285.178 C 294.552 285.182 294.308 285.245 294.696 285.32 Z  M 324.341 285.32 C 324.727 285.395 325.358 285.395 325.746 285.32 C 326.131 285.245 325.815 285.185 325.044 285.185 C 324.27 285.185 323.954 285.245 324.341 285.32 Z  M 329.491 285.627 C 329.79 285.706 330.283 285.706 330.582 285.627 C 330.882 285.549 330.637 285.485 330.036 285.485 C 329.434 285.485 329.189 285.549 329.491 285.627 Z  M 99.179 287.908 C 99.179 288.681 99.241 288.998 99.315 288.61 C 99.389 288.224 99.389 287.593 99.315 287.206 C 99.241 286.82 99.179 287.136 99.179 287.908 Z  M 368.678 287.752 C 368.478 288.687 368.575 289.108 368.914 288.769 C 369.014 288.67 369.045 288.191 368.987 287.704 L 368.881 286.816 L 368.678 287.752 Z  M 109.008 287.505 C 109.395 287.58 109.957 287.576 110.255 287.5 C 110.554 287.421 110.236 287.359 109.549 287.363 C 108.863 287.367 108.618 287.43 109.008 287.505 Z  M 342.207 291.81 C 342.789 292.409 343.336 292.902 343.422 292.902 C 343.508 292.902 343.102 292.409 342.52 291.81 C 341.937 291.209 341.39 290.717 341.304 290.717 C 341.218 290.717 341.624 291.209 342.207 291.81 Z  M 221.348 293.267 C 221.934 294.441 222.213 297.33 221.813 298.077 C 221.5 298.662 221.751 298.673 233.227 298.59 C 246.702 298.491 245.865 298.688 246.164 295.542 C 246.26 294.52 246.432 293.454 246.545 293.173 C 246.874 292.349 244.814 292.224 232.373 292.308 L 220.908 292.387 L 221.348 293.267 Z  M 208.168 296.96 C 209.012 297.817 209.774 298.519 209.86 298.519 C 209.947 298.519 209.325 297.817 208.48 296.96 C 207.634 296.1 206.872 295.398 206.788 295.398 C 206.701 295.398 207.323 296.1 208.168 296.96 Z  M 259.954 296.725 L 259.038 297.738 L 260.051 296.823 C 260.996 295.969 261.21 295.711 260.968 295.711 C 260.914 295.711 260.457 296.167 259.954 296.725 Z  M 103.463 297.428 C 104.045 298.027 104.592 298.519 104.678 298.519 C 104.764 298.519 104.358 298.027 103.776 297.428 C 103.193 296.827 102.647 296.334 102.561 296.334 C 102.474 296.334 102.881 296.827 103.463 297.428 Z  M 121.615 297.441 C 121.093 298.589 121.192 298.832 121.757 297.789 C 122.021 297.302 122.179 296.845 122.108 296.774 C 122.036 296.703 121.815 297.003 121.615 297.441 Z  M 362.602 305.697 C 362.602 307.155 362.656 307.753 362.722 307.024 C 362.787 306.294 362.787 305.101 362.722 304.371 C 362.656 303.641 362.602 304.238 362.602 305.697 Z  M 391.205 306.165 C 390.446 306.938 389.896 307.569 389.982 307.569 C 390.068 307.569 390.759 306.938 391.517 306.165 C 392.276 305.393 392.824 304.76 392.738 304.76 C 392.654 304.76 391.963 305.393 391.205 306.165 Z  M 99.184 313.655 C 99.186 314.514 99.246 314.827 99.319 314.353 C 99.39 313.879 99.389 313.177 99.314 312.793 C 99.241 312.41 99.181 312.797 99.184 313.655 Z  M 362.89 314.748 C 362.89 315.52 362.95 315.836 363.025 315.45 C 363.1 315.063 363.1 314.432 363.025 314.046 C 362.95 313.659 362.89 313.975 362.89 314.748 Z  M 384.439 317.557 C 384.439 318.671 384.495 319.128 384.565 318.57 C 384.634 318.012 384.634 317.1 384.565 316.542 C 384.495 315.984 384.439 316.441 384.439 317.557 Z  M 76.385 319.43 C 76.385 320.029 76.449 320.276 76.527 319.974 C 76.606 319.675 76.606 319.182 76.527 318.883 C 76.449 318.583 76.385 318.828 76.385 319.43 Z  M 363.19 319.43 C 363.19 320.029 363.254 320.276 363.332 319.974 C 363.411 319.675 363.411 319.182 363.332 318.883 C 363.254 318.583 363.19 318.828 363.19 319.43 Z  M 76.714 324.579 C 76.716 325.437 76.776 325.751 76.849 325.275 C 76.92 324.802 76.919 324.1 76.844 323.716 C 76.771 323.332 76.711 323.719 76.714 324.579 Z  M 384.128 328.324 C 384.13 329.524 384.186 329.977 384.254 329.331 C 384.321 328.683 384.321 327.7 384.252 327.146 C 384.183 326.592 384.128 327.122 384.128 328.324 Z  M 99.179 328.167 C 99.179 328.94 99.241 329.256 99.315 328.869 C 99.389 328.483 99.389 327.852 99.315 327.464 C 99.241 327.079 99.179 327.395 99.179 328.167 Z  M 363.814 329.416 C 363.814 330.017 363.877 330.262 363.956 329.962 C 364.035 329.661 364.035 329.17 363.956 328.869 C 363.877 328.569 363.814 328.815 363.814 329.416 Z  M 77.008 330.039 C 77.008 330.64 77.074 330.885 77.153 330.586 C 77.229 330.286 77.229 329.794 77.153 329.494 C 77.074 329.193 77.008 329.438 77.008 330.039 Z  M 77.338 335.188 C 77.34 336.048 77.402 336.361 77.473 335.887 C 77.544 335.413 77.542 334.711 77.469 334.327 C 77.394 333.943 77.336 334.331 77.338 335.188 Z  M 364.126 334.72 C 364.126 335.321 364.19 335.567 364.269 335.267 C 364.347 334.968 364.347 334.475 364.269 334.175 C 364.19 333.874 364.126 334.119 364.126 334.72 Z  M 383.823 338.155 C 383.823 339.613 383.877 340.211 383.943 339.48 C 384.009 338.75 384.009 337.557 383.943 336.827 C 383.877 336.099 383.823 336.694 383.823 338.155 Z  M 99.407 339.091 L 98.314 339.319 L 99.484 339.36 C 100.128 339.383 100.654 339.261 100.654 339.091 C 100.654 338.919 100.621 338.797 100.578 338.819 C 100.534 338.842 100.006 338.963 99.407 339.091 Z  M 79.667 339.634 C 80.913 339.694 82.948 339.694 84.193 339.634 C 85.437 339.574 84.418 339.527 81.929 339.527 C 79.441 339.527 78.422 339.574 79.667 339.634 Z  M 369.455 341.195 C 372.171 341.248 376.524 341.248 379.131 341.195 C 381.737 341.143 379.516 341.102 374.197 341.102 C 368.875 341.102 366.742 341.145 369.455 341.195 Z  M 144.274 419.522 C 144.836 419.591 145.679 419.59 146.147 419.518 C 146.615 419.447 146.156 419.391 145.126 419.393 C 144.096 419.395 143.712 419.453 144.274 419.522 Z  M 324.341 419.522 C 324.899 419.591 325.811 419.591 326.369 419.522 C 326.927 419.453 326.47 419.395 325.354 419.395 C 324.238 419.395 323.783 419.453 324.341 419.522 Z  M 150.98 424.132 C 150.983 424.819 151.047 425.063 151.122 424.675 C 151.195 424.288 151.193 423.726 151.114 423.426 C 151.036 423.129 150.976 423.447 150.98 424.132 Z  M 325.12 423.576 C 325.592 423.647 326.365 423.647 326.837 423.576 C 327.309 423.505 326.923 423.447 325.98 423.447 C 325.034 423.447 324.648 423.505 325.12 423.576 Z  M 178.035 425.147 L 176.959 426.317 L 178.129 425.243 C 178.773 424.651 179.299 424.123 179.299 424.072 C 179.299 423.833 179.035 424.057 178.035 425.147 Z  M 321.695 426.786 C 321.695 427.557 321.755 427.873 321.83 427.488 C 321.905 427.102 321.905 426.469 321.83 426.083 C 321.755 425.698 321.695 426.012 321.695 426.786 Z  M 136.833 426.683 L 136.076 427.516 L 136.925 426.917 C 137.391 426.587 137.779 426.213 137.782 426.083 C 137.799 425.7 137.629 425.806 136.833 426.683 Z  M 128.255 428.111 L 127.337 429.126 L 128.352 428.209 C 128.91 427.705 129.367 427.25 129.367 427.196 C 129.367 426.954 129.109 427.166 128.255 428.111 Z  M 148.476 428.345 C 148.476 428.946 148.54 429.192 148.618 428.892 C 148.697 428.593 148.697 428.1 148.618 427.8 C 148.54 427.499 148.476 427.744 148.476 428.345 Z  M 133.496 433.652 C 133.496 434.251 133.56 434.498 133.638 434.197 C 133.717 433.897 133.717 433.405 133.638 433.105 C 133.56 432.806 133.496 433.051 133.496 433.652 Z  M 336.359 436.481 C 336.189 437.352 336.155 437.949 336.286 437.809 C 336.558 437.519 337.033 434.899 336.814 434.899 C 336.737 434.899 336.531 435.613 336.359 436.481 Z  M 346.338 439.893 C 346.338 440.494 346.401 440.739 346.48 440.44 C 346.559 440.138 346.559 439.648 346.48 439.346 C 346.401 439.047 346.338 439.292 346.338 439.893 Z  M 135.296 439.99 C 135.296 440.045 135.752 440.502 136.31 441.005 L 137.325 441.921 L 136.408 440.908 C 135.554 439.962 135.296 439.749 135.296 439.99 Z  M 143.651 443.552 C 144.211 443.621 145.053 443.619 145.523 443.548 C 145.991 443.477 145.533 443.421 144.503 443.423 C 143.473 443.425 143.089 443.483 143.651 443.552 Z  M 324.965 443.552 C 325.523 443.621 326.435 443.621 326.993 443.552 C 327.551 443.483 327.094 443.426 325.98 443.426 C 324.864 443.426 324.407 443.483 324.965 443.552 Z  M 341.415 449.645 L 339.866 451.284 L 341.505 449.735 C 342.407 448.883 343.143 448.147 343.143 448.097 C 343.143 447.864 342.855 448.123 341.415 449.645 Z  M 323.95 460.346 C 323.167 460.723 323.141 460.766 323.795 460.609 C 324.223 460.506 324.708 460.296 324.871 460.144 C 325.276 459.766 325.053 459.815 323.95 460.346 Z  M 203.72 462.891 C 204.02 462.968 204.513 462.968 204.812 462.891 C 205.114 462.812 204.866 462.747 204.267 462.747 C 203.666 462.747 203.421 462.812 203.72 462.891 Z  M 265.773 462.79 C 265.844 462.854 266.464 462.99 267.151 463.095 C 268.022 463.226 268.211 463.198 267.775 463.002 C 267.176 462.73 265.505 462.554 265.773 462.79 Z  M 163.93 464.767 C 164.316 464.842 164.949 464.842 165.334 464.767 C 165.72 464.694 165.404 464.633 164.632 464.633 C 163.859 464.633 163.544 464.694 163.93 464.767 Z  M 187.023 464.773 C 187.581 464.842 188.495 464.842 189.053 464.773 C 189.611 464.704 189.154 464.648 188.038 464.648 C 186.922 464.648 186.465 464.704 187.023 464.773 Z  M 281.429 464.771 C 281.901 464.842 282.674 464.842 283.146 464.771 C 283.618 464.7 283.232 464.642 282.287 464.642 C 281.343 464.642 280.957 464.7 281.429 464.771 Z  M 305.152 464.771 C 305.626 464.844 306.328 464.842 306.712 464.767 C 307.096 464.692 306.708 464.634 305.85 464.636 C 304.991 464.64 304.678 464.7 305.152 464.771 Z  M 184.372 465.074 C 184.672 465.153 185.164 465.153 185.464 465.074 C 185.763 464.996 185.518 464.932 184.917 464.932 C 184.316 464.932 184.07 464.996 184.372 465.074 Z " fill-rule="evenodd" fill="rgb(116,95,64)"/></g></g></svg>